<svg width="1043" height="372" viewBox="0 0 1043 372" fill="none" xmlns="http://www.w3.org/2000/svg">
<path d="M8.672 134.016V132.8H9.984V144H8.64V135.968C8.48 136.112 8.224 136.176 7.872 136.176H6.064V134.976H7.888C8.416 134.976 8.672 134.576 8.672 134.016ZM11.7818 138.656V138.144C11.7818 134.96 13.5098 132.704 16.0378 132.704C18.5498 132.704 20.2778 134.96 20.2778 138.144V138.656C20.2778 142 18.5498 144.096 16.0378 144.096C13.5098 144.096 11.7818 142 11.7818 138.656ZM18.9178 138.608V138.192C18.9178 135.536 17.7658 133.936 16.0378 133.936C14.2938 133.936 13.1418 135.536 13.1418 138.192V138.608C13.1418 141.264 14.2938 142.864 16.0378 142.864C17.7658 142.864 18.9178 141.264 18.9178 138.608ZM25.5288 144.096C23.1448 144.096 21.5768 142.48 21.5768 139.936C21.5768 137.44 23.1928 135.744 25.5608 135.744C27.5608 135.744 28.8248 136.864 29.1608 138.656H27.7848C27.5448 137.568 26.7448 136.912 25.5448 136.912C23.9768 136.912 22.9208 138.16 22.9208 139.936C22.9208 141.712 23.9768 142.928 25.5448 142.928C26.7128 142.928 27.5128 142.256 27.7688 141.216H29.1608C28.8408 142.976 27.5128 144.096 25.5288 144.096ZM39.7031 135.744C41.3991 135.744 42.7911 136.72 42.7911 139.296V144H41.4791V139.376C41.4791 137.776 40.7751 136.944 39.5431 136.944C38.1831 136.944 37.3511 137.968 37.3511 139.632V144H36.0391V139.376C36.0391 137.776 35.3191 136.944 34.0711 136.944C32.7271 136.944 31.9111 138.064 31.9111 139.696V144H30.5991V135.84H31.7351L31.9111 136.96C32.3431 136.368 33.0311 135.744 34.2951 135.744C35.4311 135.744 36.4071 136.256 36.8711 137.296C37.3671 136.416 38.2471 135.744 39.7031 135.744Z" fill="#4A4A4A"/>
<path d="M459.528 47.096C457.496 47.096 456.104 45.88 455.832 44.008H457.176C457.432 45.144 458.232 45.912 459.592 45.912C461.544 45.912 462.616 44.136 462.616 41.608C462.616 41.448 462.616 41.336 462.6 41.064C462.584 41.128 462.568 41.224 462.504 41.368C462.008 42.472 460.888 43.208 459.384 43.208C457.176 43.208 455.624 41.752 455.624 39.464C455.624 37.304 457.208 35.704 459.512 35.704C461.064 35.704 462.2 36.408 462.904 37.56C463.464 38.536 463.784 39.88 463.784 41.352C463.784 44.872 462.2 47.096 459.528 47.096ZM459.48 42.024C461.032 42.024 462.088 40.968 462.088 39.432C462.088 37.928 461.064 36.888 459.528 36.888C457.976 36.888 456.968 37.96 456.968 39.464C456.968 40.952 457.928 42.024 459.48 42.024ZM465.157 41.656V41.144C465.157 37.96 466.885 35.704 469.413 35.704C471.925 35.704 473.653 37.96 473.653 41.144V41.656C473.653 45 471.925 47.096 469.413 47.096C466.885 47.096 465.157 45 465.157 41.656ZM472.293 41.608V41.192C472.293 38.536 471.141 36.936 469.413 36.936C467.669 36.936 466.517 38.536 466.517 41.192V41.608C466.517 44.264 467.669 45.864 469.413 45.864C471.141 45.864 472.293 44.264 472.293 41.608ZM478.904 47.096C476.52 47.096 474.952 45.48 474.952 42.936C474.952 40.44 476.568 38.744 478.936 38.744C480.936 38.744 482.2 39.864 482.536 41.656H481.16C480.92 40.568 480.12 39.912 478.92 39.912C477.352 39.912 476.296 41.16 476.296 42.936C476.296 44.712 477.352 45.928 478.92 45.928C480.088 45.928 480.888 45.256 481.144 44.216H482.536C482.216 45.976 480.888 47.096 478.904 47.096ZM493.078 38.744C494.774 38.744 496.166 39.72 496.166 42.296V47H494.854V42.376C494.854 40.776 494.15 39.944 492.918 39.944C491.558 39.944 490.726 40.968 490.726 42.632V47H489.414V42.376C489.414 40.776 488.694 39.944 487.446 39.944C486.102 39.944 485.286 41.064 485.286 42.696V47H483.974V38.84H485.11L485.286 39.96C485.718 39.368 486.406 38.744 487.67 38.744C488.806 38.744 489.782 39.256 490.246 40.296C490.742 39.416 491.622 38.744 493.078 38.744Z" fill="#4A4A4A"/>
<path d="M461.56 361.208C462.808 361.496 463.8 362.456 463.8 363.992C463.8 365.8 462.248 367.096 459.72 367.096C457.192 367.096 455.64 365.8 455.64 363.992C455.64 362.472 456.616 361.496 457.88 361.208C456.808 360.968 455.96 360.024 455.96 358.68C455.96 356.92 457.432 355.704 459.72 355.704C462.008 355.704 463.48 356.92 463.48 358.68C463.48 359.96 462.648 360.968 461.56 361.208ZM457.336 358.68C457.336 359.784 458.28 360.52 459.72 360.52C461.16 360.52 462.104 359.784 462.104 358.68C462.104 357.592 461.16 356.856 459.72 356.856C458.28 356.856 457.336 357.592 457.336 358.68ZM459.72 365.944C461.32 365.944 462.424 365.096 462.424 363.896C462.424 362.712 461.32 361.864 459.72 361.864C458.12 361.864 457.016 362.712 457.016 363.896C457.016 365.096 458.136 365.944 459.72 365.944ZM469.318 359.496C471.51 359.496 473.03 361.032 473.03 363.256C473.03 365.736 471.206 367.08 469.11 367.08C466.614 367.08 465.174 365.464 465.062 363.512H466.39C466.518 364.808 467.494 365.88 469.11 365.88C470.422 365.88 471.654 365 471.654 363.272C471.654 361.752 470.678 360.68 469.126 360.68C468.438 360.68 467.062 360.872 466.582 362.2L465.286 362.168L465.654 355.8H472.358V357.032H466.886L466.63 360.568C467.318 359.752 468.278 359.496 469.318 359.496ZM478.091 367.096C475.707 367.096 474.139 365.48 474.139 362.936C474.139 360.44 475.755 358.744 478.123 358.744C480.123 358.744 481.387 359.864 481.723 361.656H480.347C480.107 360.568 479.307 359.912 478.107 359.912C476.539 359.912 475.483 361.16 475.483 362.936C475.483 364.712 476.539 365.928 478.107 365.928C479.275 365.928 480.075 365.256 480.331 364.216H481.723C481.403 365.976 480.075 367.096 478.091 367.096ZM492.266 358.744C493.962 358.744 495.354 359.72 495.354 362.296V367H494.042V362.376C494.042 360.776 493.338 359.944 492.106 359.944C490.746 359.944 489.914 360.968 489.914 362.632V367H488.602V362.376C488.602 360.776 487.882 359.944 486.634 359.944C485.29 359.944 484.474 361.064 484.474 362.696V367H483.162V358.84H484.298L484.474 359.96C484.906 359.368 485.594 358.744 486.858 358.744C487.994 358.744 488.97 359.256 489.434 360.296C489.93 359.416 490.81 358.744 492.266 358.744Z" fill="#4A4A4A"/>
<path d="M1007.38 122.176C1008.41 122.368 1009.48 123.184 1009.48 124.896C1009.48 126.8 1007.88 128.096 1005.45 128.096C1003.02 128.096 1001.45 126.768 1001.45 124.544H1002.78C1002.79 126.016 1003.94 126.896 1005.53 126.896C1006.98 126.896 1008.1 126.08 1008.1 124.8C1008.1 123.632 1007.14 122.88 1005.4 122.88H1004.44V121.712H1005.32C1006.98 121.712 1007.82 120.88 1007.82 119.744C1007.82 118.608 1006.79 117.904 1005.45 117.904C1004.04 117.904 1003.02 118.752 1003 120.032H1001.67C1001.69 118.064 1003.22 116.704 1005.43 116.704C1007.74 116.704 1009.19 117.904 1009.19 119.664C1009.19 121.072 1008.46 121.888 1007.38 122.176ZM1010.81 122.656V122.144C1010.81 118.96 1012.54 116.704 1015.07 116.704C1017.58 116.704 1019.31 118.96 1019.31 122.144V122.656C1019.31 126 1017.58 128.096 1015.07 128.096C1012.54 128.096 1010.81 126 1010.81 122.656ZM1017.95 122.608V122.192C1017.95 119.536 1016.8 117.936 1015.07 117.936C1013.33 117.936 1012.17 119.536 1012.17 122.192V122.608C1012.17 125.264 1013.33 126.864 1015.07 126.864C1016.8 126.864 1017.95 125.264 1017.95 122.608ZM1024.56 128.096C1022.18 128.096 1020.61 126.48 1020.61 123.936C1020.61 121.44 1022.22 119.744 1024.59 119.744C1026.59 119.744 1027.86 120.864 1028.19 122.656H1026.82C1026.58 121.568 1025.78 120.912 1024.58 120.912C1023.01 120.912 1021.95 122.16 1021.95 123.936C1021.95 125.712 1023.01 126.928 1024.58 126.928C1025.74 126.928 1026.54 126.256 1026.8 125.216H1028.19C1027.87 126.976 1026.54 128.096 1024.56 128.096ZM1038.73 119.744C1040.43 119.744 1041.82 120.72 1041.82 123.296V128H1040.51V123.376C1040.51 121.776 1039.81 120.944 1038.57 120.944C1037.21 120.944 1036.38 121.968 1036.38 123.632V128H1035.07V123.376C1035.07 121.776 1034.35 120.944 1033.1 120.944C1031.76 120.944 1030.94 122.064 1030.94 123.696V128H1029.63V119.84H1030.77L1030.94 120.96C1031.37 120.368 1032.06 119.744 1033.33 119.744C1034.46 119.744 1035.44 120.256 1035.9 121.296C1036.4 120.416 1037.28 119.744 1038.73 119.744Z" fill="#4A4A4A"/>
<path d="M71.672 236.016V234.8H72.984V246H71.64V237.968C71.48 238.112 71.224 238.176 70.872 238.176H69.064V236.976H70.888C71.416 236.976 71.672 236.576 71.672 236.016ZM78.6538 246.096C76.2698 246.096 74.7018 244.48 74.7018 241.936C74.7018 239.44 76.3178 237.744 78.6858 237.744C80.6858 237.744 81.9498 238.864 82.2858 240.656H80.9098C80.6698 239.568 79.8698 238.912 78.6698 238.912C77.1018 238.912 76.0458 240.16 76.0458 241.936C76.0458 243.712 77.1018 244.928 78.6698 244.928C79.8378 244.928 80.6378 244.256 80.8938 243.216H82.2858C81.9658 244.976 80.6378 246.096 78.6538 246.096ZM92.8281 237.744C94.5241 237.744 95.9161 238.72 95.9161 241.296V246H94.6041V241.376C94.6041 239.776 93.9001 238.944 92.6681 238.944C91.3081 238.944 90.4761 239.968 90.4761 241.632V246H89.1641V241.376C89.1641 239.776 88.4441 238.944 87.1961 238.944C85.8521 238.944 85.0361 240.064 85.0361 241.696V246H83.7241V237.84H84.8601L85.0361 238.96C85.4681 238.368 86.1561 237.744 87.4201 237.744C88.5561 237.744 89.5321 238.256 89.9961 239.296C90.4921 238.416 91.3721 237.744 92.8281 237.744ZM101.451 243.312H102.795C102.843 244.272 103.691 244.976 105.051 244.976C106.203 244.976 107.019 244.48 107.019 243.728C107.019 242.704 106.123 242.624 104.907 242.48C103.083 242.256 101.627 241.888 101.627 240.192C101.627 238.704 102.987 237.728 104.827 237.744C106.683 237.76 108.027 238.624 108.155 240.32H106.811C106.715 239.488 105.947 238.864 104.827 238.864C103.691 238.864 102.923 239.344 102.923 240.096C102.923 240.992 103.787 241.104 104.971 241.248C106.827 241.472 108.315 241.824 108.315 243.632C108.315 245.152 106.859 246.096 105.051 246.096C102.939 246.096 101.483 245.104 101.451 243.312ZM113.531 246.096C111.083 246.096 109.483 244.416 109.483 241.92C109.483 239.44 111.051 237.744 113.355 237.744C115.659 237.744 117.163 239.2 117.227 241.616C117.227 241.792 117.211 241.984 117.195 242.176H110.859V242.288C110.907 243.84 111.883 244.928 113.435 244.928C114.587 244.928 115.483 244.32 115.755 243.264H117.083C116.763 244.896 115.419 246.096 113.531 246.096ZM110.939 241.088H115.819C115.691 239.68 114.731 238.896 113.371 238.896C112.171 238.896 111.067 239.76 110.939 241.088ZM125.94 244.8H126.356V246H125.636C124.548 246 124.18 245.536 124.164 244.736C123.652 245.472 122.836 246.096 121.428 246.096C119.636 246.096 118.42 245.2 118.42 243.712C118.42 242.08 119.556 241.168 121.7 241.168H124.1V240.608C124.1 239.552 123.348 238.912 122.068 238.912C120.916 238.912 120.148 239.456 119.988 240.288H118.676C118.868 238.688 120.164 237.744 122.132 237.744C124.212 237.744 125.412 238.784 125.412 240.688V244.256C125.412 244.688 125.572 244.8 125.94 244.8ZM124.1 242.672V242.272H121.572C120.404 242.272 119.748 242.704 119.748 243.632C119.748 244.432 120.436 244.976 121.524 244.976C123.156 244.976 124.1 244.032 124.1 242.672ZM136.469 237.744C138.165 237.744 139.557 238.72 139.557 241.296V246H138.245V241.376C138.245 239.776 137.541 238.944 136.309 238.944C134.949 238.944 134.117 239.968 134.117 241.632V246H132.805V241.376C132.805 239.776 132.085 238.944 130.837 238.944C129.493 238.944 128.677 240.064 128.677 241.696V246H127.365V237.84H128.501L128.677 238.96C129.109 238.368 129.797 237.744 131.061 237.744C132.197 237.744 133.173 238.256 133.637 239.296C134.133 238.416 135.013 237.744 136.469 237.744ZM152.643 244.8H153.059V246H152.339C151.251 246 150.883 245.536 150.867 244.736C150.355 245.472 149.539 246.096 148.131 246.096C146.339 246.096 145.123 245.2 145.123 243.712C145.123 242.08 146.259 241.168 148.403 241.168H150.803V240.608C150.803 239.552 150.051 238.912 148.771 238.912C147.619 238.912 146.851 239.456 146.691 240.288H145.379C145.571 238.688 146.867 237.744 148.835 237.744C150.915 237.744 152.115 238.784 152.115 240.688V244.256C152.115 244.688 152.275 244.8 152.643 244.8ZM150.803 242.672V242.272H148.275C147.107 242.272 146.451 242.704 146.451 243.632C146.451 244.432 147.139 244.976 148.227 244.976C149.859 244.976 150.803 244.032 150.803 242.672ZM154.068 246V234.8H155.38V246H154.068ZM157.177 246V234.8H158.489V246H157.177ZM164.047 246.096C161.663 246.096 159.999 244.4 159.999 241.92C159.999 239.44 161.663 237.744 164.047 237.744C166.431 237.744 168.095 239.44 168.095 241.92C168.095 244.4 166.431 246.096 164.047 246.096ZM164.047 244.928C165.663 244.928 166.751 243.664 166.751 241.92C166.751 240.176 165.663 238.912 164.047 238.912C162.431 238.912 161.343 240.176 161.343 241.92C161.343 243.664 162.431 244.928 164.047 244.928ZM171.206 246L168.566 237.84H169.942L171.974 244.48L174.118 237.84H175.334L177.366 244.48L179.494 237.84H180.822L178.102 246H176.661L174.694 239.936L172.646 246H171.206ZM188.768 244.8H189.184V246H188.464C187.376 246 187.008 245.536 186.992 244.736C186.48 245.472 185.664 246.096 184.256 246.096C182.464 246.096 181.248 245.2 181.248 243.712C181.248 242.08 182.384 241.168 184.528 241.168H186.928V240.608C186.928 239.552 186.176 238.912 184.896 238.912C183.744 238.912 182.976 239.456 182.816 240.288H181.504C181.696 238.688 182.992 237.744 184.96 237.744C187.04 237.744 188.24 238.784 188.24 240.688V244.256C188.24 244.688 188.4 244.8 188.768 244.8ZM186.928 242.672V242.272H184.4C183.232 242.272 182.576 242.704 182.576 243.632C182.576 244.432 183.264 244.976 184.352 244.976C185.984 244.976 186.928 244.032 186.928 242.672ZM194.193 237.744C196.033 237.744 197.489 238.752 197.489 241.456V246H196.177V241.536C196.177 239.84 195.393 238.944 193.969 238.944C192.433 238.944 191.505 240.08 191.505 241.92V246H190.193V237.84H191.329L191.505 238.944C191.985 238.32 192.817 237.744 194.193 237.744ZM202.732 246.096C200.348 246.096 198.78 244.48 198.78 241.936C198.78 239.44 200.396 237.744 202.764 237.744C204.764 237.744 206.028 238.864 206.364 240.656H204.988C204.748 239.568 203.948 238.912 202.748 238.912C201.18 238.912 200.124 240.16 200.124 241.936C200.124 243.712 201.18 244.928 202.748 244.928C203.916 244.928 204.716 244.256 204.972 243.216H206.364C206.044 244.976 204.716 246.096 202.732 246.096ZM211.562 246.096C209.114 246.096 207.514 244.416 207.514 241.92C207.514 239.44 209.082 237.744 211.386 237.744C213.69 237.744 215.194 239.2 215.258 241.616C215.258 241.792 215.242 241.984 215.226 242.176H208.89V242.288C208.938 243.84 209.914 244.928 211.466 244.928C212.618 244.928 213.514 244.32 213.786 243.264H215.114C214.794 244.896 213.45 246.096 211.562 246.096ZM208.97 241.088H213.85C213.722 239.68 212.762 238.896 211.402 238.896C210.202 238.896 209.098 239.76 208.97 241.088Z" fill="#4A4A4A"/>
<path d="M901 115.255L909.4 115.255L909.4 120.475L908.44 120.475L908.44 116.299L905.632 116.299L905.632 119.755L904.672 119.755L904.672 116.299L901 116.299L901 115.255ZM900.928 123.814C900.928 122.026 902.2 120.778 904.06 120.778C905.92 120.778 907.192 122.026 907.192 123.814C907.192 125.602 905.92 126.85 904.06 126.85C902.2 126.85 900.928 125.602 900.928 123.814ZM901.804 123.814C901.804 125.026 902.752 125.842 904.06 125.842C905.368 125.842 906.316 125.026 906.316 123.814C906.316 122.602 905.368 121.786 904.06 121.786C902.752 121.786 901.804 122.602 901.804 123.814ZM901 127.979L909.4 127.979L909.4 128.963L901 128.963L901 127.979ZM906.184 135.135L909.4 135.135L909.4 136.119L901 136.119L901 135.267L901.984 135.135C901.42 134.727 900.928 134.067 900.928 133.035C900.928 131.343 902.068 130.095 904.06 130.095C905.932 130.095 907.192 131.343 907.192 133.035C907.192 134.067 906.772 134.763 906.184 135.135ZM901.804 133.131C901.804 134.331 902.728 135.147 904.036 135.147C905.38 135.147 906.316 134.331 906.316 133.131C906.316 131.919 905.392 131.103 904.06 131.103C902.728 131.103 901.804 131.919 901.804 133.131ZM901 145.616L901 140.744L909.4 140.744L909.4 141.788L901.96 141.788L901.96 145.616L901 145.616ZM908.152 147.033C908.152 146.673 908.416 146.397 908.788 146.397C909.16 146.397 909.424 146.673 909.424 147.033C909.424 147.393 909.16 147.669 908.788 147.669C908.416 147.669 908.152 147.393 908.152 147.033ZM901 146.529L907.12 146.529L907.12 147.513L901 147.513L901 146.529ZM907.192 151.861C907.192 153.241 906.436 154.333 904.408 154.333L901 154.333L901 153.349L904.348 153.349C905.62 153.349 906.292 152.761 906.292 151.693C906.292 150.541 905.44 149.845 904.06 149.845L901 149.845L901 148.861L907.12 148.861L907.12 149.713L906.292 149.845C906.76 150.205 907.192 150.829 907.192 151.861ZM900.928 158.338C900.928 156.502 902.188 155.302 904.06 155.302C905.92 155.302 907.192 156.478 907.192 158.206C907.192 159.934 906.1 161.062 904.288 161.11C904.156 161.11 904.012 161.098 903.868 161.086L903.868 156.334L903.784 156.334C902.62 156.37 901.804 157.102 901.804 158.266C901.804 159.13 902.26 159.802 903.052 160.006L903.052 161.002C901.828 160.762 900.928 159.754 900.928 158.338ZM904.684 156.394L904.684 160.054C905.74 159.958 906.328 159.238 906.328 158.218C906.328 157.318 905.68 156.49 904.684 156.394Z" fill="#4A4A4A"/>
<path d="M431.255 108V99.6H436.475V100.56H432.299V103.368H435.755V104.328H432.299V108H431.255ZM439.814 108.072C438.026 108.072 436.778 106.8 436.778 104.94C436.778 103.08 438.026 101.808 439.814 101.808C441.602 101.808 442.85 103.08 442.85 104.94C442.85 106.8 441.602 108.072 439.814 108.072ZM439.814 107.196C441.026 107.196 441.842 106.248 441.842 104.94C441.842 103.632 441.026 102.684 439.814 102.684C438.602 102.684 437.786 103.632 437.786 104.94C437.786 106.248 438.602 107.196 439.814 107.196ZM443.979 108V99.6H444.963V108H443.979ZM451.135 102.816V99.6H452.119V108H451.267L451.135 107.016C450.727 107.58 450.067 108.072 449.035 108.072C447.343 108.072 446.095 106.932 446.095 104.94C446.095 103.068 447.343 101.808 449.035 101.808C450.067 101.808 450.763 102.228 451.135 102.816ZM449.131 107.196C450.331 107.196 451.147 106.272 451.147 104.964C451.147 103.62 450.331 102.684 449.131 102.684C447.919 102.684 447.103 103.608 447.103 104.94C447.103 106.272 447.919 107.196 449.131 107.196ZM461.616 108H456.744V99.6H457.788V107.04H461.616V108ZM463.033 100.848C462.673 100.848 462.397 100.584 462.397 100.212C462.397 99.84 462.673 99.576 463.033 99.576C463.393 99.576 463.669 99.84 463.669 100.212C463.669 100.584 463.393 100.848 463.033 100.848ZM462.529 108V101.88H463.513V108H462.529ZM467.861 101.808C469.241 101.808 470.333 102.564 470.333 104.592V108H469.349V104.652C469.349 103.38 468.761 102.708 467.693 102.708C466.541 102.708 465.845 103.56 465.845 104.94V108H464.861V101.88H465.713L465.845 102.708C466.205 102.24 466.829 101.808 467.861 101.808ZM474.338 108.072C472.502 108.072 471.302 106.812 471.302 104.94C471.302 103.08 472.478 101.808 474.206 101.808C475.934 101.808 477.062 102.9 477.11 104.712C477.11 104.844 477.098 104.988 477.086 105.132H472.334V105.216C472.37 106.38 473.102 107.196 474.266 107.196C475.13 107.196 475.802 106.74 476.006 105.948H477.002C476.762 107.172 475.754 108.072 474.338 108.072ZM472.394 104.316H476.054C475.958 103.26 475.238 102.672 474.218 102.672C473.318 102.672 472.49 103.32 472.394 104.316Z" fill="#4A4A4A"/>
<path d="M3.08 18V5.4H7.868C10.784 5.4 12.476 6.624 12.476 8.73C12.476 10.314 11.54 11.214 10.1 11.52C11.774 11.736 12.926 12.618 12.926 14.418C12.926 16.614 11.198 18 8.102 18H3.08ZM7.94 7.524H5.78V10.584H7.94C9.092 10.584 9.776 9.99 9.776 9.054C9.776 8.118 9.11 7.524 7.94 7.524ZM8.12 12.672H5.78V15.858H8.12C9.416 15.858 10.154 15.264 10.154 14.292C10.154 13.266 9.398 12.672 8.12 12.672ZM18.8609 18.108C15.9089 18.108 13.9829 16.218 13.9829 13.374C13.9829 10.53 15.9089 8.64 18.8609 8.64C21.8129 8.64 23.7389 10.53 23.7389 13.374C23.7389 16.236 21.8129 18.108 18.8609 18.108ZM18.8609 16.038C20.2829 16.038 21.1649 14.94 21.1649 13.374C21.1649 11.808 20.2829 10.71 18.8609 10.71C17.4389 10.71 16.5749 11.808 16.5749 13.374C16.5749 14.94 17.4389 16.038 18.8609 16.038ZM31.8499 9.9V5.4H34.3879V18H32.1739L31.9219 16.722C31.3099 17.514 30.4099 18.108 29.0779 18.108C26.5939 18.108 24.7759 16.29 24.7759 13.356C24.7759 10.494 26.5939 8.64 29.0599 8.64C30.3379 8.64 31.2559 9.144 31.8499 9.9ZM29.6359 16.038C31.0219 16.038 31.8859 14.958 31.8859 13.392C31.8859 11.808 31.0219 10.71 29.6359 10.71C28.2499 10.71 27.3679 11.79 27.3679 13.374C27.3679 14.958 28.2499 16.038 29.6359 16.038ZM38.8214 18.054L35.2574 8.748H37.9574L40.2074 15.336L42.4034 8.748H45.1214L41.0174 19.314C40.4414 20.844 39.9734 21.6 38.5334 21.6H36.0674V19.458H37.4714C38.1194 19.458 38.3354 19.296 38.5874 18.666L38.8214 18.054Z" fill="#363636"/>
<path d="M1.08 288V275.4H5.868C8.784 275.4 10.476 276.624 10.476 278.73C10.476 280.314 9.54 281.214 8.1 281.52C9.774 281.736 10.926 282.618 10.926 284.418C10.926 286.614 9.198 288 6.102 288H1.08ZM5.94 277.524H3.78V280.584H5.94C7.092 280.584 7.776 279.99 7.776 279.054C7.776 278.118 7.11 277.524 5.94 277.524ZM6.12 282.672H3.78V285.858H6.12C7.416 285.858 8.154 285.264 8.154 284.292C8.154 283.266 7.398 282.672 6.12 282.672ZM16.8609 288.108C13.9089 288.108 11.9829 286.218 11.9829 283.374C11.9829 280.53 13.9089 278.64 16.8609 278.64C19.8129 278.64 21.7389 280.53 21.7389 283.374C21.7389 286.236 19.8129 288.108 16.8609 288.108ZM16.8609 286.038C18.2829 286.038 19.1649 284.94 19.1649 283.374C19.1649 281.808 18.2829 280.71 16.8609 280.71C15.4389 280.71 14.5749 281.808 14.5749 283.374C14.5749 284.94 15.4389 286.038 16.8609 286.038ZM29.8499 279.9V275.4H32.3879V288H30.1739L29.9219 286.722C29.3099 287.514 28.4099 288.108 27.0779 288.108C24.5939 288.108 22.7759 286.29 22.7759 283.356C22.7759 280.494 24.5939 278.64 27.0599 278.64C28.3379 278.64 29.2559 279.144 29.8499 279.9ZM27.6359 286.038C29.0219 286.038 29.8859 284.958 29.8859 283.392C29.8859 281.808 29.0219 280.71 27.6359 280.71C26.2499 280.71 25.3679 281.79 25.3679 283.374C25.3679 284.958 26.2499 286.038 27.6359 286.038ZM36.8214 288.054L33.2574 278.748H35.9574L38.2074 285.336L40.4034 278.748H43.1214L39.0174 289.314C38.4414 290.844 37.9734 291.6 36.5334 291.6H34.0674V289.458H35.4714C36.1194 289.458 36.3354 289.296 36.5874 288.666L36.8214 288.054ZM48.1424 283.86L50.7884 283.896C50.8784 285.12 51.8504 285.966 53.3984 285.966C54.6404 285.966 55.5584 285.426 55.5584 284.436C55.5584 283.374 54.5324 283.158 52.4264 282.744C50.3024 282.348 48.4304 281.664 48.4304 279.108C48.4304 276.876 50.2844 275.292 53.1284 275.292C56.0984 275.292 57.9884 276.84 58.0244 279.252H55.3784C55.2524 278.19 54.4424 277.452 53.1284 277.452C51.9764 277.452 51.1484 277.938 51.1484 278.91C51.1484 279.936 52.1384 280.152 54.2264 280.548C56.3864 280.944 58.2944 281.592 58.2764 284.13C58.2584 286.488 56.3144 288.108 53.3624 288.108C50.1584 288.108 48.1604 286.416 48.1424 283.86ZM60.3644 285.354V280.89H58.8344V278.748H60.3644V276.156H62.9024V278.748H65.0264V280.89H62.9024V284.94C62.9024 285.588 63.1544 285.858 63.8204 285.858H65.0804V288H63.0104C61.2464 288 60.3644 287.118 60.3644 285.354ZM71.457 278.748H71.889V281.052H70.881C69.369 281.052 68.793 282.06 68.793 283.464V288H66.255V278.748H68.559L68.793 280.134C69.297 279.306 70.017 278.748 71.457 278.748ZM81.6141 285.858H81.9021V288H80.6061C79.2921 288 78.8781 287.37 78.8961 286.488C78.2481 287.514 77.3121 288.108 75.8721 288.108C73.8741 288.108 72.4341 287.154 72.4341 285.39C72.4341 283.428 73.9101 282.312 76.6821 282.312H78.5181V281.862C78.5181 281.034 77.9241 280.494 76.8621 280.494C75.8721 280.494 75.2061 280.944 75.0981 281.628H72.6501C72.8301 279.828 74.4861 278.64 76.9341 278.64C79.5261 278.64 81.0201 279.792 81.0201 282.006V285.282C81.0201 285.768 81.2181 285.858 81.6141 285.858ZM78.5181 284.184V284.004H76.6641C75.6021 284.004 74.9901 284.436 74.9901 285.21C74.9901 285.858 75.5121 286.272 76.3581 286.272C77.6901 286.272 78.5001 285.444 78.5181 284.184ZM88.194 278.64C90.696 278.622 92.496 280.476 92.496 283.392C92.496 286.272 90.696 288.108 88.212 288.108C86.934 288.108 86.016 287.586 85.422 286.83V291.6H82.884V278.748H85.098L85.35 280.026C85.944 279.234 86.88 278.64 88.194 278.64ZM87.636 286.038C89.022 286.038 89.922 284.94 89.922 283.356C89.922 281.79 89.022 280.71 87.636 280.71C86.25 280.71 85.386 281.79 85.386 283.356C85.386 284.94 86.25 286.038 87.636 286.038Z" fill="#363636"/>
<path d="M923.08 18V5.4H925.78V10.458H930.784V5.4H933.484V18H930.784V12.798H925.78V18H923.08ZM944.253 15.858H944.541V18H943.245C941.931 18 941.517 17.37 941.535 16.488C940.887 17.514 939.951 18.108 938.511 18.108C936.513 18.108 935.073 17.154 935.073 15.39C935.073 13.428 936.549 12.312 939.321 12.312H941.157V11.862C941.157 11.034 940.563 10.494 939.501 10.494C938.511 10.494 937.845 10.944 937.737 11.628H935.289C935.469 9.828 937.125 8.64 939.573 8.64C942.165 8.64 943.659 9.792 943.659 12.006V15.282C943.659 15.768 943.857 15.858 944.253 15.858ZM941.157 14.184V14.004H939.303C938.241 14.004 937.629 14.436 937.629 15.21C937.629 15.858 938.151 16.272 938.997 16.272C940.329 16.272 941.139 15.444 941.157 14.184ZM950.833 8.64C952.831 8.64 954.541 9.702 954.541 12.87V18H952.003V13.122C952.003 11.556 951.409 10.728 950.131 10.728C948.817 10.728 948.061 11.664 948.061 13.266V18H945.523V8.748H947.737L947.971 9.9C948.565 9.18 949.411 8.64 950.833 8.64ZM962.819 9.9V5.4H965.357V18H963.143L962.891 16.722C962.279 17.514 961.379 18.108 960.047 18.108C957.563 18.108 955.745 16.29 955.745 13.356C955.745 10.494 957.563 8.64 960.029 8.64C961.307 8.64 962.225 9.144 962.819 9.9ZM960.605 16.038C961.991 16.038 962.855 14.958 962.855 13.392C962.855 11.808 961.991 10.71 960.605 10.71C959.219 10.71 958.337 11.79 958.337 13.374C958.337 14.958 959.219 16.038 960.605 16.038ZM967.126 18V5.4H969.664V18H967.126ZM976.005 18.108C972.927 18.108 971.073 16.254 971.073 13.392C971.073 10.512 972.963 8.64 975.825 8.64C978.597 8.64 980.469 10.368 980.505 13.086C980.505 13.356 980.487 13.662 980.433 13.95H973.719V14.076C973.773 15.39 974.619 16.182 975.897 16.182C976.923 16.182 977.643 15.732 977.859 14.868H980.361C980.073 16.668 978.471 18.108 976.005 18.108ZM973.773 12.294H977.949C977.769 11.16 976.995 10.53 975.843 10.53C974.745 10.53 973.917 11.196 973.773 12.294ZM986.051 13.86L988.697 13.896C988.787 15.12 989.759 15.966 991.307 15.966C992.549 15.966 993.467 15.426 993.467 14.436C993.467 13.374 992.441 13.158 990.335 12.744C988.211 12.348 986.339 11.664 986.339 9.108C986.339 6.876 988.193 5.292 991.037 5.292C994.007 5.292 995.897 6.84 995.933 9.252H993.287C993.161 8.19 992.351 7.452 991.037 7.452C989.885 7.452 989.057 7.938 989.057 8.91C989.057 9.936 990.047 10.152 992.135 10.548C994.295 10.944 996.203 11.592 996.185 14.13C996.167 16.488 994.223 18.108 991.271 18.108C988.067 18.108 986.069 16.416 986.051 13.86ZM998.273 15.354V10.89H996.743V8.748H998.273V6.156H1000.81V8.748H1002.93V10.89H1000.81V14.94C1000.81 15.588 1001.06 15.858 1001.73 15.858H1002.99V18H1000.92C999.155 18 998.273 17.118 998.273 15.354ZM1009.37 8.748H1009.8V11.052H1008.79C1007.28 11.052 1006.7 12.06 1006.7 13.464V18H1004.16V8.748H1006.47L1006.7 10.134C1007.21 9.306 1007.93 8.748 1009.37 8.748ZM1019.52 15.858H1019.81V18H1018.51C1017.2 18 1016.79 17.37 1016.8 16.488C1016.16 17.514 1015.22 18.108 1013.78 18.108C1011.78 18.108 1010.34 17.154 1010.34 15.39C1010.34 13.428 1011.82 12.312 1014.59 12.312H1016.43V11.862C1016.43 11.034 1015.83 10.494 1014.77 10.494C1013.78 10.494 1013.11 10.944 1013.01 11.628H1010.56C1010.74 9.828 1012.39 8.64 1014.84 8.64C1017.43 8.64 1018.93 9.792 1018.93 12.006V15.282C1018.93 15.768 1019.13 15.858 1019.52 15.858ZM1016.43 14.184V14.004H1014.57C1013.51 14.004 1012.9 14.436 1012.9 15.21C1012.9 15.858 1013.42 16.272 1014.27 16.272C1015.6 16.272 1016.41 15.444 1016.43 14.184ZM1026.1 8.64C1028.6 8.622 1030.4 10.476 1030.4 13.392C1030.4 16.272 1028.6 18.108 1026.12 18.108C1024.84 18.108 1023.92 17.586 1023.33 16.83V21.6H1020.79V8.748H1023.01L1023.26 10.026C1023.85 9.234 1024.79 8.64 1026.1 8.64ZM1025.54 16.038C1026.93 16.038 1027.83 14.94 1027.83 13.356C1027.83 11.79 1026.93 10.71 1025.54 10.71C1024.16 10.71 1023.29 11.79 1023.29 13.356C1023.29 14.94 1024.16 16.038 1025.54 16.038ZM1031.31 14.922H1033.72C1033.81 15.732 1034.52 16.29 1035.76 16.29C1036.82 16.29 1037.47 15.948 1037.47 15.3C1037.47 14.544 1036.84 14.49 1035.34 14.292C1033.18 14.04 1031.51 13.554 1031.51 11.646C1031.51 9.81 1033.11 8.604 1035.49 8.622C1037.97 8.622 1039.68 9.72 1039.81 11.61H1037.38C1037.31 10.872 1036.6 10.422 1035.58 10.422C1034.59 10.422 1033.94 10.782 1033.94 11.376C1033.94 12.078 1034.73 12.15 1036.06 12.312C1038.19 12.528 1039.95 13.014 1039.95 15.102C1039.95 16.938 1038.22 18.108 1035.74 18.108C1033.17 18.108 1031.42 16.902 1031.31 14.922Z" fill="#363636"/>
<path d="M878 62L878 90.5L878 115L878 163L878 187L878 211L868 211L70 211L70 62L868 62L878 62Z" stroke="#3D3D3D" stroke-width="2.5"/>
<line x1="79.5" y1="61" x2="79.5" y2="212" stroke="black" stroke-dasharray="2 2"/>
<line x1="68.9951" y1="72.5" x2="877.005" y2="72.5" stroke="black" stroke-dasharray="2 2"/>
<line x1="68.9951" y1="199.5" x2="877.005" y2="199.5" stroke="black" stroke-dasharray="2 2"/>
<path d="M896 98L896 97.5L896.5 97.5L896.5 98L896 98ZM896 179L896.5 179L896.5 179.5L896 179.5L896 179ZM870 179L875 176.113L875 181.887L870 179ZM870 98L875 95.1132L875 100.887L870 98ZM896 98L896.5 98L896.5 179L896 179L895.5 179L895.5 98L896 98ZM896 179L896 179.5L874.5 179.5L874.5 179L874.5 178.5L896 178.5L896 179ZM896 98L896 98.5L874.5 98.5L874.5 98L874.5 97.5L896 97.5L896 98Z" fill="black"/>
<path d="M858 116L858.5 116L858.5 115.5L858 115.5L858 116ZM86.0001 116L86.0001 115.5L85.5001 115.5L85.5001 116L86.0001 116ZM86.0001 133L88.8868 128L83.1133 128L86.0001 133ZM858 133L860.887 128L855.113 128L858 133ZM858 116L858 115.5L86.0001 115.5L86.0001 116L86.0001 116.5L858 116.5L858 116ZM86.0001 116L85.5001 116L85.5001 128.5L86.0001 128.5L86.5001 128.5L86.5001 116L86.0001 116ZM858 116L857.5 116L857.5 128.5L858 128.5L858.5 128.5L858.5 116L858 116Z" fill="black"/>
<path d="M957 53L957 212L981.5 212L981.5 53L957 53Z" stroke="#3D3D3D" stroke-width="2.5"/>
<path d="M922 53L922 212L946.5 212L946.5 53L922 53Z" stroke="#3D3D3D" stroke-width="2.5"/>
<rect x="70.25" y="312.25" width="764.5" height="25.5" stroke="black" stroke-width="2.5"/>
<line x1="867.5" y1="62" x2="867.5" y2="212" stroke="black"/>
<line x1="71" y1="137.5" x2="877" y2="137.5" stroke="black"/>
</svg>
