<svg width="343" height="270" viewBox="0 0 343 270" fill="none" xmlns="http://www.w3.org/2000/svg">
<path d="M90.3592 181.054C90.3592 181.054 84.9247 186.64 79.8485 186.619C73.9277 186.593 71.6287 180.392 70.8824 177.528C70.7054 176.848 71.3154 176.254 72.0134 176.331C73.249 176.469 75.0894 176.545 76.7573 176.108C82.3091 174.653 79.8485 171.161 79.8485 171.161C79.8485 171.161 50.7884 149.52 56.3536 128.499C61.9188 107.477 89.0608 82.4457 116.945 80.2726C116.945 80.2726 116.348 61.0923 107.052 58.6328C103.784 57.7681 102.69 60.0759 99.6327 58.6328C93.8517 55.9035 90.2779 45.5575 95.923 42.5574C98.6948 41.0844 101.488 42.5574 101.488 42.5574C82.2315 15.5302 102.635 5.01938 136.64 0.69171C153.433 -1.44533 162.949 14.8794 163.845 19.8581C162.608 21.7089 155.546 19.2399 155.807 19.8622C164.041 39.4576 159.089 68.8772 151.479 69.3248C140.968 69.9431 139.821 73.4729 139.821 73.4729V80.2726C174.19 80.2726 191.757 131.848 218.344 143.339" stroke="black"/>
<path d="M214.016 163.12C194.098 156.876 183.488 147.688 165.172 124.786C173.477 150.794 171.354 236.077 171.973 245.969C172.591 255.862 188.666 268.846 188.666 268.846H82.3215C86.6495 225.566 90.3595 207.636 90.3595 169.921" stroke="black"/>
<path d="M84.1763 138.388C79.8033 144.188 90.9774 155.7 90.9774 155.7L92.214 129.114C92.214 129.114 86.5825 135.197 84.1763 138.388Z" stroke="black"/>
<path d="M241.22 148.394C243.172 153.371 244.93 161.265 240.602 166.829C232.634 168.427 228.783 168.837 220.816 166.829C220.816 166.829 230.369 165.724 224.526 157.555C218.684 149.386 213.273 151.135 220.817 139.007C230.709 135.915 236.8 140.696 239.603 145.189M241.22 148.394L342 86.4526L239.603 145.189M241.22 148.394C240.787 147.291 240.25 146.227 239.603 145.189" stroke="black"/>
<path d="M215.87 152.609C219.364 158.188 221.432 160.513 225.763 159.945" stroke="black"/>
<path d="M213.397 160.028C215.895 164.429 218.23 165.471 223.908 164.974" stroke="black"/>
<path d="M214.634 161.883C213.397 166.21 206.256 161.383 205.978 164.357C205.739 166.912 208.373 168.408 210.924 168.685C213.854 169.003 217.107 164.357 217.107 164.357" stroke="black"/>
<path d="M140.44 62.3393C143.445 57.81 149.532 57.3931 152.806 57.3931" stroke="black"/>
<path d="M137.967 202.071V268.227" stroke="black"/>
<circle cx="123.746" cy="41.9364" r="1.85485" fill="black"/>
<circle cx="148.478" cy="38.2264" r="1.85485" fill="black"/>
<path d="M115.709 33.2803C115.709 33.2803 121.273 36.99 129.929 34.5168" stroke="black" stroke-width="2" stroke-linecap="round"/>
<path d="M157.044 26.479C150.861 29.1321 149.006 30.3686 142.205 27.2772" stroke="black" stroke-width="2" stroke-linecap="round"/>
<circle cx="27.8227" cy="62.5195" r="27.3227" stroke="black"/>
<circle cx="68.6293" cy="37.7879" r="8.77423" stroke="black"/>
<path d="M28.2765 69.1711H26.7285V67.4431C26.7285 61.4671 33.5685 61.5751 33.5685 55.8511C33.5685 52.8991 31.1565 50.7031 27.5565 50.7031C23.7765 50.7031 20.9685 53.1511 20.8965 57.3271H19.2405C19.3485 52.2151 22.8045 49.1911 27.5565 49.1911C32.1285 49.1911 35.1885 51.9631 35.1885 55.8511C35.1885 62.1511 28.2765 62.1871 28.2765 67.4431V69.1711ZM27.5205 74.8951C26.5485 74.8951 25.7925 74.1751 25.7925 73.2031C25.7925 72.2311 26.5485 71.4751 27.5205 71.4751C28.4925 71.4751 29.2125 72.2311 29.2125 73.2031C29.2125 74.1751 28.4925 74.8951 27.5205 74.8951Z" fill="black"/>
<path d="M141.586 26.6592C139.34 34.9301 141.329 36.4579 144.678 44.5894" stroke="black"/>
</svg>
