<svg width="271" height="92" viewBox="0 0 271 92" fill="none" xmlns="http://www.w3.org/2000/svg">
<path d="M266.364 35.6754L258.697 78.2127C258.095 79.7052 255.81 82.7798 251.481 83.1381C247.151 83.4963 126.699 88.3619 67.0139 90.75C63.7064 90.4515 56.1894 88.8694 52.5813 84.9291L48.5221 49.1082M266.364 35.6754C267.807 35.3172 268.469 34.0336 268.619 33.4366L269.75 25.8246M266.364 35.6754C265.011 36.1231 261.583 37.0187 258.697 37.0187C255.81 37.0187 163.983 39.3087 118.43 40.4537M48.5221 49.1082L107.606 47.7649C109.566 47.4868 114.292 45.6288 118.43 40.4537M48.5221 49.1082C21.1002 50.1828 10.0352 48.9589 7.93043 48.2127C-1.08994 43.5559 0.263115 37.6156 2.06719 35.2276C3.11957 34.3321 6.12636 31.9142 9.73451 29.4067C13.3427 26.8992 22.6637 25.9739 26.8732 25.8246C31.0393 25.8246 38.9399 25.8246 45.365 25.8246M82.7995 35.2276C80.9955 35.2276 80.5444 34.3321 80.5444 33.8843C80.5444 33.5858 80.5444 32.2724 80.5444 29.4067C80.5444 27.7017 81.396 26.7575 82.3391 26.2724M65.2098 20.4515L62.9547 24.0336C62.8368 24.1004 62.6864 24.1748 62.5037 24.2542M52.1303 25.8246C54.0223 25.8246 55.677 25.711 57.0915 25.5363M52.1303 25.8246C50.9918 25.8246 49.6077 25.8246 48.0711 25.8246M52.1303 25.8246L63.8567 7.01866C65.0595 5.82463 68.3669 3.43657 71.9751 3.43657C75.5832 3.43657 87.009 3.43657 92.2709 3.43657M74.6812 26.2724C74.0798 28.8097 71.6143 34.153 66.5629 35.2276M66.5629 35.2276L17.8528 36.1231M66.5629 35.2276H102.644C103.847 35.0783 106.343 34.6007 106.704 33.8843M62.5037 24.2542C62.3534 22.6881 63.3155 19.5559 68.3669 19.5559C74.6812 19.5559 76.4853 22.2425 76.4853 24.9291C76.4853 27.6156 75.1322 29.8544 73.7792 29.8544M62.5037 24.2542C61.5587 24.6647 59.7488 25.2082 57.0915 25.5363M57.0915 25.5363C57.0416 24.281 57.2432 22.5993 57.8904 20.8993M68.818 13.735C62.3075 13.9744 59.1945 17.4742 57.8904 20.8993M68.818 13.735C72.8298 13.5875 75.7545 14.9537 77.8383 16.9141M68.818 13.735L74.6812 5.67538H82.3391M82.3391 26.2724C82.9811 25.9421 83.6655 25.8246 84.1526 25.8246L86.4077 25.8677M82.3391 26.2724C82.2767 25.6699 82.1585 24.9854 81.975 24.2542M57.8904 20.8993C59.5785 19.1082 64.0372 15.6157 68.3669 15.9739C73.7792 16.4216 80.2484 18.654 81.975 24.2542M81.975 24.2542C81.4963 22.3476 80.5732 20.124 79.0369 18.2127M48.0711 25.8246L57.8904 6.12314C59.1307 5.07836 63.6839 2.89925 71.9751 2.54105C74.4862 2.43256 84.8668 2.34871 99.398 2.28453M48.0711 25.8246C47.2114 25.8246 46.304 25.8246 45.365 25.8246M220.36 2.09328C221.262 2.09328 223.157 2.18284 223.517 2.54105M220.36 2.09328C217.796 2.09328 215.082 2.09356 212.242 2.09415M220.36 2.09328L222.615 3.6038M45.365 25.8246L55.2874 5.67538C56.3398 4.03358 61.1506 0.75 71.9751 0.75C82.7995 0.75 175.409 0.75 220.36 0.75C229.741 0.75 232.087 2.54105 233.44 3.43657L268.619 24.0336C269.412 24.6898 269.754 25.2859 269.75 25.8246M118.819 31.1978C119.113 31.7087 119.272 32.1995 119.332 32.6382M118.819 31.1978L123.842 31.1163M118.819 31.1978C118.709 31.0062 118.58 30.8119 118.43 30.6164M231.636 3.88433C231.738 3.94348 231.841 4.00331 231.945 4.0638M119.332 32.6382C119.372 32.9307 119.369 33.2 119.332 33.4365V39.2574C119.035 39.6746 118.734 40.0731 118.43 40.4537M119.332 32.6382L258.697 29.8545C262.872 29.4888 269.735 28.2268 269.75 25.8246M77.8383 16.9141L82.3391 5.67538M77.8383 16.9141C78.2738 17.3238 78.6726 17.7595 79.0369 18.2127M82.3391 5.67538C82.9373 6.72015 83.7748 9.16791 82.3391 10.6008L79.0369 18.2127M76.0343 7.01866H80.0934L79.4921 7.91418M76.0343 7.01866L73.7792 10.6008C74.1371 10.55 74.6271 10.5027 75.1322 10.4905M76.0343 7.01866L76.4853 7.91418M75.1322 10.4905C76.1124 10.467 77.1492 10.5757 77.3873 11.0485L79.4921 7.91418M75.1322 10.4905L76.4853 7.91418M76.4853 7.91418H79.4921M92.2709 3.43657L86.4077 25.8677M92.2709 3.43657C93.0226 3.73508 94.526 4.60075 94.526 5.67538C94.526 6.75 90.7654 19.6162 88.8851 25.9149M86.4077 25.8677L88.8851 25.9149M88.8851 25.9149L92.4446 25.9829M105.35 2.26018L103.095 26.1863M105.35 2.26018C111.474 2.23693 118.165 2.21662 125.195 2.19895M105.35 2.26018C103.3 2.26796 101.313 2.27608 99.398 2.28453M103.095 26.1863L107.606 26.2724C113.939 26.946 117.058 28.8279 118.43 30.6164M103.095 26.1863L92.4446 25.9829M115.273 2.26018L116.626 29.4067M125.195 2.19895L131.059 30.9993M125.195 2.19895C128.438 2.19081 131.753 2.18322 135.118 2.17617M131.059 30.9993L123.842 31.1163M131.059 30.9993L137.466 30.8954M123.842 31.1163L123.391 29.8545C122.339 30.0065 120.144 30.3985 119.783 30.75M118.43 30.6164C118.881 29.9147 120.505 28.5112 123.391 28.5112L122.94 26.2724C121.587 26.1231 118.701 26.4515 117.979 28.959C117.829 29.4067 117.618 29.7649 117.979 27.6157C118.34 25.4664 121.437 24.9291 122.94 24.9291L122.489 22.6903C121.235 22.6903 118.665 23.1516 117.72 24.9291M117.528 25.3769C117.581 25.2191 117.646 25.07 117.72 24.9291M117.72 24.9291C117.572 22.4217 120.988 21.4963 122.489 21.347L122.038 19.556C121.001 19.4178 118.806 19.6122 117.757 21.347M117.757 21.347C117.673 21.4862 117.596 21.6352 117.528 21.7948L117.757 21.347ZM117.757 21.347C117.38 20.3022 118.069 18.2127 122.038 18.2127L121.587 16.4216C120.431 16.2818 118.049 16.5613 117.222 18.6605M117.077 19.1082C117.118 18.9505 117.166 18.8014 117.222 18.6605M117.222 18.6605C117.324 17.6157 118.34 15.0784 121.587 15.0784L121.136 13.7351C119.783 14.0336 116.987 14.5411 116.626 15.9739C116.776 14.7799 117.889 12.3918 121.136 12.3918L120.685 11.0485C119.555 10.8993 117.162 11.1381 116.626 13.2873C116.626 12.0933 117.438 9.70523 120.685 9.70523L120.234 8.36194C118.863 8.5112 116.493 9.16791 116.175 10.6008C116.322 9.58182 117.508 7.56536 120.234 7.46642L120.023 6.12314C118.741 6.27239 116.175 6.83955 116.175 7.91418C116.175 7.01866 116.897 4.77985 119.783 4.77985V3.88433C118.731 4.03358 116.536 4.60075 116.175 5.67538C116.626 4.77985 117.889 2.98881 119.332 2.98881V2.26018M145.04 30.7726L135.118 2.17617M145.04 30.7726L137.466 30.8954M145.04 30.7726L146.631 30.7468M135.118 2.17617C138.238 2.16963 141.401 2.16355 144.589 2.1579M144.589 2.1579L159.473 30.5386M144.589 2.1579C147.727 2.15234 150.89 2.1472 154.06 2.14246M159.473 30.5386L172.552 30.3265M159.473 30.5386L151.5 30.6679M172.552 30.3265L154.06 2.14246M172.552 30.3265L186.083 30.1071M154.06 2.14246C157.216 2.13774 160.378 2.13341 163.532 2.12946M163.532 2.12946L186.083 30.1071M163.532 2.12946C166.552 2.12567 169.564 2.12223 172.552 2.1191M186.083 30.1071L199.613 29.8877M199.613 29.8877L172.552 2.1191M199.613 29.8877L212.693 29.6757M172.552 2.1191C176.049 2.11544 179.515 2.11223 182.926 2.10942M182.926 2.10942L212.693 29.6757M182.926 2.10942C186.138 2.10677 189.302 2.10449 192.397 2.10254M212.693 29.6757L225.321 29.4709M225.321 29.4709L192.397 2.10254M225.321 29.4709L238.401 29.2588M192.397 2.10254C195.795 2.1004 199.111 2.09867 202.319 2.0973M202.319 2.0973L238.401 29.2588M202.319 2.0973C205.762 2.09584 209.08 2.0948 212.242 2.09415M238.401 29.2588L251.03 29.054M251.03 29.054L212.242 2.09415M251.03 29.054L254.638 28.9955M254.638 28.9955L256.893 28.959C259.053 28.6632 262.062 28.067 264.109 27.2357M254.638 28.9955C256.442 28.9663 257.494 27.7649 257.795 27.1679L256.762 26.4762M109.861 2.24392V3.43657C108.508 3.43657 105.801 3.79478 105.801 5.22761C106.553 4.77985 108.417 3.97388 109.861 4.33209V5.22761C108.658 5.22761 106.162 5.76493 105.801 7.91418C106.854 7.31717 109.049 6.21269 109.41 6.5709V7.91418C108.057 8.06344 105.35 8.8097 105.35 10.6008C106.253 10.0037 108.327 8.8097 109.41 8.8097V10.153C108.057 10.4515 105.35 11.4963 105.35 13.2873C105.952 12.6903 107.606 11.4963 109.41 11.4963V12.8396C108.057 12.9888 105.26 13.9142 104.899 16.4216C106.102 15.5261 108.688 13.7351 109.41 13.7351V15.5261C108.057 15.5261 105.26 16.2425 104.899 19.1082C105.2 18.3619 106.523 16.8694 109.41 16.8694V18.6605C107.756 18.6605 104.448 19.3769 104.448 22.2425C105.2 21.347 107.245 19.556 109.41 19.556V21.7948C107.756 21.7948 104.358 22.5112 103.997 25.3769C104.899 24.4814 107.245 22.6903 109.41 22.6903V25.3769C108.357 25.3769 106.162 25.556 105.801 26.2724M99.398 2.28453L99.0362 3.43657C97.8335 3.43657 95.7889 3.79478 95.4281 5.22761C95.8791 4.92911 97.2321 4.33209 99.0362 4.33209V5.22761C97.6832 5.37687 94.977 6.03358 94.977 7.46642C95.7287 6.86941 97.5929 5.76493 99.0362 6.12314L98.5852 7.46642C97.2321 7.46642 94.4358 8.09329 94.075 10.6008C94.6764 9.85448 96.4203 8.36194 98.5852 8.36194L98.1342 10.153C96.7811 9.85448 93.9848 10.0634 93.624 13.2873C94.075 12.541 95.5183 11.0485 97.6832 11.0485V12.8396C96.1798 12.8396 93.0828 13.556 92.7219 16.4216C93.173 15.6754 94.7064 14.1828 97.2321 14.1828V15.5261C95.5784 15.6754 92.1807 16.6008 91.8199 19.1082C92.2709 18.3619 93.9848 16.8694 97.2321 16.8694L96.7811 18.6605C95.1274 18.6605 91.7297 19.2873 91.3689 21.7948C92.1206 21.0485 94.1652 19.6455 96.3301 20.0037V21.7948C94.8267 21.944 91.6395 22.7799 90.9179 24.9291C91.8199 24.3321 94.075 23.1381 95.8791 23.1381L95.4281 25.3769C94.4915 25.3331 92.5835 25.3931 92.4446 25.9829M256.762 26.4762C258.76 24.961 263.027 22.9915 264.109 27.2357M256.762 26.4762C257.563 24.7665 260.291 21.7948 264.794 23.5858M256.762 26.4762L255.089 25.3553M264.109 27.2357C266.194 26.3892 267.283 25.2988 265.462 24.0336C265.281 23.9076 265.057 23.7577 264.794 23.5858M264.794 23.5858C264.169 23.1775 263.324 22.6454 262.305 22.0166M251.221 22.7645C252.294 20.5823 255.382 17.2436 259.148 21.347M251.221 22.7645L251.779 23.1381M251.221 22.7645L249.773 21.7948M251.779 23.1381C252.581 21.667 254.998 19.3388 258.246 21.7948M251.779 23.1381L255.089 25.3553M255.089 25.3553C255.69 23.7193 257.975 20.7611 262.305 22.0166M262.305 22.0166C260.79 21.0814 258.891 19.9322 256.762 18.6571M249.773 21.7948C250.556 20.1507 253.05 17.2215 256.762 18.6571M249.773 21.7948L246.519 19.6153M256.762 18.6571C255.48 17.8892 254.115 17.0757 252.7 16.2358M244.535 18.2861C245.174 16.6576 247.405 13.7924 251.221 15.3589M244.535 18.2861L245.762 19.1082M244.535 18.2861L240.883 15.8401M251.221 15.3589C251.719 15.6538 252.212 15.9464 252.7 16.2358M251.221 15.3589C249.509 14.3451 247.743 13.3037 245.98 12.2666M245.762 19.1082C246.377 17.641 248.624 15.0125 252.7 16.2358M245.762 19.1082L246.519 19.6153M246.519 19.6153C247.167 18.4318 249.426 16.4048 253.285 17.7649M240.883 15.8401C241.796 14.2919 244.382 11.793 247.421 14.1828M240.883 15.8401L239.576 14.9642M241.107 16.2358C241.859 15.4022 244.084 13.9142 246.97 14.6306M239.576 14.9642C240.178 13.4263 242.302 10.7337 245.98 12.2666M239.576 14.9642L237.072 13.2873M245.98 12.2666C244.183 11.2095 242.389 10.1569 240.656 9.14288M236.404 12.8396C237.069 11.347 239.303 8.8097 242.911 10.6008M236.404 12.8396L237.072 13.2873M236.404 12.8396L235.067 11.944M237.072 13.2873C237.966 12.0933 240.205 10.0634 242.009 11.4963M235.067 11.944C235.577 10.3751 237.409 7.61838 240.656 9.14288M235.067 11.944L232.538 10.2501M240.656 9.14288C238.15 7.67603 235.773 6.28989 233.706 5.08729M230.387 8.8097C231.249 7.46642 233.606 5.13806 236.146 6.5709M230.387 8.8097L231.724 9.70523M230.387 8.8097L228.028 7.22905M231.724 9.70523C232.793 8.54329 235.355 6.46881 237.048 7.46642M231.724 9.70523L232.538 10.2501M232.538 10.2501C233.44 9.32219 235.514 7.64553 236.597 8.36194M227.577 6.92694C228.506 5.66994 231.032 3.5422 233.706 5.08729M227.577 6.92694L228.028 7.22905M227.577 6.92694L226.377 6.12314M233.706 5.08729C233.09 4.72892 232.501 4.38685 231.945 4.0638M228.028 7.22905C229.08 6.41265 231.546 4.95896 232.989 5.67538M226.377 6.12314C227.309 4.8995 229.728 2.77455 231.945 4.0638M226.377 6.12314L223.703 4.33209M231.945 4.0638L229.832 2.54105C226.945 1.82463 224.543 3.43657 223.703 4.33209M222.615 3.6038C223.066 2.65254 224.69 0.929105 227.577 1.64552M222.615 3.6038L223.703 4.33209M136.086 27.3696L136.471 28.5112C135.435 28.7518 132.29 29.9214 131.961 30.3023C133.614 29.8545 137.012 29.1381 137.373 29.8545L137.466 30.8954M136.086 27.3696C133.21 27.614 131.713 29.1499 131.324 29.8872M136.086 27.3696L135.445 25.1771C134.084 25.143 131.236 25.7146 130.732 28.274C130.621 28.7329 130.442 29.1076 130.617 26.9356C130.792 24.7636 133.831 23.966 135.329 23.8387L134.687 21.6463C133.438 21.7524 130.917 22.4297 130.129 24.2807M130.129 24.2807C130.066 24.4274 130.014 24.5815 129.975 24.7432M130.129 24.2807C129.765 21.795 133.089 20.5837 134.572 20.3079L133.969 18.5616C132.923 18.5118 130.753 18.8913 129.857 20.7086M129.857 20.7086C129.785 20.8544 129.722 21.0094 129.667 21.1741L129.857 20.7086ZM129.857 20.7086C129.392 19.6996 129.899 17.5593 133.853 17.2232L133.25 15.4768C132.086 15.4354 129.737 15.9156 129.093 18.0772M129.093 18.0772C129.05 18.2223 129.014 18.3749 128.987 18.5355M129.093 18.0772C129.105 17.0275 129.899 14.4134 133.135 14.1385L132.57 12.8383C131.247 13.2503 128.505 13.9927 128.269 15.4508C128.316 14.2484 129.219 11.7749 132.455 11.4999L131.89 10.1997C130.751 10.1466 128.387 10.5873 128.038 12.774C127.935 11.5844 128.539 9.13627 131.774 8.86128L131.21 7.56109C129.856 7.8259 127.551 8.68095 127.358 10.1355C127.416 9.10783 128.425 6.99822 131.133 6.66883L130.807 5.34829C129.542 5.60562 127.034 6.38797 127.127 7.45869C127.05 6.56643 127.28 4.57652 130.157 4.33209L129.862 3.53653C128.946 3.74689 127.132 4.327 126.548 5.22761C127.025 4.24045 128.595 2.29543 129.862 2.18772M150.046 27.111L150.377 28.4715C149.257 28.9024 146.941 29.8768 146.631 30.3278M150.046 27.111C146.874 27.8705 145.434 29.7191 145.111 30.5485M150.046 27.111L149.55 26.2724C148.026 26.4772 145.491 27.1679 145.04 28.5112C144.985 29.0043 144.589 28.0634 144.589 27.111C144.589 25.4791 147.447 24.8769 149.099 24.4814L148.197 22.6903C146.819 23.0202 144.288 22.4325 143.687 24.4814C142.907 21.9808 146.133 21.8932 147.746 21.347L146.631 19.3448C145.456 19.4778 143.06 19.7618 142.334 21.7948C141.663 20.8358 141.58 18.8092 145.942 17.7649L145.491 16.4216C144.186 16.5842 142.013 16.1171 141.62 18.4608C141.475 17.3758 141.02 15.9327 144.589 15.0784L144.138 13.7351C142.724 14.3934 140.574 14.4277 140.53 15.9739C140.401 14.725 140.118 13.2462 143.687 12.3918L143.236 11.0485C141.957 11.1946 139.688 10.9696 139.628 13.2873C139.334 12.078 138.765 10.5596 142.334 9.70523L141.883 8.36194C140.413 8.87384 138.723 8.6182 138.726 10.153C138.636 9.08241 138.46 7.83603 141.432 7.01866L140.981 6.12314C139.608 6.61181 137.559 6.37801 137.824 7.46642C137.604 6.55941 137.357 5.98707 140.53 5.22761L140.079 4.33209C139.088 4.71071 137.139 4.4411 136.624 5.47321M136.624 5.47321C136.556 5.60796 136.513 5.74418 136.497 5.88083C136.53 5.75913 136.572 5.62165 136.624 5.47321ZM136.624 5.47321C137.007 4.37069 137.779 3.32348 139.177 2.98881M146.631 30.7468C148.205 30.3001 151.354 29.4963 151.354 29.8545C151.354 30.2127 151.451 30.546 151.5 30.6679M146.631 30.7468L151.5 30.6679M148.197 2.09328L149.099 2.98881C148.047 3.13806 145.942 3.70523 145.942 4.77985C146.844 4.18284 148.738 3.16791 149.099 3.88433C149.46 4.60075 149.851 5.07836 150.001 5.22761C148.949 5.37687 146.844 5.76493 146.844 6.12314C146.844 6.5709 150.452 6.12314 150.903 6.5709C151.264 6.92911 151.354 7.31717 151.354 7.46642C150.302 7.46642 148.197 7.73508 148.197 8.8097C149.55 8.66045 152.256 8.4515 152.256 8.8097C152.256 9.16791 152.858 9.85448 153.158 10.153C151.805 10.153 149.189 10.5112 149.55 11.944C150.753 11.4963 153.249 10.7799 153.609 11.4963L154.06 12.3918C153.008 12.8396 150.903 13.9142 150.903 14.6306C152.106 14.1828 154.692 13.3769 155.414 13.7351L156.316 15.0784C154.963 15.3769 152.347 16.3321 152.707 17.7649C153.76 17.1679 156.045 16.153 156.767 16.8694L157.669 18.2127C156.466 18.3619 154.06 19.0187 154.06 20.4515M154.06 20.8993C154.963 20.3022 157.127 19.1978 158.571 19.556L159.473 21.347C158.27 21.1978 155.865 21.4366 155.865 23.5858C156.767 23.1381 158.931 22.3321 160.375 22.6903L161.728 24.4814C160.224 24.4814 157.308 24.9291 157.669 26.7202L158.571 28.0634C158.571 27.1679 159.383 25.4664 162.63 25.8246L163.532 28.0634C162.329 28.362 159.834 29.2276 159.473 30.3023L161.277 30.3023C161.728 29.8545 162.991 29.0485 164.434 29.4067L164.885 30.3023M157.669 2.54105L158.12 2.98881C157.518 2.98881 156.225 3.25746 155.865 4.33209L156.316 5.22761C156.767 4.77985 157.939 3.88433 159.022 3.88433L159.924 4.77985C159.022 5.07836 157.218 5.94403 157.218 7.01866C157.969 6.72015 159.743 6.12314 160.826 6.12314L161.728 7.46642C160.675 7.61567 158.571 8.18284 158.571 9.25747L159.022 10.153C159.773 9.55597 161.547 8.36194 162.63 8.36194L163.532 9.70523C162.48 10.153 160.375 11.2276 160.375 11.944L160.826 12.3918C161.577 11.944 163.351 11.0485 164.434 11.0485L165.336 12.3918C164.284 12.6903 162.179 13.556 162.179 14.6306C162.931 14.3321 164.795 13.7351 166.238 13.7351L167.14 15.0784C166.088 15.3769 163.983 16.2425 163.983 17.3172C165.035 17.0187 167.411 16.4216 168.493 16.4216L169.846 17.7649C168.343 18.0634 165.426 19.0187 165.787 20.4515C166.539 20.0037 168.583 19.1082 170.748 19.1082L172.101 20.8993C170.748 21.1978 168.042 22.153 168.042 23.5858C168.643 23.1381 170.478 22.3321 173.003 22.6903L174.356 24.4814C172.703 24.7799 169.576 25.6455 170.297 26.7202L171.199 28.0634C171.199 27.3172 172.011 25.8246 175.258 25.8246L177.062 28.0634C175.409 28.2127 172.101 28.7799 172.101 29.8545H174.807C175.409 29.4067 176.972 28.7799 178.416 29.8545M167.591 2.09328L168.042 2.98881C167.441 3.13806 166.058 3.61567 165.336 4.33209C166.238 4.18284 168.313 3.97388 169.395 4.33209L169.846 5.22761C168.944 5.22761 167.14 5.49627 167.14 6.5709C167.892 6.42164 169.666 6.12314 170.748 6.12314L172.101 7.46642C171.049 7.61567 168.944 8.09329 168.944 8.8097C169.996 8.66045 172.282 8.36194 173.003 8.36194L173.905 9.70523C173.154 10.0037 171.56 10.7799 171.199 11.4963C171.951 11.347 173.725 11.0485 174.807 11.0485L176.16 12.3918C175.258 12.6903 173.454 13.4664 173.454 14.1828C174.206 13.8843 176.07 13.3769 177.513 13.7351L178.867 15.0784C177.814 15.2276 175.709 15.7948 175.709 16.8694C177.062 16.7202 179.859 16.4216 180.22 16.4216L181.573 17.7649C180.37 18.2127 177.964 19.2873 177.964 20.0037C179.167 19.556 181.753 18.75 182.475 19.1082L184.279 20.8993C182.926 21.347 180.22 22.4217 180.22 23.1381C181.573 22.8396 184.459 22.2425 185.181 22.2425L186.985 24.4814C185.782 24.7799 183.377 25.556 183.377 26.2724C184.73 25.9739 187.526 25.4664 187.887 25.8246L190.142 27.6157C188.939 28.0634 186.444 29.1381 186.083 29.8545H187.887C188.789 29.4067 190.683 28.6008 191.044 28.959L191.946 29.8545M177.964 2.09328L178.416 2.98881C177.694 2.98881 175.709 3.88433 174.807 4.33209C176.16 4.18284 178.957 3.97388 179.318 4.33209L180.22 5.22761C179.167 5.37687 177.062 5.85448 177.062 6.5709C178.265 6.42164 180.761 6.21269 181.122 6.5709L182.475 7.46642C181.422 7.76493 179.318 8.54105 179.318 9.25747C180.671 8.95896 183.467 8.36194 183.828 8.36194L184.73 9.70523C183.828 10.0037 182.024 10.7799 182.024 11.4963C183.076 11.1978 185.361 10.6903 186.083 11.0485L187.436 12.3918C186.383 12.3918 184.279 12.6605 184.279 13.7351L185.181 14.6306C186.083 14.1828 188.067 13.2873 188.789 13.2873L190.142 15.0784C189.09 15.3769 186.985 16.153 186.985 16.8694L187.887 17.7649C188.338 17.0187 189.691 15.6157 191.495 15.9739L193.299 17.7649C192.096 17.9142 189.691 18.4814 189.691 19.556L191.044 20.8993C190.894 20.153 191.405 18.75 194.652 19.1082L196.456 20.8993C195.254 21.0485 192.848 21.7052 192.848 23.1381L193.75 23.5858C193.75 23.1381 194.562 22.153 197.809 21.7948L199.613 24.0336C198.26 24.3321 195.554 25.1082 195.554 25.8246L196.907 27.1679C197.358 26.5709 198.802 25.2873 200.966 24.9291L203.222 27.6157C201.868 27.7649 199.162 28.3321 199.162 29.4067L200.064 29.8545C200.966 29.2575 203.222 28.3321 205.026 29.4067M186.985 2.09328L187.436 2.98881C186.684 3.13806 185.181 3.61567 185.181 4.33209L186.083 5.22761C186.383 4.6306 187.436 3.61567 189.24 4.33209L190.142 5.22761C189.541 5.22761 188.248 5.49627 187.887 6.5709L188.789 7.01866C189.24 6.72015 190.413 6.12314 191.495 6.12314L192.397 7.01866C191.345 7.16791 189.33 7.64553 189.691 8.36194L190.593 9.25747C191.194 8.8097 192.668 8.00373 193.75 8.36194L195.103 9.70523C194.201 9.85448 192.397 10.3321 192.397 11.0485L193.299 11.944C193.9 11.4963 195.464 10.6008 196.907 10.6008L198.26 11.944C197.358 12.2425 195.554 13.0187 195.554 13.7351L196.456 14.6306C196.907 14.1828 198.26 13.2873 200.064 13.2873L201.417 14.6306C200.515 14.9291 198.711 15.7052 198.711 16.4216L199.613 17.3172C200.064 16.8694 201.327 15.9739 202.771 15.9739L205.026 17.7649C203.823 17.9142 201.508 18.4814 201.868 19.556L202.771 20.4515C202.921 20.0037 203.853 19.1082 206.379 19.1082L208.183 20.4515C206.98 20.75 204.665 21.6157 205.026 22.6903L205.928 23.5858C206.228 22.9888 207.461 21.7948 209.987 21.7948L212.242 24.0336C210.739 24.1828 207.822 24.75 208.183 25.8246L209.536 26.7202C209.536 26.2724 210.257 25.2873 213.144 24.9291L215.85 27.1679C214.497 27.3172 211.791 27.8843 211.791 28.959L213.144 29.4067C213.745 29.1082 215.399 28.5112 217.203 28.5112L218.556 29.4067M196.456 2.09328L196.907 2.54105C196.306 2.6903 195.103 3.16791 195.103 3.88433L196.005 4.77985C196.607 4.18284 197.99 3.07836 198.711 3.43657L200.064 4.33209C199.162 4.48134 197.358 4.95896 197.358 5.67538L198.711 7.01866C199.012 6.42164 199.974 5.31717 201.417 5.67538L202.771 6.5709C201.718 6.86941 199.613 7.55597 199.613 7.91418L200.966 9.25747C201.718 8.66045 203.402 7.55597 204.124 7.91418L205.477 9.25747C204.725 9.55597 203.222 10.2425 203.222 10.6008L204.575 11.4963C205.176 11.0485 206.649 10.2425 207.732 10.6008L209.085 11.944C208.183 12.2425 206.379 13.0187 206.379 13.7351L207.281 14.6306C207.732 14.0336 209.085 12.8396 210.889 12.8396L212.242 14.6306C211.34 14.9291 209.536 15.7052 209.536 16.4216L210.438 17.3172C210.739 16.7202 211.881 15.6157 214.046 15.9739L216.301 17.3172C215.249 17.4664 213.144 18.0336 213.144 19.1082L214.046 20.0037C214.798 19.4067 216.662 18.3022 218.105 18.6605L220.36 20.4515C219.158 20.75 216.752 21.5261 216.752 22.2425L218.105 23.1381C218.707 22.5411 220.27 21.4366 221.713 21.7948L223.968 23.5858C222.916 23.5858 220.811 23.944 220.811 25.3769L222.164 26.7202C222.916 25.8246 224.69 24.2127 225.772 24.9291L228.479 27.1679C227.276 27.3172 224.87 27.8843 224.87 28.959L225.321 29.4067L229.832 28.5112L231.185 28.959M205.928 2.09328L206.379 2.98881C205.928 3.13806 205.026 3.52612 205.026 3.88433L205.928 4.77985C206.228 4.48134 207.1 3.88433 208.183 3.88433L209.987 4.77985C209.085 4.77985 207.281 4.95896 207.281 5.67538L208.634 7.01866C209.536 6.42164 211.43 5.31717 211.791 5.67538L213.144 7.01866C212.092 7.31717 210.077 8.00373 210.438 8.36194L211.791 9.25747C212.543 8.66045 214.136 7.55597 214.497 7.91418C214.858 8.27239 215.85 8.95896 216.301 9.25747C215.549 9.40672 214.046 9.88433 214.046 10.6008L215.399 11.4963C216 11.0485 217.474 10.2425 218.556 10.6008L220.36 11.944C219.158 12.0933 216.842 12.5709 217.203 13.2873L218.556 14.1828C219.308 13.7351 220.992 12.9291 221.713 13.2873C222.435 13.6455 223.517 14.3321 223.968 14.6306C222.916 14.7799 220.811 15.2575 220.811 15.9739L221.713 16.8694C222.615 16.2724 224.6 15.1679 225.321 15.5261L227.577 16.8694C226.675 17.1679 224.87 17.944 224.87 18.6605L225.772 19.556C226.524 18.8097 228.208 17.4963 228.93 18.2127L231.636 20.4515C230.734 20.4515 228.93 20.7202 228.93 21.7948L229.832 22.6903C230.433 22.2425 231.997 21.4366 233.44 21.7948L236.146 23.5858C235.094 23.7351 232.989 24.3022 232.989 25.3769L234.342 25.8246C234.643 25.3769 235.785 24.5709 237.95 24.9291L240.656 26.7202C239.604 27.0187 237.499 27.7948 237.499 28.5112L238.401 29.4067C239.453 28.6605 241.919 27.4366 243.362 28.5112L244.264 29.4067M215.85 2.09328V2.98881L214.948 3.88433L216.301 4.77985C216.602 4.33209 217.384 3.52612 218.105 3.88433C218.827 4.24254 219.308 4.6306 219.458 4.77985C218.857 5.07836 217.744 5.76493 218.105 6.12314C218.466 6.48135 218.857 6.5709 219.007 6.5709C219.609 6.12314 220.901 5.31717 221.262 5.67538C221.623 6.03358 222.315 6.42164 222.615 6.5709C222.315 6.5709 221.623 6.83956 221.262 7.91418L222.615 8.8097C222.916 8.36194 223.788 7.55597 224.87 7.91418L226.675 9.25747C226.073 9.40672 224.87 9.88433 224.87 10.6008L226.223 11.4963C226.675 10.8993 227.757 9.79478 228.479 10.153L230.283 11.4963C229.381 11.7948 227.667 12.4813 228.028 12.8396L229.832 14.1828C230.283 13.5858 231.365 12.4813 232.087 12.8396L234.793 14.1828C233.74 14.4813 231.726 15.2575 232.087 15.9739L233.44 16.8694C233.891 16.2724 235.063 15.1679 236.146 15.5261L238.852 17.3172C237.95 17.6157 236.146 18.3022 236.146 18.6605L237.499 19.556C237.95 19.1082 239.123 18.3022 240.205 18.6605L243.362 20.4515C242.31 20.6008 240.295 21.0784 240.656 21.7948L242.009 22.6903C242.61 22.0933 244.084 21.0784 245.166 21.7948L247.872 23.5858C246.82 23.5858 244.805 23.7649 245.166 24.4814L246.97 25.8246C247.572 25.2276 249.045 24.2127 250.127 24.9291L253.285 26.7202C252.082 26.8694 249.767 27.347 250.127 28.0634L251.481 28.959C252.383 28.5112 254.367 27.7052 255.089 28.0634L254.638 28.959" stroke="white" stroke-width="1.5"/>
</svg>
