<svg width="214" height="73" viewBox="0 0 214 73" fill="none" xmlns="http://www.w3.org/2000/svg">
<path d="M210.082 28.3023L204.039 61.8594C203.565 63.0369 201.764 65.4624 198.352 65.745C194.939 66.0276 100.011 69.8661 52.9729 71.75C50.3663 71.5145 44.4421 70.2664 41.5985 67.158L38.3995 38.8992M210.082 28.3023C211.219 28.0197 211.74 27.0071 211.859 26.5361L212.75 20.5311M210.082 28.3023C209.015 28.6555 206.314 29.362 204.039 29.362C201.764 29.362 129.395 31.1685 93.4942 32.0718M38.3995 38.8992L84.9634 37.8395C86.5085 37.6202 90.2331 36.1544 93.4942 32.0718M38.3995 38.8992C16.7881 39.747 8.06775 38.7815 6.40898 38.1928C-0.700014 34.5191 0.366335 29.8329 1.78813 27.949C2.61752 27.2425 4.98718 25.3351 7.83078 23.3569C10.6744 21.3788 18.0203 20.6488 21.3379 20.5311C24.6212 20.5311 30.8477 20.5311 35.9113 20.5311M65.4136 27.949C63.9918 27.949 63.6364 27.2425 63.6364 26.8893C63.6364 26.6538 63.6364 25.6176 63.6364 23.3569C63.6364 22.0119 64.3075 21.267 65.0507 20.8843M51.5511 16.2923L49.7738 19.1181C49.6809 19.1709 49.5624 19.2296 49.4184 19.2922M41.2431 20.5311C42.7342 20.5311 44.0382 20.4414 45.153 20.3037M41.2431 20.5311C40.3458 20.5311 39.255 20.5311 38.044 20.5311M41.2431 20.5311L50.4847 5.69528C51.4326 4.75332 54.0392 2.8694 56.8828 2.8694C59.7264 2.8694 68.7312 2.8694 72.8781 2.8694M59.0155 20.8843C58.5416 22.886 56.5985 27.1012 52.6174 27.949M52.6174 27.949L14.2289 28.6555M52.6174 27.949H81.0534C82.0013 27.8312 83.9681 27.4545 84.2525 26.8893M49.4184 19.2922C49.2999 18.0567 50.0582 15.5858 54.0392 15.5858C59.0155 15.5858 60.4373 17.7052 60.4373 19.8246C60.4373 21.944 59.371 23.7102 58.3046 23.7102M49.4184 19.2922C48.6736 19.616 47.2472 20.0448 45.153 20.3037M45.153 20.3037C45.1137 19.3133 45.2726 17.9867 45.7827 16.6455M54.3947 10.9938C49.2638 11.1826 46.8104 13.9436 45.7827 16.6455M54.3947 10.9938C57.5565 10.8774 59.8614 11.9551 61.5037 13.5016M54.3947 10.9938L59.0155 4.63557H65.0507M65.0507 20.8843C65.5567 20.6238 66.0961 20.5311 66.48 20.5311L68.2572 20.565M65.0507 20.8843C65.0016 20.4091 64.9085 19.869 64.7638 19.2922M45.7827 16.6455C47.1131 15.2326 50.6269 12.4774 54.0392 12.76C58.3046 13.1132 63.4031 14.8742 64.7638 19.2922M64.7638 19.2922C64.3866 17.7881 63.659 16.0339 62.4483 14.5261M38.044 20.5311L45.7827 4.98881C46.7601 4.1646 50.3485 2.44552 56.8828 2.16294C58.8618 2.07735 67.0429 2.01121 78.495 1.96058M38.044 20.5311C37.3665 20.5311 36.6513 20.5311 35.9113 20.5311M173.826 1.8097C174.537 1.8097 176.03 1.88035 176.314 2.16294M173.826 1.8097C171.805 1.8097 169.666 1.80992 167.428 1.81038M173.826 1.8097L175.603 3.00133M35.9113 20.5311L43.7312 4.63557C44.5606 3.34038 48.352 0.75 56.8828 0.75C65.4136 0.75 138.399 0.75 173.826 0.75C181.219 0.75 183.067 2.16294 184.134 2.8694L211.859 19.1182C212.484 19.6358 212.753 20.1061 212.75 20.5311M93.8008 24.7699C94.0323 25.1729 94.1575 25.5602 94.2051 25.9062M93.8008 24.7699L97.7596 24.7057M93.8008 24.7699C93.714 24.6188 93.6123 24.4655 93.4942 24.3113M182.712 3.22264C182.792 3.2693 182.874 3.3165 182.956 3.36422M94.2051 25.9062C94.2368 26.137 94.2339 26.3495 94.2051 26.536V31.1281C93.9713 31.4572 93.734 31.7716 93.4942 32.0718M94.2051 25.9062L204.039 23.7102C207.329 23.4217 212.738 22.4261 212.75 20.5311M61.5037 13.5016L65.0507 4.63557M61.5037 13.5016C61.8469 13.8249 62.1612 14.1686 62.4483 14.5261M65.0507 4.63557C65.5222 5.45979 66.1822 7.3908 65.0507 8.52115L62.4483 14.5261M60.0819 5.69528H63.2809L62.807 6.40174M60.0819 5.69528L58.3046 8.52115C58.5867 8.4811 58.9729 8.44379 59.371 8.4342M60.0819 5.69528L60.4373 6.40174M59.371 8.4342C60.1434 8.4156 60.9606 8.50142 61.1482 8.87438L62.807 6.40174M59.371 8.4342L60.4373 6.40174M60.4373 6.40174H62.807M72.8781 2.8694L68.2572 20.565M72.8781 2.8694C73.4705 3.10489 74.6553 3.78781 74.6553 4.63557C74.6553 5.48334 71.6915 15.6333 70.2096 20.6023M68.2572 20.565L70.2096 20.6023M70.2096 20.6023L73.0149 20.656M83.1861 1.94136L81.4089 20.8164M83.1861 1.94136C88.0121 1.92302 93.285 1.907 98.8259 1.89306M83.1861 1.94136C81.5701 1.9475 80.0041 1.95391 78.495 1.96058M81.4089 20.8164L84.9634 20.8843C89.9546 21.4157 92.4129 22.9003 93.4942 24.3113M81.4089 20.8164L73.0149 20.656M91.006 1.94136L92.0724 23.357M98.8259 1.89306L103.447 24.6134M98.8259 1.89306C101.381 1.88664 103.994 1.88065 106.646 1.87509M103.447 24.6134L97.7596 24.7057M103.447 24.6134L108.496 24.5314M97.7596 24.7057L97.4041 23.7102C96.5747 23.8301 94.8449 24.1393 94.5605 24.4167M93.4942 24.3113C93.8496 23.7577 95.1292 22.6505 97.4041 22.6505L97.0487 20.8843C95.9823 20.7666 93.7074 21.0256 93.1387 23.0037C93.0202 23.357 92.8543 23.6396 93.1387 21.944C93.4231 20.2485 95.8638 19.8246 97.0487 19.8246L96.6932 18.0585C95.7051 18.0585 93.6795 18.4224 92.935 19.8246M92.7833 20.1779C92.825 20.0534 92.876 19.9357 92.935 19.8246M92.935 19.8246C92.8178 17.8465 95.5101 17.1165 96.6932 16.9988L96.3378 15.5858C95.52 15.4768 93.7901 15.6302 92.9637 16.9988M92.9637 16.9988C92.8974 17.1085 92.837 17.2261 92.7833 17.352L92.9637 16.9988ZM92.9637 16.9988C92.6666 16.1746 93.2098 14.5261 96.3378 14.5261L95.9823 13.1132C95.0709 13.0029 93.1937 13.2234 92.5418 14.8794M92.4278 15.2326C92.4599 15.1082 92.4981 14.9905 92.5418 14.8794M92.5418 14.8794C92.6223 14.0551 93.4231 12.0535 95.9823 12.0535L95.6269 10.9938C94.5605 11.2293 92.3567 11.6296 92.0724 12.76C92.1908 11.818 93.0676 9.93408 95.6269 9.93408L95.2714 8.87438C94.3809 8.75664 92.4945 8.94503 92.0724 10.6406C92.0724 9.69859 92.7122 7.81468 95.2714 7.81468L94.916 6.75498C93.8354 6.87272 91.9672 7.3908 91.7169 8.52115C91.8325 7.71732 92.7678 6.12656 94.916 6.04851L94.7498 4.98881C93.7389 5.10655 91.7169 5.55398 91.7169 6.40174C91.7169 5.69528 92.2856 3.92911 94.5605 3.92911V3.22264C93.7311 3.34038 92.0013 3.78781 91.7169 4.63557C92.0724 3.92911 93.0676 2.51617 94.2051 2.51617V1.94136M114.466 24.4345L106.646 1.87509M114.466 24.4345L108.496 24.5314M114.466 24.4345L115.719 24.4142M106.646 1.87509C109.105 1.86993 111.597 1.86513 114.11 1.86068M114.11 1.86068L125.84 24.2499M114.11 1.86068C116.583 1.85629 119.076 1.85223 121.575 1.84849M125.84 24.2499L136.148 24.0826M125.84 24.2499L119.556 24.3519M136.148 24.0826L121.575 1.84849M136.148 24.0826L146.812 23.9095M121.575 1.84849C124.061 1.84477 126.554 1.84136 129.039 1.83824M129.039 1.83824L146.812 23.9095M129.039 1.83824C131.419 1.83525 133.793 1.83253 136.148 1.83007M146.812 23.9095L157.475 23.7364M157.475 23.7364L136.148 1.83007M157.475 23.7364L167.783 23.5691M136.148 1.83007C138.904 1.82718 141.635 1.82465 144.323 1.82243M144.323 1.82243L167.783 23.5691M144.323 1.82243C146.855 1.82034 149.348 1.81854 151.788 1.817M167.783 23.5691L177.736 23.4076M177.736 23.4076L151.788 1.817M177.736 23.4076L188.044 23.2403M151.788 1.817C154.466 1.81532 157.08 1.81395 159.608 1.81287M159.608 1.81287L188.044 23.2403M159.608 1.81287C162.321 1.81172 164.936 1.8109 167.428 1.81038M188.044 23.2403L197.996 23.0787M197.996 23.0787L167.428 1.81038M197.996 23.0787L200.84 23.0326M200.84 23.0326L202.617 23.0037C204.32 22.7704 206.691 22.3001 208.304 21.6443M200.84 23.0326C202.262 23.0095 203.091 22.0618 203.328 21.5908L202.514 21.0451M86.7406 1.92854V2.8694C85.6743 2.8694 83.5416 3.15199 83.5416 4.28234C84.134 3.92911 85.6032 3.29328 86.7406 3.57587V4.28234C85.7927 4.28234 83.8259 4.70622 83.5416 6.40174C84.3709 5.93077 86.1008 5.05945 86.3852 5.34204V6.40174C85.3188 6.51949 83.1861 7.10821 83.1861 8.52115C83.897 8.05017 85.5321 7.10821 86.3852 7.10821V8.16791C85.3188 8.4034 83.1861 9.22762 83.1861 10.6406C83.66 10.1696 84.9634 9.22762 86.3852 9.22762V10.2873C85.3188 10.4051 83.115 11.1351 82.8307 13.1132C83.7785 12.4067 85.8164 10.9938 86.3852 10.9938V12.4067C85.3188 12.4067 83.115 12.9719 82.8307 15.2326C83.0676 14.6439 84.1103 13.4664 86.3852 13.4664V14.8794C85.0818 14.8794 82.4752 15.4445 82.4752 17.7052C83.0676 16.9988 84.679 15.5858 86.3852 15.5858V17.352C85.0818 17.352 82.4041 17.9172 82.1198 20.1779C82.8307 19.4714 84.679 18.0585 86.3852 18.0585V20.1779C85.5558 20.1779 83.8259 20.3192 83.5416 20.8843M78.495 1.96058L78.2098 2.8694C77.262 2.8694 75.6506 3.15199 75.3662 4.28234C75.7217 4.04685 76.788 3.57587 78.2098 3.57587V4.28234C77.1435 4.40008 75.0108 4.91816 75.0108 6.04851C75.6032 5.57753 77.0724 4.70622 78.2098 4.98881L77.8544 6.04851C76.788 6.04851 74.5842 6.54304 74.2999 8.52115C74.7738 7.93242 76.1482 6.75498 77.8544 6.75498L77.4989 8.16791C76.4326 7.93242 74.2288 8.09727 73.9444 10.6406C74.2999 10.0518 75.4373 8.87438 77.1435 8.87438V10.2873C75.9586 10.2873 73.5179 10.8525 73.2335 13.1132C73.589 12.5245 74.7975 11.347 76.788 11.347V12.4067C75.4847 12.5245 72.807 13.2545 72.5226 15.2326C72.8781 14.6439 74.2288 13.4664 76.788 13.4664L76.4326 14.8794C75.1293 14.8794 72.4515 15.3739 72.1672 17.352C72.7596 16.7633 74.371 15.6565 76.0771 15.9391V17.352C74.8923 17.4697 72.3804 18.1291 71.8117 19.8246C72.5226 19.3537 74.2999 18.4117 75.7217 18.4117L75.3662 20.1779C74.6281 20.1434 73.1244 20.1907 73.0149 20.656M202.514 21.0451C204.089 19.8498 207.451 18.2961 208.304 21.6443M202.514 21.0451C203.145 19.6964 205.295 17.352 208.844 18.7649M202.514 21.0451L201.195 20.1609M208.304 21.6443C209.948 20.9765 210.806 20.1163 209.371 19.1182C209.228 19.0188 209.051 18.9005 208.844 18.7649M208.844 18.7649C208.352 18.4428 207.686 18.0231 206.883 17.527M198.147 18.117C198.993 16.3955 201.426 13.7617 204.394 16.9988M198.147 18.117L198.587 18.4117M198.147 18.117L197.006 17.352M198.587 18.4117C199.219 17.2512 201.124 15.4145 203.684 17.352M198.587 18.4117L201.195 20.1609M201.195 20.1609C201.669 18.8702 203.47 16.5366 206.883 17.527M206.883 17.527C205.689 16.7892 204.192 15.8826 202.514 14.8767M197.006 17.352C197.623 16.055 199.588 13.7442 202.514 14.8767M197.006 17.352L194.442 15.6326M202.514 14.8767C201.504 14.2709 200.428 13.6291 199.313 12.9666M192.878 14.584C193.381 13.2994 195.14 11.039 198.147 12.2748M192.878 14.584L193.845 15.2326M192.878 14.584L190 12.6544M198.147 12.2748C198.54 12.5075 198.929 12.7383 199.313 12.9666M198.147 12.2748C196.798 11.475 195.406 10.6534 194.017 9.83534M193.845 15.2326C194.329 14.0752 196.101 12.0016 199.313 12.9666M193.845 15.2326L194.442 15.6326M194.442 15.6326C194.952 14.699 196.732 13.0999 199.774 14.1729M190 12.6544C190.719 11.4331 192.757 9.46171 195.153 11.347M190 12.6544L188.969 11.9634M190.176 12.9666C190.769 12.309 192.522 11.1351 194.797 11.7003M188.969 11.9634C189.444 10.7502 191.118 8.626 194.017 9.83534M188.969 11.9634L186.996 10.6406M194.017 9.83534C192.601 9.00135 191.186 8.17099 189.821 7.37105M186.47 10.2873C186.994 9.10987 188.755 7.10821 191.598 8.52115M186.47 10.2873L186.996 10.6406M186.47 10.2873L185.416 9.58085M186.996 10.6406C187.701 9.69859 189.466 8.09727 190.887 9.22762M185.416 9.58085C185.818 8.34314 187.262 6.16839 189.821 7.37105M185.416 9.58085L183.423 8.24451M189.821 7.37105C187.846 6.21387 185.973 5.12036 184.344 4.17164M181.728 7.10821C182.407 6.04851 184.265 4.21169 186.267 5.34204M181.728 7.10821L182.782 7.81468M181.728 7.10821L179.868 5.86125M182.782 7.81468C183.624 6.89804 185.643 5.2615 186.977 6.04851M182.782 7.81468L183.423 8.24451M183.423 8.24451C184.134 7.51251 185.769 6.1898 186.622 6.75498M179.513 5.62292C180.245 4.63128 182.237 2.95274 184.344 4.17164M179.513 5.62292L179.868 5.86125M179.513 5.62292L178.567 4.98881M184.344 4.17164C183.858 3.88893 183.394 3.61907 182.956 3.36422M179.868 5.86125C180.698 5.2172 182.641 4.0704 183.778 4.63557M178.567 4.98881C179.302 4.0235 181.208 2.34714 182.956 3.36422M178.567 4.98881L176.46 3.57587M182.956 3.36422L181.29 2.16294C179.015 1.59776 177.122 2.8694 176.46 3.57587M175.603 3.00133C175.958 2.25089 177.238 0.891294 179.513 1.45647M175.603 3.00133L176.46 3.57587M107.409 21.7499L107.712 22.6505C106.896 22.8403 104.417 23.763 104.158 24.0634C105.461 23.7102 108.139 23.145 108.423 23.7102L108.496 24.5314M107.409 21.7499C105.143 21.9427 103.963 23.1543 103.656 23.736M107.409 21.7499L106.903 20.0203C105.831 19.9933 103.587 20.4443 103.19 22.4634C103.102 22.8254 102.961 23.121 103.099 21.4075C103.237 19.6941 105.632 19.0649 106.812 18.9644L106.307 17.2348C105.322 17.3186 103.335 17.8529 102.714 19.3131M102.714 19.3131C102.665 19.4288 102.624 19.5504 102.593 19.6779M102.714 19.3131C102.427 17.3522 105.047 16.3966 106.216 16.179L105.74 14.8013C104.916 14.7621 103.206 15.0615 102.5 16.4951M102.5 16.4951C102.443 16.6101 102.393 16.7324 102.35 16.8624L102.5 16.4951ZM102.5 16.4951C102.133 15.6991 102.533 14.0106 105.649 13.7455L105.174 12.3678C104.256 12.3352 102.405 12.714 101.898 14.4192M101.898 14.4192C101.864 14.5337 101.836 14.6541 101.814 14.7808M101.898 14.4192C101.907 13.5912 102.533 11.5289 105.083 11.312L104.638 10.2863C103.596 10.6113 101.434 11.197 101.248 12.3473C101.285 11.3988 101.997 9.44738 104.547 9.23045L104.102 8.20474C103.205 8.16291 101.341 8.51051 101.066 10.2356C100.985 9.29711 101.461 7.36583 104.011 7.1489L103.566 6.12319C102.499 6.3321 100.682 7.00664 100.53 8.15409C100.576 7.3434 101.371 5.67915 103.505 5.4193L103.249 4.37754C102.252 4.58055 100.275 5.19774 100.348 6.04241C100.287 5.33851 100.469 3.7687 102.736 3.57587L102.504 2.94826C101.782 3.11422 100.352 3.57186 99.8922 4.28234C100.268 3.50358 101.505 1.96918 102.504 1.8842M118.411 21.5459L118.672 22.6192C117.789 22.9591 115.964 23.7278 115.719 24.0836M118.411 21.5459C115.911 22.145 114.776 23.6034 114.521 24.2577M118.411 21.5459L118.02 20.8843C116.819 21.0459 114.821 21.5908 114.466 22.6505C114.422 23.0395 114.11 22.2973 114.11 21.5459C114.11 20.2585 116.362 19.7834 117.665 19.4714L116.954 18.0585C115.868 18.3187 113.873 17.8551 113.399 19.4714C112.784 17.4988 115.327 17.4296 116.598 16.9988L115.719 15.4192C114.794 15.5242 112.905 15.7482 112.333 17.352C111.804 16.5955 111.738 14.9967 115.177 14.1729L114.821 13.1132C113.792 13.2415 112.08 12.873 111.77 14.7219C111.656 13.8659 111.297 12.7275 114.11 12.0535L113.755 10.9938C112.641 11.5131 110.946 11.5402 110.911 12.76C110.81 11.7747 110.586 10.6081 113.399 9.93408L113.044 8.87438C112.036 8.98964 110.248 8.8121 110.2 10.6406C109.969 9.68651 109.52 8.48869 112.333 7.81468L111.978 6.75498C110.819 7.15881 109.487 6.95713 109.489 8.16791C109.419 7.32334 109.28 6.34009 111.622 5.69528L111.267 4.98881C110.184 5.37432 108.57 5.18987 108.778 6.04851C108.605 5.33298 108.411 4.88146 110.911 4.28234L110.556 3.57587C109.775 3.87456 108.239 3.66187 107.833 4.47609M107.833 4.47609C107.78 4.58239 107.745 4.68986 107.733 4.79766C107.759 4.70165 107.792 4.59319 107.833 4.47609ZM107.833 4.47609C108.134 3.60632 108.743 2.78019 109.845 2.51617M115.719 24.4142C116.96 24.0618 119.442 23.4276 119.442 23.7102C119.442 23.9928 119.518 24.2557 119.556 24.3519M115.719 24.4142L119.556 24.3519M116.954 1.8097L117.665 2.51617C116.835 2.63391 115.177 3.08134 115.177 3.92911C115.887 3.45813 117.38 2.65746 117.665 3.22264C117.949 3.78781 118.257 4.1646 118.376 4.28234C117.546 4.40008 115.887 4.70622 115.887 4.98881C115.887 5.34204 118.731 4.98881 119.087 5.34204C119.371 5.62463 119.442 5.93077 119.442 6.04851C118.613 6.04851 116.954 6.26045 116.954 7.10821C118.02 6.99047 120.153 6.82562 120.153 7.10821C120.153 7.3908 120.627 7.93242 120.864 8.16791C119.797 8.16791 117.736 8.4505 118.02 9.58085C118.968 9.22762 120.935 8.66244 121.219 9.22762L121.575 9.93408C120.745 10.2873 119.087 11.1351 119.087 11.7003C120.034 11.347 122.072 10.7112 122.641 10.9938L123.352 12.0535C122.286 12.289 120.224 13.0425 120.508 14.1729C121.338 13.7019 123.139 12.9012 123.707 13.4664L124.418 14.5261C123.47 14.6439 121.575 15.1619 121.575 16.2923M121.575 16.6455C122.286 16.1746 123.992 15.3032 125.129 15.5858L125.84 16.9988C124.892 16.881 122.996 17.0694 122.996 18.7649C123.707 18.4117 125.414 17.7759 126.551 18.0585L127.617 19.4714C126.432 19.4714 124.134 19.8246 124.418 21.2376L125.129 22.2973C125.129 21.5908 125.769 20.2485 128.328 20.5311L129.039 22.2973C128.091 22.5328 126.124 23.2157 125.84 24.0634H127.262C127.617 23.7102 128.613 23.0744 129.75 23.357L130.105 24.0634M124.418 2.16294L124.774 2.51617C124.3 2.51617 123.281 2.72811 122.996 3.57587L123.352 4.28234C123.707 3.92911 124.632 3.22264 125.485 3.22264L126.196 3.92911C125.485 4.1646 124.063 4.84751 124.063 5.69528C124.655 5.45979 126.053 4.98881 126.906 4.98881L127.617 6.04851C126.788 6.16625 125.129 6.61368 125.129 7.46145L125.485 8.16791C126.077 7.69693 127.475 6.75498 128.328 6.75498L129.039 7.81468C128.21 8.16791 126.551 9.01568 126.551 9.58085L126.906 9.93408C127.499 9.58085 128.897 8.87438 129.75 8.87438L130.461 9.93408C129.632 10.1696 127.973 10.8525 127.973 11.7003C128.565 11.4648 130.034 10.9938 131.172 10.9938L131.883 12.0535C131.053 12.289 129.395 12.9719 129.395 13.8197C130.224 13.5842 132.096 13.1132 132.949 13.1132L134.015 14.1729C132.831 14.4084 130.532 15.1619 130.816 16.2923C131.409 15.9391 133.02 15.2326 134.726 15.2326L135.793 16.6455C134.726 16.881 132.594 17.6346 132.594 18.7649C133.068 18.4117 134.513 17.7759 136.504 18.0585L137.57 19.4714C136.267 19.7069 133.802 20.3898 134.371 21.2376L135.082 22.2973C135.082 21.7085 135.722 20.5311 138.281 20.5311L139.703 22.2973C138.399 22.415 135.793 22.8624 135.793 23.7102H137.925C138.399 23.357 139.632 22.8624 140.769 23.7102M132.238 1.8097L132.594 2.51617C132.12 2.63391 131.03 3.0107 130.461 3.57587C131.172 3.45813 132.807 3.29328 133.66 3.57587L134.015 4.28234C133.305 4.28234 131.883 4.49428 131.883 5.34204C132.475 5.2243 133.873 4.98881 134.726 4.98881L135.793 6.04851C134.963 6.16625 133.305 6.54304 133.305 7.10821C134.134 6.99047 135.935 6.75498 136.504 6.75498L137.214 7.81468C136.622 8.05017 135.366 8.66244 135.082 9.22762C135.674 9.10987 137.072 8.87438 137.925 8.87438L138.992 9.93408C138.281 10.1696 136.859 10.7818 136.859 11.347C137.451 11.1115 138.921 10.7112 140.058 10.9938L141.124 12.0535C140.295 12.1712 138.636 12.6187 138.636 13.4664C139.703 13.3487 141.906 13.1132 142.191 13.1132L143.257 14.1729C142.309 14.5261 140.414 15.3739 140.414 15.9391C141.361 15.5858 143.399 14.95 143.968 15.2326L145.39 16.6455C144.323 16.9988 142.191 17.8465 142.191 18.4117C143.257 18.1762 145.532 17.7052 146.101 17.7052L147.523 19.4714C146.575 19.7069 144.679 20.3192 144.679 20.8843C145.745 20.6488 147.949 20.2485 148.233 20.5311L150.011 21.944C149.063 22.2973 147.096 23.145 146.812 23.7102H148.233C148.944 23.357 150.437 22.7212 150.722 23.0037L151.432 23.7102M140.414 1.8097L140.769 2.51617C140.2 2.51617 138.636 3.22264 137.925 3.57587C138.992 3.45813 141.196 3.29328 141.48 3.57587L142.191 4.28234C141.361 4.40008 139.703 4.77687 139.703 5.34204C140.65 5.2243 142.617 5.05945 142.902 5.34204L143.968 6.04851C143.139 6.284 141.48 6.89627 141.48 7.46145C142.546 7.22596 144.75 6.75498 145.034 6.75498L145.745 7.81468C145.034 8.05017 143.613 8.66244 143.613 9.22762C144.442 8.99213 146.243 8.59179 146.812 8.87438L147.878 9.93408C147.049 9.93408 145.39 10.146 145.39 10.9938L146.101 11.7003C146.812 11.347 148.376 10.6406 148.944 10.6406L150.011 12.0535C149.181 12.289 147.523 12.9012 147.523 13.4664L148.233 14.1729C148.589 13.5842 149.655 12.4774 151.077 12.76L152.499 14.1729C151.551 14.2906 149.655 14.7381 149.655 15.5858L150.722 16.6455C150.603 16.0568 151.006 14.95 153.565 15.2326L154.987 16.6455C154.039 16.7633 152.143 17.2814 152.143 18.4117L152.854 18.7649C152.854 18.4117 153.494 17.6346 156.053 17.352L157.475 19.1182C156.409 19.3537 154.276 19.9659 154.276 20.5311L155.342 21.5908C155.698 21.1198 156.835 20.1072 158.541 19.8246L160.319 21.944C159.252 22.0618 157.12 22.5092 157.12 23.357L157.831 23.7102C158.541 23.2392 160.319 22.5092 161.74 23.357M147.523 1.8097L147.878 2.51617C147.286 2.63391 146.101 3.0107 146.101 3.57587L146.812 4.28234C147.049 3.81136 147.878 3.0107 149.3 3.57587L150.011 4.28234C149.537 4.28234 148.518 4.49428 148.233 5.34204L148.944 5.69528C149.3 5.45979 150.224 4.98881 151.077 4.98881L151.788 5.69528C150.959 5.81302 149.371 6.1898 149.655 6.75498L150.366 7.46145C150.84 7.10821 152.001 6.47239 152.854 6.75498L153.921 7.81468C153.21 7.93242 151.788 8.30921 151.788 8.87438L152.499 9.58085C152.973 9.22762 154.205 8.52115 155.342 8.52115L156.409 9.58085C155.698 9.81634 154.276 10.4286 154.276 10.9938L154.987 11.7003C155.342 11.347 156.409 10.6406 157.831 10.6406L158.897 11.7003C158.186 11.9357 156.764 12.548 156.764 13.1132L157.475 13.8197C157.831 13.4664 158.826 12.76 159.963 12.76L161.74 14.1729C160.793 14.2906 158.968 14.7381 159.252 15.5858L159.963 16.2923C160.082 15.9391 160.816 15.2326 162.807 15.2326L164.229 16.2923C163.281 16.5278 161.456 17.2107 161.74 18.0585L162.451 18.7649C162.688 18.294 163.66 17.352 165.65 17.352L167.428 19.1182C166.243 19.2359 163.944 19.6833 164.229 20.5311L165.295 21.2376C165.295 20.8843 165.864 20.1072 168.139 19.8246L170.271 21.5908C169.205 21.7085 167.072 22.156 167.072 23.0037L168.139 23.357C168.613 23.1215 169.916 22.6505 171.338 22.6505L172.404 23.357M154.987 1.8097L155.342 2.16294C154.868 2.28068 153.921 2.65746 153.921 3.22264L154.632 3.92911C155.105 3.45813 156.195 2.58682 156.764 2.8694L157.831 3.57587C157.12 3.69362 155.698 4.0704 155.698 4.63557L156.764 5.69528C157.001 5.2243 157.759 4.35299 158.897 4.63557L159.963 5.34204C159.134 5.57753 157.475 6.11916 157.475 6.40174L158.541 7.46145C159.134 6.99047 160.461 6.11916 161.03 6.40174L162.096 7.46145C161.504 7.69693 160.319 8.23856 160.319 8.52115L161.385 9.22762C161.859 8.87438 163.02 8.23856 163.873 8.52115L164.94 9.58085C164.229 9.81634 162.807 10.4286 162.807 10.9938L163.518 11.7003C163.873 11.2293 164.94 10.2873 166.361 10.2873L167.428 11.7003C166.717 11.9357 165.295 12.548 165.295 13.1132L166.006 13.8197C166.243 13.3487 167.143 12.4774 168.849 12.76L170.627 13.8197C169.797 13.9374 168.139 14.3848 168.139 15.2326L168.849 15.9391C169.442 15.4681 170.911 14.5968 172.049 14.8794L173.826 16.2923C172.878 16.5278 170.982 17.1401 170.982 17.7052L172.049 18.4117C172.522 17.9407 173.755 17.0694 174.892 17.352L176.669 18.7649C175.84 18.7649 174.181 19.0475 174.181 20.1779L175.248 21.2376C175.84 20.5311 177.238 19.2595 178.091 19.8246L180.224 21.5908C179.276 21.7085 177.38 22.156 177.38 23.0037L177.736 23.357L181.29 22.6505L182.357 23.0037M162.451 1.8097L162.807 2.51617C162.451 2.63391 161.74 2.94005 161.74 3.22264L162.451 3.92911C162.688 3.69362 163.376 3.22264 164.229 3.22264L165.65 3.92911C164.94 3.92911 163.518 4.0704 163.518 4.63557L164.584 5.69528C165.295 5.2243 166.788 4.35299 167.072 4.63557L168.139 5.69528C167.309 5.93077 165.722 6.47239 166.006 6.75498L167.072 7.46145C167.665 6.99047 168.921 6.11916 169.205 6.40174C169.489 6.68433 170.271 7.22596 170.627 7.46145C170.034 7.57919 168.849 7.95597 168.849 8.52115L169.916 9.22762C170.39 8.87438 171.551 8.23856 172.404 8.52115L173.826 9.58085C172.878 9.69859 171.053 10.0754 171.338 10.6406L172.404 11.347C172.996 10.9938 174.323 10.358 174.892 10.6406C175.461 10.9231 176.314 11.4648 176.669 11.7003C175.84 11.818 174.181 12.1948 174.181 12.76L174.892 13.4664C175.603 12.9954 177.167 12.1241 177.736 12.4067L179.513 13.4664C178.802 13.7019 177.38 14.3142 177.38 14.8794L178.091 15.5858C178.684 14.9971 180.011 13.961 180.579 14.5261L182.712 16.2923C182.001 16.2923 180.579 16.5042 180.579 17.352L181.29 18.0585C181.764 17.7052 182.996 17.0694 184.134 17.352L186.267 18.7649C185.437 18.8827 183.778 19.3301 183.778 20.1779L184.845 20.5311C185.082 20.1779 185.982 19.542 187.688 19.8246L189.821 21.2376C188.992 21.4731 187.333 22.0853 187.333 22.6505L188.044 23.357C188.873 22.7683 190.816 21.8027 191.954 22.6505L192.665 23.357M170.271 1.8097V2.51617L169.56 3.22264L170.627 3.92911C170.864 3.57587 171.48 2.94005 172.049 3.22264C172.617 3.50523 172.996 3.81136 173.115 3.92911C172.641 4.1646 171.764 4.70622 172.049 4.98881C172.333 5.2714 172.641 5.34204 172.759 5.34204C173.233 4.98881 174.252 4.35299 174.537 4.63557C174.821 4.91816 175.366 5.2243 175.603 5.34204C175.366 5.34204 174.821 5.55398 174.537 6.40174L175.603 7.10821C175.84 6.75498 176.527 6.11916 177.38 6.40174L178.802 7.46145C178.328 7.57919 177.38 7.95597 177.38 8.52115L178.447 9.22762C178.802 8.75664 179.655 7.88533 180.224 8.16791L181.646 9.22762C180.935 9.4631 179.584 10.0047 179.868 10.2873L181.29 11.347C181.646 10.876 182.499 10.0047 183.067 10.2873L185.2 11.347C184.371 11.5825 182.783 12.1948 183.067 12.76L184.134 13.4664C184.489 12.9954 185.413 12.1241 186.267 12.4067L188.399 13.8197C187.688 14.0551 186.267 14.5968 186.267 14.8794L187.333 15.5858C187.688 15.2326 188.612 14.5968 189.466 14.8794L191.954 16.2923C191.124 16.41 189.537 16.7868 189.821 17.352L190.887 18.0585C191.361 17.5875 192.522 16.7868 193.376 17.352L195.508 18.7649C194.679 18.7649 193.091 18.9062 193.376 19.4714L194.797 20.5311C195.271 20.0601 196.432 19.2595 197.285 19.8246L199.774 21.2376C198.826 21.3553 197.001 21.7321 197.285 22.2973L198.352 23.0037C199.063 22.6505 200.627 22.0147 201.195 22.2973L200.84 23.0037" stroke="white" stroke-width="1.5"/>
</svg>
