<svg width="342" height="217" viewBox="0 0 342 217" fill="none" xmlns="http://www.w3.org/2000/svg">
<path d="M57.7658 110.675L55.4188 110.858C55.4548 108.704 52.7413 105.544 51.38 104.233C50.1403 103.484 48.1832 102.544 46.0018 101.916C39.8601 99.4669 34.1219 101.296 33.5581 101.622C33.0251 101.93 29.6821 104.205 27.2715 105.856M57.7658 110.675C57.3986 112.709 56.8982 115.837 56.5792 118.667M57.7658 110.675L58.9721 110.743M73.7475 111.576C73.3555 113.544 72.504 117.732 72.2337 118.742C71.9634 119.751 72.7367 120.228 73.1572 120.341C76.2327 120.804 82.5552 121.696 83.2418 121.555C83.9283 121.415 84.2126 120.959 84.2689 120.749C84.9008 118.269 85.9328 114.054 86.3153 111.984M73.7475 111.576C73.9082 111.066 74.171 110.28 74.416 109.651M73.7475 111.576L60.0484 110.804M74.9368 108.65C75.2229 108.592 85.8863 111.178 86.3999 110.775M74.9368 108.65C74.8542 107.276 74.8373 104.379 75.4302 103.78C76.1713 103.032 75.8852 103.091 77.4327 103.37L77.8877 102.681M74.9368 108.65C74.8301 108.672 74.6299 109.102 74.416 109.651M86.3999 110.775C86.5163 110.683 86.4665 111.166 86.3153 111.984M86.3999 110.775C87.3616 110.813 87.3728 110.673 87.2581 110.599L87.705 108.123M86.3153 111.984C86.9982 112.033 88.3991 111.144 88.7922 107.304M86.3153 111.984C156.493 120.568 299.445 137.682 309.827 137.465M77.8877 102.681L75.9956 102.174C75.8244 102.309 75.3338 102.727 74.7409 103.325C74.148 103.924 73.8226 107.09 73.734 108.598C73.7291 108.997 73.8587 109.765 74.416 109.651M77.8877 102.681C84.975 91.1955 102.924 64.5308 118.022 49.7561C136.893 31.2879 136.114 36.2164 147.505 35.0767C156.618 34.165 216.589 77.367 245.436 99.0819M77.4912 103.656C78.9997 103.745 82.2468 104.173 83.1676 105.177C84.3186 106.432 86.2148 107.832 87.705 108.123M87.705 108.123L87.8168 107.504L88.844 106.697C88.8294 106.907 88.8121 107.11 88.7922 107.304M88.7922 107.304L129.354 48.3305C131.38 44.6371 142.312 41.7433 169.836 59.7152C186.74 70.7525 216.905 85.7663 244.838 98.49M244.838 98.49C273.758 111.663 300.285 122.382 307.224 123.691L319.695 137.829M244.838 98.49C245.024 98.6828 245.223 98.8802 245.436 99.0819M245.436 99.0819C255.218 108.376 292.026 126.881 309.566 135.133L309.827 137.465M309.827 137.465L310.999 147.955L321.363 147.622L320.809 139.091L319.695 137.829M319.695 137.829L334.898 139.486C336.769 139.401 340.342 140.16 339.671 143.874C339.001 147.587 338.773 152.105 338.743 153.899C252.617 144.446 82.6817 126.873 58.9277 125.086M56.5132 124.94C55.0926 131.59 49.7897 145.094 39.9434 145.918L33.2985 145.49C32.2473 145.208 30.0328 142.641 29.5842 134.626C29.4811 132.783 29.4793 130.648 29.5795 128.368M56.5132 124.94C56.3995 124.722 56.3293 124.355 56.2948 123.873M56.5132 124.94C56.9475 124.949 57.7614 124.999 58.9277 125.086M31.5181 113.664C31.3036 114.58 31.1063 115.524 30.9263 116.484M31.5181 113.664L30.5906 113.334M31.5181 113.664C31.6428 113.13 31.7735 112.606 31.9099 112.093M26.7328 111.961L26.0627 109.415M26.7328 111.961L26.5188 115.283C25.8513 115.42 24.1482 115.351 22.676 113.984L22.9688 115.414M26.7328 111.961L28.6617 112.647M56.5792 118.667L54.7549 116.351M56.5792 118.667C56.4751 119.591 56.3902 120.484 56.3357 121.295M37.8986 101.926C37.5885 102.064 37.2876 102.224 36.9977 102.408C35.0302 103.658 33.4544 106.82 32.2653 110.828M37.8986 101.926L38.428 102.115L44.904 103.174L53.2923 109.206L53.5468 114.817L53.9496 115.329M37.8986 101.926C35.0432 102.709 28.798 105.16 26.6607 108.697L26.0627 109.415M24.2685 111.571L26.0627 109.415M22.8247 108.886L23.0139 112.722M19.8018 111.591C19.2785 111.698 18.9217 112.745 18.6954 113.904M19.4571 111.364C19.6813 110.995 19.9963 110.543 20.3839 110.067M53.5717 107.659L58.9721 110.743M58.9721 110.743L60.0484 110.804M54.1573 110.52L56.1147 112.801M22.8651 117.82L21.7343 121.032L18.9006 127.573C19.5966 129.517 20.735 133.039 19.7205 131.578C18.7059 130.117 17.5423 131.13 17.0873 131.819L18.0424 127.749L18.0289 124.771L18.5358 122.879C18.1085 121.277 17.4816 117.729 18.3916 116.351C18.4296 115.705 18.5258 114.773 18.6954 113.904M22.8651 117.82C21.2109 116.728 22.245 115.761 22.9688 115.414M22.8651 117.82C23.9578 117.896 25.6495 118.09 27.162 118.426M22.9688 115.414C25.3695 115.53 30.3221 115.906 30.9263 116.484M25.2374 106.789C25.4776 106.755 25.7203 106.742 25.9647 106.753C26.3428 106.493 26.7884 106.187 27.2715 105.856M25.2374 106.789L26.1269 104.633C25.7711 101.924 25.4585 96.1265 27.0551 94.6074L29.8122 96.4275C30.5813 97.5616 31.5073 100.194 29.0584 101.649C28.3336 102.906 26.9616 105.507 27.2715 105.856M25.2374 106.789C23.2986 107.059 21.5259 108.665 20.3839 110.067M30.9263 116.484C30.7187 117.592 30.5339 118.722 30.3719 119.86M30.3719 119.86C29.9799 119.228 28.6587 118.758 27.162 118.426M30.3719 119.86C29.9625 122.734 29.6987 125.653 29.5795 128.368M28.6617 112.647C29.5701 111.902 31.5627 110.495 32.2653 110.828M28.6617 112.647L30.5906 113.334M32.2653 110.828C32.1427 111.241 32.0243 111.663 31.9099 112.093M30.5906 113.334C30.8857 113.049 31.5628 112.403 31.9099 112.093M20.3839 110.067C18.6671 109.931 15.1028 109.604 14.5804 109.382C13.9275 109.104 11.6477 106.703 9.99655 108.83C8.67565 110.531 10.5649 112.091 11.6746 112.659L18.6954 113.904M27.162 118.426C26.8658 120.376 26.3656 124.435 26.7349 125.075C27.1967 125.875 26.9715 128.007 29.5795 128.368M54.7549 116.351C53.928 119.106 52.7918 125.106 54.8622 127.067M54.7549 116.351L53.9496 115.329M53.9496 115.329C52.8617 117.639 51.0855 123.13 52.684 126.618C54.2826 130.106 55.3353 128.063 55.6619 126.605M56.2948 123.873C56.0534 123.858 55.0395 124.05 54.5627 124.147M56.2948 123.873C56.2466 123.203 56.2674 122.312 56.3357 121.295M55.1799 121.338L56.3357 121.295M60.0484 110.804C59.3699 115.046 58.1959 123.841 58.9277 125.086" stroke="white" stroke-width="1.5"/>
<path d="M60.2773 121.487L66.0055 121.805M60.2773 121.487L60.8878 117.189M60.2773 121.487L66.6159 117.507M66.0055 121.805L66.6159 117.507M66.0055 121.805L60.8878 117.189M66.6159 117.507L60.8878 117.189M61.9533 112.202C87.4278 114.339 140.922 119.106 151.101 121.076L236.706 131.569L300.243 137.638L309.925 138.338M321.095 139.032L335.646 140.226C336.849 140.278 339.155 141.058 338.755 143.763C338.355 146.468 338.121 151.344 338.054 153.444M337.241 150.928L337.779 143.366C337.853 142.755 337.381 141.421 334.905 140.974L321.271 139.891M311.42 139.821L312.137 146.231M311.42 139.821L319.151 139.728M311.42 139.821L319.867 146.139M312.137 146.231L319.867 146.139M312.137 146.231L319.151 139.728M319.867 146.139L319.151 139.728M310.1 139.197L236.368 132.83L150.991 121.992L85.7895 115.072M61.3293 113.522L73.0717 114.099M75.4774 114.202L74.4119 119.189L82.7215 120.469M75.4774 114.202L83.787 115.482L82.7215 120.469M75.4774 114.202L82.7215 120.469M125.828 117.01L123.659 131.164M127.031 117.061L125.148 131.158M207.421 126.834L206.793 139.779M209.827 126.937L209.198 139.883M285.23 135.644L286.318 148.238M287.291 135.52L288.21 148.745M58.3447 112.047C57.7883 115.638 56.8147 123.209 57.3715 124.764M59.2029 111.871C58.666 115.558 57.7314 123.32 58.2882 124.875" stroke="white" stroke-width="1.5" stroke-dasharray="1 1"/>
</svg>
