<svg width="319" height="157" viewBox="0 0 319 157" fill="none" xmlns="http://www.w3.org/2000/svg">
<path d="M47.8961 58.4777L45.5602 58.1857C46.0274 56.0833 44.0029 52.4429 42.9322 50.8855C41.8678 49.903 40.139 48.59 38.1278 47.5373C32.6021 43.9061 26.6136 44.5475 25.9959 44.7534C25.4121 44.948 21.6806 46.5071 18.9878 47.6412M47.8961 58.4777C47.1285 60.3967 46.0109 63.361 45.1308 66.0697M47.8961 58.4777L49.0643 58.7863M63.3724 62.5658C62.5937 64.4151 60.9195 68.3475 60.4523 69.2819C59.9851 70.2163 60.647 70.8392 61.0363 71.0339C63.9564 72.1046 69.9717 74.2459 70.6725 74.2459C71.3733 74.2459 71.7432 73.8566 71.8405 73.6619C72.9568 71.3596 74.8132 67.437 75.6031 65.4858M63.3724 62.5658C63.6322 62.0981 64.0473 61.3809 64.4134 60.8137M63.3724 62.5658L50.1066 59.0616M65.1244 59.9377C65.4164 59.9377 75.3446 64.6098 75.9286 64.3178M65.1244 59.9377C65.3191 58.575 65.8836 55.7329 66.5844 55.2657C67.4604 54.6817 67.1684 54.6817 68.6285 55.2657L69.2125 54.6817M65.1244 59.9377C65.0155 59.9377 64.7331 60.3185 64.4134 60.8137M75.9286 64.3178C76.0609 64.2516 75.9153 64.7148 75.6031 65.4858M75.9286 64.3178C76.863 64.5484 76.9019 64.4139 76.8046 64.3178L77.739 61.9818M75.6031 65.4858C76.2622 65.6711 77.8131 65.0805 78.9682 61.3978M75.6031 65.4858C142.634 87.9701 279.248 133.406 289.463 135.275M69.2125 54.6817L67.4604 53.8056C67.2658 53.903 66.7012 54.2145 66.0004 54.6817C65.2996 55.1489 64.3457 58.1857 63.9564 59.6457C63.8717 60.0351 63.8446 60.8137 64.4134 60.8137M69.2125 54.6817C78.4593 44.8508 101.391 22.3275 119.145 10.881C141.338 -3.42724 139.585 1.24483 150.974 2.41285C160.084 3.34726 210.173 57.699 234.078 84.7581M68.6285 55.5577C70.0885 55.947 73.1837 57.0177 73.8845 58.1857C74.7605 59.6457 76.3374 61.3978 77.739 61.9818M77.739 61.9818L77.9726 61.3978L79.1406 60.8137C79.0843 61.0166 79.0268 61.2111 78.9682 61.3978M78.9682 61.3978L130.533 11.757C133.259 8.54498 144.55 7.90257 167.91 31.0293C182.257 45.2325 208.797 65.991 233.611 84.0581M233.611 84.0581C259.301 102.764 283.14 118.585 289.676 121.259L299.058 137.611M233.611 84.0581C233.755 84.2844 233.911 84.5178 234.078 84.7581M234.078 84.7581C241.798 95.8251 274.147 121.336 289.676 132.939L289.463 135.275M289.463 135.275L288.508 145.787L298.728 147.539L299.896 139.071L299.058 137.611M299.058 137.611L313.62 142.283C315.469 142.575 318.818 144.035 317.416 147.539C316.014 151.043 314.885 155.423 314.496 157.175C232.015 130.64 69.0573 79.3432 46.1443 72.8292M43.8081 72.2018C41.0827 78.4312 33.1792 90.5981 23.3678 89.43L16.9437 87.678C15.9704 87.1913 14.3157 84.2324 15.4837 76.2898C15.7522 74.464 16.1787 72.3716 16.7342 70.1578M43.8081 72.2018C43.7405 71.9651 43.7454 71.5911 43.8081 71.1126M43.8081 72.2018C44.2318 72.2975 45.0192 72.5093 46.1443 72.8292M21.5823 56.1416C21.1884 56.9965 20.8059 57.8814 20.4369 58.7863M21.5823 56.1416L20.7399 55.6322M21.5823 56.1416C21.8115 55.6441 22.0446 55.1568 22.2812 54.6815M17.2358 53.5135L17.0898 50.8855M17.2358 53.5135L16.3598 56.7256C15.6784 56.7256 14.0238 56.3168 12.8557 54.6815V56.1416M17.2358 53.5135L18.9878 54.5728M45.1308 66.0697L43.8081 63.4346M45.1308 66.0697C44.8434 66.9539 44.5814 67.8109 44.3652 68.5954M30.1872 45.9224C29.8558 45.9949 29.5289 46.0911 29.208 46.2134C27.0299 47.0432 24.8518 49.8255 22.883 53.5135M30.1872 45.9224L30.668 46.2134L36.8001 48.5494L43.8081 56.1416L42.9322 61.6896L43.2242 62.2714M30.1872 45.9224C27.2327 46.1167 20.6231 47.2646 17.8198 50.3015L17.0898 50.8855M14.8998 52.6375L17.0898 50.8855M14.0238 49.7175L13.4397 53.5135M10.5197 51.7615C9.98562 51.7615 9.42609 52.7155 8.97198 53.8055M10.2277 51.4695C10.5212 51.1534 10.9205 50.7734 11.3957 50.3849M44.3922 54.6815L49.0643 58.7863M49.0643 58.7863L50.1066 59.0616M44.3922 57.6016L45.8522 60.2296M12.2717 58.4776L10.5197 61.3976L6.43164 67.2377C6.72365 69.2817 7.13245 72.961 6.43164 71.3258C5.73083 69.6906 4.38762 70.4498 3.80361 71.0339L5.55563 67.2377L6.13964 64.3177L7.01565 62.5658C6.91832 60.911 7.01565 57.3096 8.18367 56.1416C8.35047 55.516 8.63161 54.6226 8.97198 53.8055M12.2717 58.4776C10.8701 57.076 12.0771 56.3362 12.8557 56.1416M12.2717 58.4776C13.327 58.7711 14.9453 59.3008 16.3598 59.933M12.8557 56.1416C15.1845 56.7367 19.9609 58.0988 20.4369 58.7863M16.8081 48.1467C17.0501 48.1621 17.2905 48.1981 17.5278 48.2574C17.9503 48.0787 18.4482 47.8685 18.9878 47.6412M16.8081 48.1467L18.1118 46.2134C18.3065 43.488 19.163 37.7453 21.0319 36.5773L23.3679 38.9133C23.8939 40.1787 24.2732 42.943 21.5823 43.8774C20.6201 44.9635 18.7542 47.2368 18.9878 47.6412M16.8081 48.1467C14.8546 48.0222 12.7957 49.2404 11.3957 50.3849M20.4369 58.7863C20.0113 59.8298 19.6036 60.9 19.2169 61.9816M19.2169 61.9816C18.9594 61.2845 17.7594 60.5585 16.3598 59.933M19.2169 61.9816C18.2393 64.7156 17.3954 67.5226 16.7342 70.1578M18.9878 54.5728C20.0273 54.0251 22.2615 53.0463 22.883 53.5135M18.9878 54.5728L20.7399 55.6322M22.883 53.5135C22.6801 53.8936 22.4794 54.2833 22.2812 54.6815M20.7399 55.6322C21.0861 55.4126 21.8791 54.9151 22.2812 54.6815M11.3957 50.3849C9.74103 49.9074 6.31484 48.8717 5.84764 48.5494C5.26363 48.1467 3.5116 45.3374 1.46757 47.0894C-0.167651 48.491 1.37024 50.3988 2.34359 51.1775L8.97198 53.8055M16.3598 59.933C15.6785 61.7839 14.3742 65.6609 14.6078 66.3617C14.8998 67.2377 14.2516 69.2816 16.7342 70.1578M43.8081 63.4346C42.4455 65.9677 40.1291 71.6178 41.7642 73.9538M43.8081 63.4346L43.2242 62.2714M43.2242 62.2714C41.6951 64.3162 38.8536 69.3401 39.7202 73.0778C40.5867 76.8155 42.0279 75.0245 42.6402 73.6618M43.8081 71.1126C43.5746 71.0496 42.5429 71.0339 42.0562 71.0339M43.8081 71.1126C43.8953 70.4464 44.0944 69.5778 44.3652 68.5954M43.2242 68.4057L44.3652 68.5954M50.1066 59.0616C48.5911 63.0812 45.6771 71.4623 46.1443 72.8292" stroke="white" stroke-width="1.5"/>
</svg>
