<svg width="274" height="168" viewBox="0 0 274 168" fill="none" xmlns="http://www.w3.org/2000/svg">
<path d="M2.42583 81.8991L3.69563 100.376C4.05843 100.678 5.00171 101.391 5.87243 101.826C6.74315 102.26 94.0329 144.638 137.569 165.772C138.778 166.376 140.653 167.403 143.011 165.772L270.172 94.7608C270.354 94.7004 270.717 94.4347 270.717 93.855C270.717 93.2753 271.079 81.718 271.442 75.7399L270.354 76.4645L269.265 75.921V75.0152M2.42583 81.8991L3.69563 82.6237M2.42583 81.8991L1.51883 81.3556C1.33742 81.1745 0.763713 80.7397 0.763713 80.4499C0.763713 80.16 0.763713 78.0949 0.763713 77.3703M3.69563 82.6237V79.9064M3.69563 82.6237L4.05843 82.4426M4.42123 81.3556V82.2614L4.05843 82.4426M4.42123 81.3556L6.96083 80.4499V78.2761M4.42123 81.3556L133.76 142.585M6.96083 78.2761L4.96543 77.3703L7.32363 76.1022M6.96083 78.2761L3.69563 79.7253L1.51883 78.6384C-0.222613 77.479 1.3979 76.223 2.42583 75.7399L4.42123 74.8342L7.32363 76.1022M7.32363 76.1022V76.4645M7.32363 77.9138V76.4645M133.76 142.585V141.317M133.76 142.585V143.4V144.034M145.732 141.317L142.285 139.687L139.927 140.955L137.388 139.687L133.76 141.317M145.732 141.317L142.285 142.947C140.544 143.672 138.839 143.491 137.388 142.766L133.76 141.317M145.732 141.317V142.766M7.32363 76.4645L27.2776 67.4785M131.22 20.6696V18.6769M131.22 20.6696L29.4544 66.4983M131.22 20.6696L132.848 21.347M131.22 18.6769L133.397 19.7638M131.22 18.6769L132.671 18.1335C133.343 17.8862 134.284 17.6803 135.385 17.6245M133.397 19.7638C134.053 19.3894 134.689 19.2065 135.272 19.1466M133.397 19.7638V21.0645M139.746 18.3145L137.932 17.7712C137.786 17.7469 137.641 17.7256 137.498 17.7072M139.746 18.3145V20.3072M139.746 18.3145L137.932 19.7638M139.746 20.3072L180.689 36.4977M139.746 20.3072C139.689 20.4197 139.486 20.5902 139.226 20.7746M266.182 70.1241V70.3053L198.701 43.6205M266.182 70.1241L268.903 68.6749C270.414 68.9412 272.683 69.7166 272.742 71.0299M266.182 70.1241L268.721 71.211L266.907 72.4791M266.907 72.4791L270.354 73.7472L271.805 72.6602C272.497 72.0461 272.763 71.5031 272.742 71.0299M266.907 72.4791V74.1095L269.265 75.0152M269.265 75.0152L145.732 142.766M272.742 71.0299V74.4718C272.792 74.653 272.639 75.1603 271.624 75.7399M145.732 142.766V144.216L142.83 145.665C141.287 146.151 139.899 146.207 138.839 146.098M137.932 19.7638C137.825 19.6863 137.688 19.6037 137.524 19.5245M137.932 19.7638V20.6197M137.932 21.5753C137.876 21.5442 137.82 21.5144 137.764 21.4859M133.76 144.034V144.216L137.025 145.665C137.231 145.76 137.539 145.865 137.932 145.953M133.76 144.034L84.4187 120.485M84.4187 120.485C83.9954 120.424 83.1489 120.666 83.1489 122.115C83.1489 123.564 83.1489 125.98 83.1489 127.006C83.1489 127.321 82.947 127.912 82.2419 128.313M84.4187 120.485L51.7666 105.047M4.05843 82.4426C18.8728 89.5679 48.8642 103.927 50.3154 104.362C50.523 104.424 50.7033 104.512 50.8596 104.619M50.8596 104.619C51.7963 105.259 51.8703 106.588 51.7666 107.26V110.521C51.7666 113.275 53.5806 115.05 54.4876 115.594L81.3349 128.636C81.7034 128.563 82.0018 128.449 82.2419 128.313M50.8596 104.619L51.7666 105.047M82.2419 128.313L55.2132 114.869C54.3062 114.265 52.5285 112.55 52.6736 110.521V107.26C52.6736 106.932 52.4922 106.031 51.7666 105.047M138.839 146.098L139.202 164.867L138.295 165.229L137.932 145.953M138.839 146.098C138.502 146.063 138.197 146.012 137.932 145.953M20.7472 54.1829V57.6248M20.7472 54.1829L22.5612 52.9148M20.7472 54.1829C19.5217 53.6933 19.0724 53.0358 19.0442 52.3713M20.7472 57.6248C20.9891 57.9871 21.6905 58.6754 22.5612 58.5305V56.6284M20.7472 57.6248L22.5612 56.6284M22.5612 54.7263C24.1334 55.149 28.1483 55.6683 31.6312 54.364M22.5612 54.7263V56.6284M22.5612 54.7263L24.3752 53.8206C25.5241 54.0017 28.1483 54.1829 29.4544 53.4583L31.6312 54.364M22.5612 54.7263V52.9148M31.6312 54.364L31.9033 56.1755M31.6312 54.364V52.5525M33.808 56.9001C33.5178 57.7697 32.5987 57.9871 32.1754 57.9871L31.9033 56.1755M33.808 56.9001L31.9033 56.1755M33.808 56.9001V53.2771M31.6312 52.5525L33.808 53.2771M31.6312 52.5525C32.7922 51.683 31.994 50.6202 31.4498 50.1975M31.6312 52.5525L31.4498 52.009M33.808 53.2771C34.2988 52.787 34.8838 51.8639 34.7244 50.9221M31.4498 50.1975L33.4452 49.2917C34.2631 49.7818 34.6285 50.3553 34.7244 50.9221M31.4498 50.1975V48.5671M31.4498 50.1975V52.009M22.5612 50.741C21.9566 51.3448 21.11 52.6249 22.5612 52.9148M22.5612 50.741L22.3798 50.6806M22.5612 50.741V52.5525M22.5612 52.9148V52.5525M22.3798 49.1106V50.6806M22.3798 49.1106L24.3752 49.8352M22.3798 49.1106C23.5287 48.4464 26.9511 47.4078 31.4498 48.5671M22.3798 50.6806L20.3844 50.0164C19.7556 50.5397 19.0056 51.4621 19.0442 52.3713M24.3752 49.8352V53.2771L22.5612 52.5525M24.3752 49.8352C25.8264 49.1106 28.366 49.4125 29.4544 49.6541M31.4498 48.5671L29.4544 49.6541M29.4544 49.6541V52.9148L31.4498 52.009M19.0442 52.3713L19.296 58.8928C19.1751 59.1344 19.0783 59.7624 19.6588 60.342V60.5232M19.6588 61.513C19.0783 61.2232 19.5379 60.8855 19.6588 60.7043V60.5232M19.6588 61.513V62.2376C19.8533 62.573 20.213 62.9528 20.7472 63.3179M19.6588 61.513C22.2589 63.2361 28.9828 65.523 35.0778 60.8855M35.0778 61.6101C34.1708 63.0593 32.5188 64.6971 27.8218 64.8708C24.3558 64.999 22.0404 64.2016 20.7472 63.3179M35.0778 61.6101V60.8855M35.0778 61.6101V63.3179C33.1742 64.8678 31.257 65.7014 29.4544 66.0634M35.0778 60.8855C35.2592 60.5836 35.622 60.342 35.0778 59.9797V59.708M34.7244 50.9221L34.8964 58.3494C35.3318 58.6392 35.2592 59.2551 35.0778 59.4363V59.708M19.6588 60.5232C22.3798 62.1536 29.273 64.273 35.0778 59.708M20.7472 63.3179V64.3274C21.9781 65.2284 24.2952 66.2646 27.0962 66.2878M27.0962 66.2878L27.2776 67.4785M27.0962 66.2878C27.8511 66.2941 28.6411 66.2268 29.4544 66.0634M27.2776 67.4785C27.2417 68.4323 27.1589 69.9523 27.0369 71.03M25.2822 73.0227C25.645 73.2039 26.3706 72.2981 26.7334 72.2981C26.8514 72.2981 26.9533 71.7676 27.0369 71.03M29.4544 66.0634V66.4983M29.4544 66.4983C29.394 68.6731 29.5633 72.914 30.7242 72.4792M27.0369 71.03C25.7264 71.2716 23.1417 72.1169 23.2868 73.5662M23.2868 73.5662C23.4682 75.3777 28.0032 75.74 28.7288 75.74C29.4544 75.74 33.9894 75.0154 33.9894 73.0227M23.2868 73.5662V73.7473M33.9894 73.0227V74.8342C33.4452 75.74 32.3568 76.6458 28.7288 76.8269C25.7976 76.9733 23.8915 75.9815 23.2868 75.1965V73.7473M33.9894 73.0227C33.9894 72.27 33.5235 71.8016 32.9046 71.5102M29.9986 71.03C30.4501 71.03 31.885 71.03 32.9046 71.5102M23.2868 73.7473C22.3258 74.303 20.7385 75.5769 20.8398 76.8269M37.0732 75.74C37.0732 73.7473 35.0778 73.5662 33.9894 73.385M37.0732 75.74V79.363C35.622 81.5369 33.808 82.4426 28.7288 82.8049C23.9171 83.1482 21.4741 81.3557 20.8398 80.2688V76.964M37.0732 75.74C37.0732 75.8501 37.0596 75.9606 37.0334 76.071M20.8398 76.8269C20.8596 77.0712 20.9439 77.3146 21.11 77.5515C22.3798 79.363 25.8264 80.2688 28.7288 80.2688C31.4862 80.2688 36.5356 78.1704 37.0334 76.071M20.8398 76.8269V76.964M205.153 34.2561C205.173 34.9331 204.775 35.7721 203.599 36.6111C199.818 39.3079 193.621 38.2415 190.356 36.6111C189.35 36.1085 188.957 35.5361 188.917 34.9807M205.153 34.2561C205.13 33.4713 204.546 32.9041 203.961 32.8069M205.153 34.2561C205.429 34.8599 205.594 36.4299 204.687 37.3357C204.096 37.9259 202.128 39.5529 198.701 39.9034M203.961 32.8069C203.054 34.4373 200.878 35.8865 196.887 35.8865C193.694 35.8865 191.687 34.6788 191.082 34.0749L190.356 32.8069M203.961 32.8069L205.153 30.4519C205.334 30.0896 205.533 29.5461 205.413 28.8215M190.356 32.8069C189.687 33.2523 188.854 34.0947 188.917 34.9807M190.356 32.8069L189.431 31.196M188.917 34.9807C188.202 37.0096 189.578 38.1207 190.356 38.4226C192.237 39.2052 193.929 39.6441 195.436 39.8415M195.436 39.8415C196.642 39.9996 197.73 40.0027 198.701 39.9034M195.436 39.8415C195.568 40.5158 195.794 41.9732 195.634 42.408M194.166 48.0237C194.686 47.7639 195.031 46.9367 195.254 45.9561M198.701 39.9034C198.519 40.7617 198.459 42.2736 198.701 43.6205M198.701 43.6205C198.809 44.2222 198.98 45.1143 199.161 45.9561M195.254 45.9561C195.447 45.1357 195.794 43.2775 195.634 42.408M195.254 45.9561C194.384 45.98 192.514 46.2934 191.722 47.3412M191.626 47.4802C190.901 48.6396 192.136 49.7335 192.896 50.0164C195.225 50.8831 200.152 51.2844 201.785 48.7483C202.273 48.0945 202.577 46.4759 199.161 45.9561M191.626 47.4802C190.693 47.7234 189.296 48.391 188.917 49.505M191.626 47.4802C191.656 47.4325 191.688 47.3862 191.722 47.3412M188.917 49.505C188.732 50.0506 188.991 51.1952 189.631 51.8279C190.585 52.7715 193.083 54.028 195.254 54.1829C197.327 54.3307 201.93 54.5452 203.961 52.3713C204.453 51.97 205.48 51.3434 205.253 50.0135M188.917 49.505C188.559 49.917 188.057 51.1033 188.917 52.5525M188.917 52.5525C189.778 54.0017 193.481 55.198 195.254 55.4509C197.297 55.7424 201.93 55.5234 203.961 53.6394C204.387 53.2713 205.015 52.4801 205.253 51.4656M188.917 52.5525V54.5452C189.881 55.5717 191.808 57.4436 195.254 57.4436C198.701 57.4436 202.385 56.9278 203.78 55.8132C204.687 55.0886 205.125 54.2107 205.253 53.8206V52.7382M188.917 52.5525L171.927 60.8996M205.253 50.0135C204.927 49.0757 203.586 47.7821 202.014 47.4802M205.253 50.0135C205.497 50.7164 205.391 50.8746 205.253 51.4656M199.789 48.2048C199.629 47.9643 199.387 46.9988 199.161 45.9561M195.634 42.408L183.438 37.585M205.253 51.4656V52.7382M205.413 28.8215C205.122 30.3915 202.759 32.9518 195.634 32.8069C191.039 32.7134 189.058 30.8157 188.795 30.0896M205.413 28.8215C205.292 28.0969 204.034 26.0318 199.971 25.7419M188.795 30.0896C188.751 29.9686 188.718 29.8476 188.695 29.7273M188.795 30.0896L189.431 31.196M193.622 25.7419V26.8289L194.166 27.01V28.0969L199.064 29.7273V28.6404L199.608 28.8215M193.622 25.7419V24.8362L194.166 24.4739V23.7493M193.622 25.7419C191.986 25.7419 190.743 26.3572 189.924 27.01M199.608 28.8215V26.6477M199.608 28.8215L200.696 28.4592V26.2854M199.608 26.6477L199.064 26.4665M199.608 26.6477L200.696 26.2854M199.064 26.4665V25.1985M199.064 26.4665L199.971 26.1042M199.064 25.1985L196.705 23.2058M199.064 25.1985L199.971 24.8362M196.705 23.2058L194.166 23.7493M196.705 23.2058L197.794 22.8435M194.166 23.7493L195.073 23.387L197.794 22.8435M197.794 22.8435L199.971 24.8362M199.971 24.8362V25.7419M199.971 26.1042L200.696 26.2854M199.971 26.1042V25.7419M122.875 132.117L140.109 140.23L157.009 131.121M122.875 132.117L106.247 124.289M122.875 132.117L223.931 79.1038M244.414 68.3585L233.65 74.0053M106.247 124.289L89.8607 116.574M106.247 124.289L113.279 120.666M227.725 61.7018L212.054 55.4509M227.725 61.7018L228.906 62.173M227.725 61.7018L156.67 98.31M89.8607 116.574L73.8975 109.059M89.8607 116.574L97.4878 112.759M212.054 55.4509L205.253 52.7382M212.054 55.4509L171.725 75.6243M73.8975 109.059L81.6678 105.242M73.8975 109.059L57.9342 101.544M159.156 46.9379V49.2929C159.035 50.259 157.414 52.1551 151.9 52.0102C146.385 51.8653 144.644 49.8967 144.462 48.9306V46.5756M159.156 46.9379C158.974 47.9041 157.269 49.8001 151.9 49.6552C146.53 49.5103 144.704 47.5418 144.462 46.5756M159.156 46.9379C159.279 46.8149 159.385 46.6291 159.449 46.4091M144.462 46.5756C144.401 46.4937 144.331 46.3672 144.282 46.2133M147.546 42.9526C146.095 43.3149 145.006 44.4018 144.462 45.1264C144.174 45.5094 144.188 45.9135 144.282 46.2133M147.546 42.9526V44.7641C147.848 45.3075 149.142 46.3582 151.9 46.2133C154.657 46.0684 155.83 45.1868 156.072 44.7641V42.9526M147.546 42.9526C147.727 42.3487 148.525 41.141 150.267 41.141C150.448 40.8995 150.775 39.6918 150.63 36.7934M156.072 42.9526C157.523 43.3149 158.43 44.0395 159.156 44.9452C159.539 45.4237 159.574 45.9812 159.449 46.4091M156.072 42.9526C156.119 42.6243 155.852 41.9754 154.643 41.4983M150.63 36.7934C151.174 36.8538 152.407 36.9383 152.988 36.7934M150.63 36.7934C145.218 36.0564 144.419 34.616 144.522 33.3117M152.988 36.7934C152.988 39.9817 153.23 41.0807 153.351 41.141C153.869 41.2381 154.295 41.3611 154.643 41.4983M152.988 36.7934C155.049 36.5127 158.207 35.807 159.07 34.3169M154.983 29.9084C156.253 30.2707 158.249 30.4526 159.156 32.808C159.377 33.3833 159.321 33.8833 159.07 34.3169M154.983 29.9084C155.528 29.0027 155.165 25.3796 152.081 25.3796C148.308 25.5246 148.211 28.4592 148.634 29.9084M154.983 29.9084C154.113 31.7924 152.686 32.1427 152.081 32.0823C149.904 32.0823 148.876 30.6331 148.634 29.9084M148.634 29.9084C148.51 29.9411 148.39 29.975 148.272 30.0102M159.07 34.3169L164.537 36.4977M148.272 30.0102C145.784 30.7565 144.817 32.0491 144.644 32.6257C144.588 32.8467 144.54 33.077 144.522 33.3117M148.272 30.0102L143.737 28.201M191.722 47.3412L190.227 46.7449M122.875 89.6887C122.21 90.1114 120.953 91.3553 121.243 92.9495L119.247 94.3987C118.835 95.223 118.164 96.5163 117.608 97.4783M115.257 103.275C114.79 102.913 115.257 101.826 115.257 101.464C115.257 101.287 115.516 100.635 115.824 100.014M123.057 89.6887L123.601 91.8626L124.327 92.0437C124.629 91.5606 125.306 90.5945 125.596 90.5945M125.596 90.5945C125.887 90.5945 124.871 93.3722 124.327 94.761L123.601 96.5725C123.32 97.1589 122.992 98.0834 122.827 99.1086M125.596 90.5945L125.415 93.3118C125.899 93.6137 126.649 94.8697 125.778 97.4783C125.778 97.7138 125.822 98.1771 125.979 98.5071M123.601 103.275C122.679 102.103 122.6 100.511 122.827 99.1086M122.827 99.1086C122.919 99.3061 123.086 99.5959 123.297 99.8486C123.538 100.137 123.836 100.377 124.145 100.377C124.706 100.377 125.808 99.62 126.113 99.1086M125.979 98.5071C126.024 98.6001 126.077 98.6826 126.141 98.7463C126.223 98.8288 126.203 98.9581 126.113 99.1086M125.979 98.5071L151.722 85.63M115.824 100.014C116.146 99.3634 116.522 98.7463 116.708 98.7463C116.833 98.7463 117.188 98.2075 117.608 97.4783M115.824 100.014C114.728 100.739 112.681 102.406 113.261 103.275C113.14 103.613 112.971 104.405 113.261 104.869M113.261 104.869C113.322 105.05 113.406 105.703 113.261 105.992M113.261 104.869L108.703 107.149M113.261 105.992C113.08 106.355 113.261 107.261 113.624 107.804C113.962 108.31 115.087 110.388 120.517 110.817M113.261 105.992C114.712 108.347 116.337 109.76 121.787 109.978C126.322 110.159 129.527 107.744 130.676 106.355M130.676 106.355V107.442C129.994 108.489 127.737 110.419 123.739 110.817M130.676 106.355C130.797 106.053 130.93 105.413 130.494 105.268C130.676 104.906 130.893 103.927 130.313 102.913M130.313 102.913C129.587 101.645 128.862 100.92 128.862 100.558C128.862 100.268 127.029 99.471 126.113 99.1086M130.313 102.913L172.849 122.583M120.517 110.817C120.917 110.849 121.34 110.871 121.787 110.884C122.479 110.903 123.129 110.878 123.739 110.817M120.517 110.817C120.621 111.765 120.69 113.294 120.509 114.507M119.61 116.318C120.105 116.133 120.376 115.407 120.509 114.507M123.739 110.817C123.782 111.792 123.907 113.333 124.141 114.507M124.871 116.137C124.621 116.087 124.417 115.642 124.255 115.011C124.215 114.853 124.177 114.684 124.141 114.507M124.141 114.507C124.401 114.518 124.71 114.549 125.043 114.605M128.499 117.224C128.68 119.76 123.601 120.303 121.968 120.303C120.765 120.303 118.083 120.008 116.829 118.837C116.534 118.562 116.318 118.238 116.219 117.858M128.499 117.224C128.494 117.162 128.488 117.102 128.478 117.043M128.499 117.224L128.478 119.035C128.243 119.76 126.612 121.245 121.968 121.39C117.325 121.535 116.2 119.881 116.219 119.035V117.858M120.509 114.507C119.164 114.565 116.478 115.157 116.184 117.043M120.509 114.507L113.892 111.35M125.043 114.605C126.438 114.841 128.24 115.52 128.478 117.043M125.043 114.605L146.836 103.379M116.184 117.043C116.175 117.102 116.168 117.162 116.164 117.224C116.147 117.451 116.168 117.662 116.219 117.858M116.184 117.043C115.222 117.345 113.294 118.492 113.279 120.666M113.279 120.666C113.356 121.115 113.624 121.714 114.168 122.323M128.478 117.043C130.004 117.606 130.789 118.418 131.157 119.164M114.168 122.323C115.306 123.596 117.65 124.915 121.968 125.013C126.83 125.124 129.476 123.421 130.676 121.936M114.168 122.323V124.289C114.41 125.436 116.307 127.55 121.968 127.55C127.592 127.55 130.131 125.315 130.676 124.289V121.936M130.676 121.936C131.052 121.47 131.286 121.026 131.401 120.666C131.477 120.317 131.451 119.762 131.157 119.164M63.9204 67.9504L62.2878 67.4069C62.9985 66.8064 63.2184 66.5306 63.0703 66.5012M63.9204 67.9504L64.8274 67.5881C65.1749 67.7458 65.6614 68.2825 66.0173 68.9658M63.9204 67.9504L52.4922 74.2908M50.4968 73.5661C54.9629 70.8215 62.4324 66.3744 63.0703 66.5012M63.0703 66.5012C62.1444 66.0785 59.8934 65.2332 58.297 65.2332M58.297 65.2332C58.297 65.4143 58.4059 65.8128 58.8412 65.9578M58.297 65.2332C58.418 65.052 58.6598 64.5085 58.6598 63.7839M58.6598 63.7839C58.6598 62.8782 58.1156 62.5159 57.2086 62.5159C56.3016 62.5159 55.576 63.2405 55.576 63.7839C55.576 63.9955 55.6035 64.262 55.712 64.5085M58.6598 63.7839C58.5147 65.0882 57.511 65.2935 57.0272 65.2332C56.2518 65.2332 55.8822 64.8953 55.712 64.5085M55.712 64.5085C55.7398 64.7302 55.8864 65.0874 55.8714 65.4143M55.8714 65.4143C55.8619 65.6218 55.7873 65.8171 55.576 65.9578M55.8714 65.4143C54.1558 65.8821 51.0241 67.0817 49.4298 68.7438M49.7712 74.0453C48.3091 72.6321 48.2664 71.0564 48.5014 70.3054C48.6323 69.7502 48.966 69.2274 49.4298 68.7438M49.7712 74.0453C50.19 74.4501 50.7253 74.8416 51.4038 75.1965C55.2132 77.1892 60.6552 75.9211 61.5622 75.5588C62.4692 75.1965 66.0973 73.5662 66.4601 71.03C66.5591 70.3378 66.3428 69.5905 66.0173 68.9658M49.7712 74.0453C49.4689 74.4291 49.0094 75.4139 49.5898 76.2834M49.5898 76.2834C50.3154 77.3704 52.3108 78.6384 57.2086 78.6384C61.1269 78.6384 64.2832 77.0684 65.3716 76.2834M49.5898 76.2834V77.0081M65.3716 76.2834V77.2282C63.9889 78.0952 61.7133 79.2007 58.8412 79.5897M65.3716 76.2834C65.4723 76.2109 65.7403 75.9401 65.9591 75.5588M49.5898 77.0081C50.1679 77.9617 52.4587 79.8212 57.0272 79.73M49.5898 77.0081L27.7457 87.3315M65.553 73.0227C66.1529 73.4221 66.2787 74.0399 66.2787 74.4719C66.2787 74.8753 66.1348 75.2527 65.9591 75.5588M57.0272 79.73C57.0873 79.7288 57.1478 79.7272 57.2086 79.7253C57.7716 79.7079 58.3164 79.6608 58.8412 79.5897M57.0272 79.73C57.1131 80.9298 57.0953 83.1466 56.6097 84.7976M58.8412 79.5897C58.7567 80.8454 58.8435 83.085 59.5478 84.6165M56.6097 84.7976C56.4116 85.4709 56.1358 86.0502 55.7574 86.428M56.6097 84.7976C56.5216 84.8098 56.4277 84.8244 56.3293 84.8415M52.855 87.1526C52.8556 87.1586 52.8563 87.1646 52.8569 87.1705M52.855 87.1526C52.8557 87.1576 52.8563 87.1636 52.8569 87.1705M52.855 87.1526C52.6736 87.3337 49.9526 88.783 50.134 90.4133C50.1536 90.5894 50.2007 90.7717 50.2755 90.9568M52.855 87.1526L52.8569 87.1705M52.855 87.1526C52.7197 85.8007 54.9625 85.0793 56.3293 84.8415M52.8569 87.1705C53.0473 88.9677 54.6798 89.5076 57.9342 89.5076C61.1994 89.5076 63.5577 87.8772 63.5577 87.1526M52.8569 87.1705C52.8732 87.3658 52.8627 88.3165 52.855 88.783C53.0364 89.568 54.3062 91.1017 57.9342 90.9568C61.5622 90.8119 63.1949 89.3264 63.5577 88.6018V87.1526M63.5577 87.1526C63.5577 87.0457 63.5687 86.923 63.573 86.7903M59.5478 84.6165C59.8511 85.2759 60.2688 85.804 60.8367 86.0657M59.5478 84.6165C63.3974 84.9253 63.5977 86.0239 63.573 86.7903M63.573 86.7903C66.1279 87.5149 66.8229 89.1453 66.8229 90.4133C66.8229 90.644 66.6968 90.9046 66.4601 91.1777M50.6782 91.6457C51.6864 92.9544 54.0786 94.1739 57.9342 94.0364C62.0896 93.8882 65.3951 92.4063 66.4601 91.1777M50.6782 91.6457V93.8552C51.2829 94.8818 53.5806 96.8986 57.9342 96.7537C63.3762 96.5725 66.2787 95.1233 66.4601 93.4929V91.1777M50.6782 91.6457C50.5017 91.4165 50.3676 91.1846 50.2755 90.9568M111.266 90.2322L109.633 89.6887C110.344 89.0881 110.87 88.2689 110.722 88.2395M111.266 90.2322L112.173 89.8699C112.273 89.9152 112.384 89.9919 112.501 90.0943M111.266 90.2322L99.8377 96.5725M97.8423 95.8479C102.308 93.1033 110.084 88.1127 110.722 88.2395M110.722 88.2395C109.796 87.8168 107.534 87.1526 105.938 87.1526M105.938 87.1526C105.938 87.3337 105.751 88.0946 106.187 88.2395M105.938 87.1526C106.059 86.9714 106.301 86.428 106.301 85.7034M106.301 85.7034C106.301 84.7976 105.756 84.4353 104.849 84.4353C103.942 84.4353 103.217 85.1599 103.217 85.7034C103.217 85.9149 103.244 86.1814 103.353 86.428M106.301 85.7034C106.156 87.0077 105.152 87.213 104.668 87.1526C103.893 87.1526 103.523 86.8148 103.353 86.428M103.353 86.428C103.381 86.6496 103.118 87.0068 103.103 87.3337M103.103 87.3337C103.093 87.5412 103.133 88.0988 102.921 88.2395M103.103 87.3337C101.9 87.6616 100.036 88.4558 98.4898 89.5076M97.1167 96.3271C95.6545 94.9139 95.6118 93.3382 95.8469 92.5872C96.1122 91.4611 97.1882 90.393 98.4898 89.5076M97.1167 96.3271C97.5355 96.7319 98.0707 97.1233 98.7493 97.4783C102.559 99.471 108.001 98.2029 108.908 97.8406C109.815 97.4783 113.443 95.8479 113.805 93.3118C113.982 92.0801 113.16 90.6741 112.501 90.0943M97.1167 96.3271C96.8936 96.6102 96.5849 97.2207 96.6716 97.8706M96.9353 98.5652C97.6609 99.6521 99.6563 100.92 104.554 100.92C108.472 100.92 111.629 99.3502 112.717 98.5652M96.9353 98.5652C96.7831 98.3373 96.7024 98.1015 96.6716 97.8706M96.9353 98.5652V98.9275M112.717 98.5652C112.898 98.4344 113.624 97.6594 113.624 96.7537C113.624 96.3217 113.498 95.7038 112.898 95.3044L117.608 97.4783M112.717 98.5652V99.5099C111.334 100.377 109.059 101.482 106.187 101.871M104.373 102.012C104.433 102.011 104.493 102.009 104.554 102.007C105.117 101.99 105.662 101.943 106.187 101.871M104.373 102.012C102.06 102.058 100.331 101.604 99.1121 101.021M104.373 102.012C104.451 103.104 104.443 105.037 104.075 106.621M106.187 101.871C106.102 103.127 106.189 105.367 106.893 106.898M103.955 107.079C103.757 107.753 103.481 108.332 103.103 108.71M103.955 107.079C102.643 107.26 100.055 107.985 100.2 109.434M103.955 107.079C103.999 106.931 104.039 106.778 104.075 106.621M100.2 109.434C100.201 109.44 100.202 109.446 100.202 109.452M100.2 109.434C100.201 109.439 100.202 109.445 100.202 109.452M100.2 109.434C100.019 109.615 97.2981 111.065 97.4795 112.695C97.4818 112.716 97.4846 112.738 97.4878 112.759M100.2 109.434L100.202 109.452M100.202 109.452C100.393 111.249 102.025 111.789 105.28 111.789C108.545 111.789 110.903 110.159 110.903 109.434M100.202 109.452C100.219 109.648 100.208 110.598 100.2 111.065C100.382 111.85 101.652 113.383 105.28 113.239C108.908 113.094 110.54 111.608 110.903 110.884V109.434M110.903 109.434C110.903 109.327 110.914 109.205 110.918 109.072M106.893 106.898C107.197 107.558 107.614 108.086 108.182 108.347M106.893 106.898C107.618 106.956 108.214 107.043 108.703 107.149M110.918 109.072C110.938 108.45 110.81 107.609 108.703 107.149M110.918 109.072C112.62 109.555 113.497 110.439 113.892 111.35M98.0237 113.927C99.0319 115.236 101.424 116.456 105.28 116.318C109.435 116.17 112.741 114.688 113.805 113.459M98.0237 113.927V116.137C98.6283 117.163 100.926 119.18 105.28 119.035C110.722 118.854 113.624 117.405 113.805 115.775V113.459M98.0237 113.927C97.721 113.535 97.5431 113.134 97.4878 112.759M113.805 113.459C114.042 113.186 114.168 112.926 114.168 112.695C114.168 112.272 114.091 111.808 113.892 111.35M96.6716 97.8706L95.754 98.3214M112.501 90.0943L160.831 66.3508M177.572 22.8435C176.923 22.1189 177.359 21.5884 177.658 21.4137C177.949 22.5731 178.626 21.4137 178.928 20.6891C179.291 20.6891 179.472 20.3268 180.742 20.3268M177.572 22.8435C177.48 23.2775 177.368 24.1054 177.658 24.2368M177.572 22.8435C176.755 23.3201 175.264 24.3858 175.844 24.8362C176.425 25.2865 177.658 24.2992 178.203 23.7493C178.505 24.0743 179.799 24.6268 182.556 24.2368C182.496 24.8054 182.701 26.015 184.007 26.3049C185.313 26.5947 184.793 24.8556 184.37 23.9499C185.277 23.7687 187.055 23.2615 186.91 22.6818C186.765 22.1021 187.938 22.9233 188.542 23.4064C188.603 23.4668 188.833 23.5513 189.268 23.4064C189.812 23.2253 187.635 21.776 186.91 21.5949C186.329 21.45 185.217 20.6891 184.733 20.3268M184.733 20.3268H184.007L183.282 19.9645M184.733 20.3268C185.942 20.3203 188.724 20.9233 190.175 23.387C190.781 24.4158 190.649 25.3119 190.175 26.0463M180.742 20.3268V19.9645M180.742 20.3268C180.863 20.7495 181.323 21.5587 182.193 21.4137C183.064 21.2688 183.282 20.3872 183.282 19.9645M183.282 19.9645C183.342 19.6022 183.209 18.8414 182.193 18.6965C181.177 18.5515 180.803 19.4815 180.742 19.9645M180.742 19.9645C180.307 19.9645 179.714 19.9645 179.472 19.9645C175.844 21.0514 174.575 22.6818 173.849 23.7493C173.278 24.589 172.595 25.7892 174.937 27.2332M174.937 27.2332C175.572 27.6247 176.43 28.0342 177.572 28.4592C181.857 30.0534 185.825 28.8819 187.273 28.0969C188.188 27.7804 189.514 27.0706 190.175 26.0463M174.937 27.2332V27.7541M188.695 29.7273C188.578 29.1255 188.702 28.5435 188.917 28.0969C189.097 27.8033 189.435 27.4 189.924 27.01M188.695 29.7273C188.523 30.398 186.982 31.7757 182.193 31.9206C177.404 32.0655 175.361 29.9149 174.937 28.8215V27.7541M190.175 26.0463C190.008 26.2932 189.723 26.8315 189.924 27.01M174.937 27.7541C174.333 28.2242 173.232 29.3494 173.668 30.0896C173.803 30.3202 174.018 30.651 174.359 31.0148M189.431 31.196C189.074 31.8602 187.127 33.2249 182.193 33.3698C177.563 33.5058 175.387 32.1104 174.359 31.0148M189.431 31.196V32.1017C188.801 32.7356 186.845 33.9238 183.645 34.2116M174.359 31.0148V31.7394C174.855 32.5902 176.371 33.9426 180.561 34.2235M180.561 34.2235C181.065 34.2573 181.608 34.2756 182.193 34.2756C182.702 34.2756 183.186 34.2528 183.645 34.2116M180.561 34.2235C180.605 34.8173 180.656 35.6507 180.689 36.4977M179.472 41.884C179.835 41.5217 180.131 40.8706 180.46 40.0724M180.46 40.0724C180.493 39.9909 180.527 39.9133 180.561 39.8415C180.744 39.4498 180.744 37.9535 180.689 36.4977M180.46 40.0724C179.432 40.2512 177.871 40.6504 176.501 41.27M190.538 44.2389C190.719 47.3185 184.733 48.0237 182.375 48.0237C180.124 48.0237 173.74 46.7209 173.638 44.2389M190.538 44.2389C190.393 41.7753 185.627 40.2038 183.45 39.8415M190.538 44.2389V46.2316C190.48 46.3828 190.379 46.5576 190.227 46.7449M183.645 34.2116C183.575 35.1388 183.479 36.3733 183.438 37.585M184.007 41.884C183.447 41.4365 183.371 39.5406 183.438 37.585M173.638 44.2389C173.633 44.1208 173.643 44.0001 173.668 43.8766C173.888 42.7753 175.094 41.9064 176.501 41.27M173.638 44.2389V45.6882M173.638 45.6882C173.764 45.9453 173.988 46.2602 174.325 46.5939M173.638 45.6882L139.896 62.1665M174.325 46.5939C175.49 47.7489 177.995 49.1301 182.375 49.1301C186.242 49.1301 188.469 48.2231 189.606 47.3412C189.694 47.273 189.776 47.2049 189.851 47.1374M174.325 46.5939V48.2243C174.952 49.3662 177.441 51.6533 182.375 51.6662C187.309 51.6791 189.449 49.6789 189.812 48.7677L189.851 47.1374M189.851 47.1374C190 47.0031 190.125 46.8712 190.227 46.7449M176.501 41.27L164.537 36.4977M240.241 66.7018L261.102 75.0152L247.689 82.2451M240.241 66.7018C240.241 65.6149 239.77 63.1875 235.706 62.173M240.241 66.7018C240.241 67.8878 239.136 69.9158 233.348 69.8305M235.706 62.173C236.432 59.1297 233.953 58.0065 232.623 57.8254C229.539 58.2071 229.357 59.4557 228.906 60.5427C228.743 60.9353 228.781 61.5643 229.014 62.2162M235.706 62.173C235.479 62.7401 234.911 63.6481 234.019 64.2122C233.486 64.5491 232.838 64.7633 232.078 64.7092C230.456 64.5934 229.428 63.369 229.014 62.2162M228.906 62.173C225.788 62.55 224.643 64.8662 224.46 65.9772C224.146 66.9998 225.048 69.0701 230.809 69.6771M228.906 62.173L229.014 62.2162M230.809 69.6771C231.208 69.7192 231.631 69.7542 232.078 69.7814C232.525 69.8085 232.948 69.8246 233.348 69.8305M230.809 69.6771C230.809 70.8221 230.761 72.7428 230.601 73.9479M230.264 75.0348C230.411 74.9861 230.52 74.559 230.601 73.9479M233.348 69.8305C233.309 70.9469 233.29 72.7817 233.398 73.9479M233.711 75.0348C233.556 75.0348 233.457 74.594 233.398 73.9479M230.601 73.9479C230.151 74.0486 229.514 74.2351 228.924 74.4919M227.362 75.9406C227.362 76.9551 227.362 77.6917 227.362 77.9333C227.846 78.4767 229.466 79.5636 232.078 79.5636C234.691 79.5636 236.069 78.5975 236.432 78.1144V76.1218M227.362 75.9406C227.362 76.6048 228.305 77.9333 232.078 77.9333C235.851 77.9333 236.553 76.6048 236.432 75.9406M227.362 75.9406C227.362 75.8792 227.37 75.8188 227.385 75.7594M236.432 75.9406C236.29 75.4776 235.536 74.4709 233.65 74.0053M236.432 75.9406V76.1218M233.398 73.9479C233.484 73.966 233.568 73.9851 233.65 74.0053M227.385 75.7594C226.228 76.1821 223.915 77.3898 223.915 78.839C223.915 78.9261 223.92 79.0145 223.931 79.1038M227.385 75.7594C227.516 75.247 228.183 74.8142 228.924 74.4919M236.432 76.1218C237.481 76.5874 239.542 77.7712 239.689 78.8944M224.092 79.7448C224.716 81.3483 227.057 83.0055 232.078 83.0055C236.54 83.0055 238.583 81.5969 239.334 80.2794M224.092 79.7448V82.2809C224.759 83.4282 227.289 85.6866 232.078 85.5417C236.867 85.3968 238.911 83.7905 239.334 83.0055V80.2794M224.092 79.7448C224.008 79.5288 223.955 79.3137 223.931 79.1038M239.334 80.2794C239.591 79.8291 239.697 79.3894 239.697 79.0202C239.697 78.9784 239.694 78.9364 239.689 78.8944M130.857 6.19761C129.511 5.63149 129.061 4.89838 129.052 4.20493M130.857 6.19761V9.2772C131.728 11.0163 132.55 10.1226 132.853 9.45835V8.37144M130.857 6.19761L132.49 5.11069M129.052 4.20493C129.043 3.47823 129.517 2.7951 129.95 2.39341L131.764 3.21683M129.052 4.20493C129.045 4.92954 129.164 8.61297 129.225 10.3641C129.225 10.5382 129.278 10.747 129.406 10.9719M143.555 3.29917L143.737 10.183C143.737 10.4873 143.623 10.874 143.332 11.2699M143.555 3.29917C143.374 2.93686 142.793 2.13979 141.923 1.84995L140.29 2.75571M143.555 3.29917C143.265 4.74839 142.83 5.23146 142.648 5.29184M142.648 5.29184V8.55259C142.588 9.21681 142.213 10.3641 141.197 9.6395V6.19761M142.648 5.29184L140.653 4.74839M141.197 6.19761C139.564 6.86183 135.61 7.86421 132.853 6.55991M141.197 6.19761L140.653 5.99999M132.853 6.55991V8.37144M132.853 6.55991L133.578 6.10703M132.49 5.11069C132.006 4.80877 131.22 4.02378 131.946 3.29917L131.764 3.21683M132.49 5.11069V8.37144H132.853M140.29 2.75571C140.834 2.99725 141.669 3.73393 140.653 4.74839M140.29 2.75571V4.20493C140.145 5.19093 140.169 4.85734 140.109 4.56729V1.30649M140.653 4.74839V5.99999M140.653 5.99999L139.202 5.473C137.46 6.34253 135.211 5.95607 134.304 5.65415L133.578 6.10703M131.764 3.21683V1.6688M131.764 1.6688C132.792 1.06496 135.9 0.147118 140.109 1.30649M131.764 1.6688C132.054 1.81372 133.094 2.21225 133.578 2.39341M140.109 1.30649L138.295 2.21231M138.295 2.21231C137.448 1.91035 135.32 1.52383 133.578 2.39341M138.295 2.21231V5.65415M133.578 2.39341V6.10703M129.406 10.9719C129.943 11.9172 131.791 13.1455 136.481 13.2625C140.66 13.3669 142.583 12.2879 143.332 11.2699M129.406 10.9719C129.285 11.192 129.079 11.6684 129.225 11.8133M129.225 11.8133C129.406 11.9945 128.68 12.5379 129.587 12.9002C130.494 13.2625 129.043 13.6249 129.769 13.9872C130.444 14.3245 130.805 15.7614 135.392 15.8113M129.225 11.8133C129.406 12.6587 131.039 14.1683 136.481 14.1683C140.834 14.1683 142.83 13.021 143.192 12.5379M143.192 12.5379V13.2625C142.86 13.981 141.282 15.3872 137.569 15.7316M143.192 12.5379C143.434 12.3568 143.845 11.9945 143.555 11.9945C143.192 11.9945 144.196 11.2699 143.332 11.2699M135.392 15.8113C135.731 15.815 136.093 15.8112 136.481 15.7987C136.862 15.7864 137.225 15.7636 137.569 15.7316M135.392 15.8113C135.411 16.2753 135.414 16.9167 135.385 17.6245M134.485 22.139C134.664 21.8418 134.81 21.4637 134.928 21.0375C134.962 20.9184 134.993 20.7955 135.022 20.6696M137.569 15.7316C137.535 16.2722 137.507 16.9705 137.498 17.7072M135.272 19.1466C135.329 18.6319 135.365 18.1124 135.385 17.6245M135.272 19.1466C135.228 19.5418 135.171 19.9342 135.098 20.3072C135.075 20.4303 135.049 20.5513 135.022 20.6696M137.498 17.7072C137.491 18.309 137.497 18.9365 137.524 19.5245M137.524 19.5245C137.537 19.796 137.555 20.059 137.578 20.3072C137.589 20.432 137.602 20.5531 137.616 20.6696M137.764 21.4859C137.853 21.8183 137.967 22.0514 138.113 22.139C143.047 22.4289 143.918 24.9771 143.737 26.1244M137.764 21.4859C137.703 21.2561 137.655 20.979 137.616 20.6696M131.764 22.8636C131.945 24.3128 135.574 24.6751 136.481 24.6751C137.388 24.6751 140.834 24.1317 141.378 22.6825C141.675 21.8932 140.477 21.2208 139.226 20.7746M131.764 22.8636C130.857 23.4675 129.116 24.9288 129.406 25.9432C129.337 26.1483 129.369 26.412 129.587 26.6845M131.764 22.8636C131.695 22.3087 132.187 21.7839 132.848 21.347M143.737 26.1244C143.676 26.8528 142.068 28.3075 136.118 28.2982C131.861 28.2916 130.136 27.3695 129.587 26.6845M143.737 26.1244V28.201M129.587 26.6845V27.8054M143.737 28.201V28.8417C142.89 29.6266 140.181 31.1966 136.118 31.1966C132.054 31.1966 130.071 29.5059 129.587 28.6605V27.8054M129.587 27.8054L122.085 31.1966M139.226 20.7746C139.038 20.6869 138.549 20.5537 137.932 20.6197M132.848 21.347C132.945 21.2766 133.131 21.1722 133.397 21.0645M137.616 20.6696C137.725 20.6468 137.83 20.6305 137.932 20.6197M135.022 20.6696C134.332 20.7458 133.781 20.9085 133.397 21.0645M91.1305 80.2889L86.2327 78.2962V77.2282L85.6885 77.0282V75.3978M91.1305 80.2889V78.4774L91.6747 78.8397M91.1305 80.2889L92.2189 79.7455L92.1282 78.6586M91.6747 78.8397V77.0282M91.6747 78.8397L92.1282 78.6586M91.6747 77.0282L90.9491 76.6659M91.6747 77.0282L92.7631 76.6659M90.9491 76.6659V75.579M90.9491 76.6659L92.0375 76.2834M90.9491 75.579L88.5909 73.0227M90.9491 75.579L92.0375 75.2167M88.5909 73.0227L86.3945 73.5101M88.5909 73.0227L89.1351 72.8516L89.2513 72.8151M92.0375 75.2167V76.2834M92.0375 75.2167L91.8561 75.0216M92.0375 76.2834L92.7631 76.6659M92.7631 76.6659L92.5817 78.4774L92.1282 78.6586M85.6885 75.3978V75.2167H86.0513V73.5863L86.3945 73.5101M85.6885 75.3978C85.1708 75.5184 84.5054 75.7296 83.8187 76.0337M91.8561 75.0216C93.3194 75.1972 94.9672 75.6598 96.2414 76.4932M91.8561 75.0216L90.8316 73.9198M98.0237 81.1172C96.6082 82.9747 91.3969 83.7028 88.5909 83.7308C86.0691 83.756 81.2626 83.021 80.3856 80.8324M98.0237 81.1172C98.2564 80.8119 98.3865 80.476 98.3865 80.1078C98.3865 79.316 98.1726 78.6294 97.8071 78.0386M98.0237 81.1172L97.236 82.427M80.3856 80.8324C80.2951 80.6066 80.2465 80.3653 80.2465 80.1078C80.2465 78.1401 82.0992 76.7953 83.8187 76.0337M80.3856 80.8324L80.8288 81.5787M97.026 82.7763L96.0283 84.4353C95.7259 85.227 94.0329 86.8788 89.6793 87.1526C85.3257 87.4263 83.3907 85.9516 82.9675 85.18L82.1068 83.7308M97.026 82.7763C98.3865 83.0062 99.2935 86.173 97.8423 87.1526M97.026 82.7763L97.236 82.427M97.8423 87.1526C95.6655 88.6219 93.8515 90.0712 89.3165 90.0712C85.3948 90.0712 81.7444 88.3101 80.8288 86.428M97.8423 87.1526V88.2395C97.7086 88.4298 97.5073 88.6552 97.236 88.8962M82.1068 83.7308C81.6076 83.6101 80.6093 84.6366 80.6093 85.5423C80.6093 85.8363 80.6856 86.1336 80.8288 86.428M82.1068 83.7308L80.8288 81.5787M80.8288 86.428V88.2395C81.0673 88.5852 81.5278 89.0466 82.2253 89.5076M88.0467 91.2945C88.4521 91.3236 88.8753 91.3392 89.3165 91.3392C90.1683 91.3392 90.9538 91.2811 91.6747 91.1795M88.0467 91.2945C88.2216 92.6698 88.3885 94.9245 88.2449 96.7738M88.0467 91.2945C85.3459 91.1003 83.4313 90.3046 82.2253 89.5076M87.3211 99.6722C87.8713 99.2516 88.1404 98.1202 88.2449 96.7738M91.6747 91.1795C91.2514 93.7554 90.9491 98.9839 93.1259 99.2898M91.6747 91.1795C94.4605 90.7868 96.2814 89.7444 97.236 88.8962M88.2449 96.7738C87.3097 96.8663 86.038 97.337 85.0951 97.9686M83.8745 100.035C84.6001 101.846 87.6839 102.39 89.8607 102.39C92.0375 102.39 96.3638 101.665 96.0283 98.9476M83.8745 100.035V101.665C83.8745 102.269 85.0717 103.549 89.8607 103.839C94.6496 104.129 95.9678 102.148 96.0283 101.121V98.9476M83.8745 100.035C83.6466 99.4655 83.9891 98.8686 84.6001 98.3425M96.0283 98.9476C96.0066 98.772 95.9434 98.6072 95.8469 98.4533M91.5065 96.7738C92.569 96.7738 94.9381 97.2775 95.754 98.3214M84.6001 98.3425C83.1743 98.8461 80.4239 100.252 80.8288 101.846C80.962 102.371 81.211 102.933 81.6213 103.476M84.6001 98.3425C84.7503 98.2131 84.9168 98.0879 85.0951 97.9686M98.9307 102.752C98.0237 103.96 94.9399 106.375 89.8607 106.375C85.1829 106.375 82.7699 104.998 81.6213 103.476M98.9307 102.752C99.1725 102.383 99.5474 101.52 99.1121 101.021M98.9307 102.752V104.201M99.1121 101.021C97.9236 100.452 97.2207 99.7606 96.9353 99.2898V98.9275M96.9353 98.9275L95.8469 98.4533M95.8469 98.4533C95.8187 98.4085 95.7877 98.3645 95.754 98.3214M81.6213 103.476L81.6678 105.242M81.6678 105.242L81.6977 106.375C82.3023 107.522 84.7815 109.817 89.8607 109.817C94.9399 109.817 98.0237 107.039 98.9307 105.65V104.201M91.1093 42.2469C90.4442 42.6696 89.1865 43.9135 89.4767 45.5077L87.9108 46.645M83.4905 55.8334C83.0243 55.471 83.4905 54.3841 83.4905 54.0218C83.4905 53.845 83.7498 53.1934 84.0575 52.5726M91.2907 42.2469L91.8349 44.4208L92.5605 44.6019C92.8629 44.1188 93.5401 43.1527 93.8303 43.1527M93.8303 43.1527C93.9171 43.1527 93.8872 43.4007 93.7881 43.7856M93.8303 43.1527L93.7881 43.7856M93.7881 43.7856C93.5556 44.6887 92.9421 46.3454 92.5605 47.3192L91.8349 49.1307C91.5541 49.7171 91.2258 50.6416 91.0604 51.6668M93.7881 43.7856L93.7741 43.9945M91.0604 51.6668C90.834 53.0697 90.9126 54.6611 91.8349 55.8334M91.0604 51.6668C91.1528 51.8643 91.32 52.1541 91.5312 52.4068C91.7719 52.695 92.0699 52.9349 92.3791 52.9349C92.9397 52.9349 94.0414 52.1782 94.3465 51.6668M84.0575 52.5726C84.3802 51.9216 84.756 51.3045 84.9417 51.3045C85.232 51.3045 86.7557 48.4061 87.4813 46.9569L87.9108 46.645M84.0575 52.5726C83.6788 52.823 83.1865 53.1859 82.7283 53.5895M81.4951 58.5506C81.6402 58.2608 81.5556 57.6082 81.4951 57.427C81.2049 56.9629 81.3742 56.1712 81.4951 55.8334C81.1152 55.2643 81.8606 54.3539 82.7283 53.5895M81.4951 58.5506C81.3137 58.9129 81.4951 59.8187 81.8579 60.3622C82.0084 60.5876 82.3151 61.1249 83.0887 61.6894M81.4951 58.5506C82.9463 60.9056 84.5712 62.3183 90.0209 62.536C94.5559 62.7171 97.7607 60.3018 98.9095 58.9129M98.9095 58.9129V59.9999C98.8368 60.1116 98.7462 60.2333 98.6375 60.3622M98.9095 58.9129C99.0305 58.611 99.1635 57.9709 98.7281 57.826C98.9095 57.4637 99.1272 56.4855 98.5467 55.4711C98.4023 55.2186 98.2578 54.9877 98.1191 54.7769M94.3465 51.6668C94.4363 51.5163 94.4571 51.387 94.3745 51.3045C94.3107 51.2408 94.2574 51.1583 94.213 51.0653C94.0559 50.7353 94.0117 50.272 94.0117 50.0365C94.8824 47.4279 94.1327 46.1719 93.6489 45.87L93.7115 44.9322M94.3465 51.6668C95.2628 52.0292 97.0955 52.8262 97.0955 53.1161C97.0955 53.4062 97.561 53.9288 98.1191 54.7769M88.7511 63.3752C89.1506 63.4067 89.5734 63.4293 90.0209 63.4418C90.7126 63.4609 91.3631 63.4359 91.9731 63.3752M88.7511 63.3752C88.8552 64.3236 88.9235 65.8522 88.7433 67.0648M88.7511 63.3752C85.7395 63.1373 84.0521 62.3923 83.0887 61.6894M91.9731 63.3752C92.0157 64.3498 92.1413 65.8908 92.3753 67.0648M91.9731 63.3752C95.5444 63.0197 97.7265 61.4417 98.6375 60.3622M93.1047 68.6952C92.8544 68.6452 92.6511 68.2005 92.489 67.569C92.4485 67.4115 92.4107 67.2424 92.3753 67.0648M92.3753 67.0648C92.6349 67.0761 92.9442 67.1071 93.2766 67.1632C94.4277 67.3577 95.9666 67.9433 96.565 68.9658M96.7327 69.7821C96.7401 69.8853 96.7388 69.9852 96.7293 70.0819M96.7327 69.7821C96.7283 69.7204 96.7214 69.66 96.7122 69.6009M96.7327 69.7821L96.7293 70.0819M96.7293 70.0819C96.5065 72.3615 91.7685 72.8617 90.2023 72.8617C90.0932 72.8617 89.9718 72.8592 89.8405 72.854M96.7293 70.0819L96.7122 71.5936C96.4881 72.2845 94.995 73.667 90.8316 73.9198M88.7433 67.0648C88.6095 67.965 88.3388 68.6911 87.8441 68.8763M88.7433 67.0648C87.7458 67.1082 86.0129 67.4447 85.0626 68.3834M84.418 69.6009C84.4088 69.66 84.4019 69.7204 84.3975 69.7821C84.3813 70.0092 84.4014 70.2204 84.4527 70.4166M84.418 69.6009C83.4557 69.9029 81.5275 71.0502 81.5131 73.224C81.5895 73.6735 81.8577 74.2722 82.4021 74.8815M84.418 69.6009C84.4942 69.1128 84.7307 68.7113 85.0626 68.3834M96.7122 69.6009C99.4606 70.6154 99.806 72.439 99.6351 73.224C99.5197 73.5843 99.2857 74.0286 98.9095 74.4942M96.7122 69.6009C96.6705 69.3342 96.692 69.1828 96.565 68.9658M84.4527 70.4166C84.5519 70.7962 84.7678 71.1199 85.0626 71.3952C86.0475 72.3149 87.9128 72.6945 89.2513 72.8151M84.4527 70.4166V71.5936C84.4411 72.1288 84.8873 72.9882 86.3945 73.5101M82.4021 74.8815C82.7525 75.2735 83.2172 75.6699 83.8187 76.0337M82.4021 74.8815V75.3978M82.4021 76.847V75.3978M98.9095 74.4942V76.847C98.7419 77.1632 98.385 77.5939 97.8071 78.0386M98.9095 74.4942C98.3548 75.181 97.4907 75.9142 96.2414 76.4932M98.9095 74.4942L153.153 98.31M97.8071 78.0386C97.4263 77.423 96.8809 76.9114 96.2414 76.4932M89.8405 72.854L89.6793 72.6805L89.2513 72.8151M89.8405 72.854L90.7677 73.8511L90.8316 73.9198M87.9108 46.645L77.603 51.3045M93.7741 43.9945L107.489 37.7949M93.7741 43.9945L93.7115 44.9322M171.966 62.9999C171.739 63.567 171.171 64.475 170.279 65.0391C169.746 65.376 169.098 65.5902 168.338 65.536C166.716 65.4203 165.688 64.1959 165.274 63.0431M171.966 62.9999C172.166 62.1606 172.123 61.4674 171.927 60.8996M171.966 62.9999C174.883 63.7282 175.949 65.1848 176.319 66.3508M165.274 63.0431L165.166 62.9999C162.427 63.3311 161.21 65.1583 160.831 66.3508M165.274 63.0431C165.066 62.4629 165.014 61.9009 165.12 61.5075M167.068 70.504C161.308 69.897 160.406 67.8266 160.719 66.8041C160.742 66.6689 160.778 66.5159 160.831 66.3508M167.068 70.504C167.468 70.5461 167.891 70.5811 168.338 70.6083C168.785 70.6354 169.208 70.6514 169.608 70.6574M167.068 70.504C167.068 71.649 167.021 73.5697 166.861 74.7748M169.608 70.6574C175.396 70.7427 176.501 68.7147 176.501 67.5287C176.501 67.2221 176.464 66.8089 176.319 66.3508M169.608 70.6574C169.569 71.7737 169.55 73.6086 169.658 74.7748M166.861 74.7748C166.78 75.3859 166.671 75.813 166.524 75.8617M166.861 74.7748C166.507 74.8539 166.038 74.9862 165.566 75.1639M163.622 76.7675V78.7602C164.106 79.3036 165.726 80.3905 168.338 80.3905C170.95 80.3905 172.329 79.4244 172.692 78.9413V77.059M163.622 76.7675C163.622 77.4317 164.565 78.7602 168.338 78.7602C171.616 78.7602 172.576 77.7577 172.692 77.059M163.622 76.7675C163.622 76.7061 163.63 76.6457 163.645 76.5863M169.658 74.7748C169.717 75.4208 169.816 75.8617 169.971 75.8617M169.658 74.7748C169.744 74.7929 169.828 74.812 169.909 74.8322C170.701 75.0276 171.293 75.3184 171.725 75.6243M172.692 77.059C172.698 77.0231 172.702 76.9879 172.703 76.9537M172.692 77.059V76.9486M172.703 76.9537C172.707 76.8875 172.702 76.825 172.692 76.7675M172.703 76.9537C172.7 76.952 172.696 76.9503 172.692 76.9486M172.703 76.9537C173.739 77.4151 175.735 78.5635 175.94 79.6659M172.692 76.7675V76.9486M172.692 76.7675C172.609 76.4988 172.321 76.0471 171.725 75.6243M163.645 76.5863C162.488 77.009 160.175 78.2167 160.175 79.6659C160.175 79.753 160.18 79.8414 160.191 79.9307C160.215 80.1406 160.268 80.3557 160.352 80.5717M163.645 76.5863C163.798 75.9867 164.685 75.4959 165.566 75.1639M160.352 80.5717C160.976 82.1751 163.317 83.8324 168.338 83.8324C172.8 83.8324 174.843 82.4238 175.594 81.1063M160.352 80.5717V81.3133M175.594 81.1063C175.851 80.6559 175.957 80.2162 175.957 79.8471C175.957 79.7869 175.951 79.7265 175.94 79.6659M175.594 81.1063V83.8324C175.171 84.6174 173.127 86.2236 168.338 86.3686C163.549 86.5135 161.018 84.2551 160.352 83.1078V81.3133M140.653 49.8553C140.426 50.4224 139.857 51.3304 138.965 51.8945C138.432 52.2314 137.784 52.4456 137.025 52.3915C135.402 52.2757 134.374 51.0513 133.961 49.8985M140.653 49.8553C140.822 49.147 140.817 48.5426 140.693 48.03M140.653 49.8553C143.667 50.6079 144.705 52.138 145.04 53.3216M129.406 53.6595C129.589 52.5485 130.734 50.2323 133.853 49.8553L133.961 49.8985M129.406 53.6595C129.092 54.6821 129.994 56.7524 135.755 57.3594M129.406 53.6595L96.565 68.9658M133.961 49.8985C133.79 49.4232 133.724 48.9602 133.764 48.592M135.755 57.3594C136.154 57.4015 136.577 57.4365 137.025 57.4637C137.471 57.4908 137.894 57.5069 138.295 57.5128M135.755 57.3594C135.755 58.5044 135.707 60.4251 135.548 61.6302M138.295 57.5128C144.082 57.5981 145.188 55.5701 145.188 54.3841C145.188 54.1035 145.156 53.7335 145.04 53.3216M138.295 57.5128C138.256 58.6292 138.237 60.464 138.344 61.6302M135.548 61.6302C135.467 62.2413 135.357 62.6684 135.211 62.7171M135.548 61.6302C135.239 61.6992 134.843 61.8086 134.434 61.9532M132.308 63.6229V65.6156C132.792 66.159 134.413 67.2459 137.025 67.2459C139.637 67.2459 141.016 66.2798 141.378 65.7967V63.9145M132.308 63.6229C132.308 64.2871 133.252 65.6156 137.025 65.6156C140.302 65.6156 141.262 64.6132 141.378 63.9145M132.308 63.6229C132.308 63.5615 132.316 63.5011 132.331 63.4418M138.344 61.6302C138.404 62.2763 138.502 62.7171 138.657 62.7171M138.344 61.6302C138.43 61.6483 138.514 61.6674 138.596 61.6876C139.11 61.8144 139.539 61.9814 139.896 62.1665M141.378 63.9145C141.384 63.8785 141.388 63.8433 141.39 63.8092M141.378 63.9145V63.8041M141.39 63.8092C141.393 63.743 141.389 63.6804 141.378 63.6229M141.39 63.8092C141.386 63.8074 141.382 63.8057 141.378 63.8041M141.39 63.8092C142.372 64.2468 144.218 65.3025 144.581 66.3508M141.378 63.6229V63.8041M141.378 63.6229C141.275 63.286 140.848 62.6612 139.896 62.1665M132.331 63.4418C131.175 63.8644 128.862 65.0721 128.862 66.5213C128.862 66.6084 128.867 66.6968 128.877 66.7861C128.901 66.996 128.954 67.2111 129.038 67.4271M132.331 63.4418C132.495 62.8009 133.497 62.2845 134.434 61.9532M129.038 67.4271C129.662 69.0306 132.003 70.6878 137.025 70.6878C141.486 70.6878 143.529 69.2792 144.281 67.9617M129.038 67.4271V69.9632C129.705 71.1105 132.236 73.3689 137.025 73.224C141.814 73.0791 143.857 71.4728 144.281 70.6878V67.9617M129.038 67.4271L97.236 82.427M144.281 67.9617C144.538 67.5114 144.644 67.0717 144.644 66.7025C144.644 66.5859 144.622 66.4684 144.581 66.3508M158.611 86.4481C162.675 87.4626 163.146 89.89 163.146 90.9769C163.146 92.1629 162.041 94.1909 156.253 94.1055M158.611 86.4481C158.384 87.0152 157.816 87.9232 156.924 88.4873C156.391 88.8242 155.743 89.0384 154.983 88.9842C153.361 88.8685 152.333 87.6441 151.919 86.4913M158.611 86.4481C158.628 86.3801 158.642 86.3131 158.655 86.2471M150.63 85.9768L151.811 86.4481M151.811 86.4481C148.693 86.8251 147.548 89.1413 147.365 90.2523C147.051 91.2748 147.953 93.3452 153.714 93.9522M151.811 86.4481L151.919 86.4913M151.919 86.4913C151.812 86.1925 151.746 85.8986 151.722 85.63M153.714 93.9522C154.113 93.9943 154.536 94.0293 154.983 94.0565C155.43 94.0836 155.853 94.0996 156.253 94.1055M153.714 93.9522C153.714 95.0972 153.666 97.0179 153.506 98.223M156.253 94.1055C156.214 95.2219 156.195 97.0568 156.303 98.223M153.506 98.223C153.425 98.8341 153.316 99.2612 153.169 99.3099M153.506 98.223C153.398 98.2471 153.28 98.2762 153.153 98.31M150.267 100.216V102.208C150.751 102.752 152.371 103.839 154.983 103.839C157.595 103.839 158.974 102.873 159.337 102.39V100.507M150.267 100.216C150.267 100.88 151.21 102.208 154.983 102.208C158.261 102.208 159.221 101.206 159.337 100.507M150.267 100.216C150.267 100.154 150.275 100.094 150.29 100.035M156.303 98.223C156.362 98.869 156.461 99.3099 156.616 99.3099M156.303 98.223C156.389 98.2411 156.473 98.2602 156.554 98.2804C156.594 98.29 156.632 98.2999 156.67 98.31M159.337 100.507C159.343 100.471 159.347 100.436 159.348 100.402M159.337 100.507V100.397M159.348 100.402C159.352 100.336 159.347 100.273 159.337 100.216M159.348 100.402C159.345 100.4 159.341 100.399 159.337 100.397M159.348 100.402C160.164 100.766 161.577 101.556 162.239 102.414M159.337 100.216V100.397M159.337 100.216C159.198 99.7623 158.472 98.7875 156.67 98.31M150.29 100.035C149.133 100.457 146.82 101.665 146.82 103.114C146.82 103.201 146.825 103.29 146.836 103.379M150.29 100.035C150.499 99.2118 152.093 98.5941 153.153 98.31M146.997 104.02C147.621 105.623 149.962 107.281 154.983 107.281C159.445 107.281 161.488 105.872 162.239 104.554M146.997 104.02V106.556C147.663 107.703 150.194 109.962 154.983 109.817C159.772 109.672 161.816 108.066 162.239 107.281V104.554M146.997 104.02C146.913 103.804 146.86 103.589 146.836 103.379M162.239 104.554C162.496 104.104 162.602 103.664 162.602 103.295C162.602 103.003 162.464 102.704 162.239 102.414M160.352 81.3133L157.362 82.8087M151.722 85.63C151.693 85.3125 151.723 85.0304 151.811 84.8177C151.964 84.4505 152.085 84.0648 152.298 83.7004M157.362 82.8087C156.749 82.3879 156.05 82.1716 155.528 82.1004C153.486 82.3532 152.716 82.9861 152.298 83.7004M157.362 82.8087C158.276 83.4356 158.997 84.5165 158.655 86.2471M171.927 60.8996C171.412 59.4087 169.846 58.7834 168.882 58.6522C165.799 59.034 165.617 60.2826 165.166 61.3695C165.148 61.4128 165.133 61.4588 165.12 61.5075M57.9342 101.544L82.2253 89.5076M57.9342 101.544L42.8568 94.4456M154.643 41.4983C154.915 41.3157 161.352 38.0885 164.537 36.4977M144.282 46.2133L140.693 48.03M140.693 48.03C140.286 46.3402 138.59 45.6467 137.569 45.5077C134.485 45.8894 134.304 47.138 133.853 48.225C133.808 48.3314 133.779 48.4551 133.764 48.592M62.2878 84.7976L74.5507 79.0669M82.4021 75.3978L74.5507 79.0669M42.8568 94.4456L50.2755 90.9568M42.8568 94.4456L27.7457 87.3315M27.7457 87.3315L13.1284 80.4499L20.8398 76.964M83.0887 61.6894L66.0173 68.9658M98.1191 54.7769L144.522 33.3117M157.009 131.121L131.157 119.164M157.009 131.121L172.849 122.583M104.075 106.621L98.9307 104.201M85.0951 97.9686L66.2787 89.5076M56.3293 84.8415L37.0334 76.071M32.9046 71.5102L43.585 66.6822M247.689 82.2451L239.689 78.8944M247.689 82.2451L233.65 89.8122M228.924 74.4919L159.449 46.4091M148.272 42.0433L122.085 31.1966M122.085 31.1966L107.489 37.7949M233.65 89.8122L176.319 66.3508M233.65 89.8122L219.002 97.7073M165.12 61.5075L145.04 53.3216M133.764 48.592L107.489 37.7949M219.002 97.7073L175.94 79.6659M219.002 97.7073L204.152 105.711M165.566 75.1639L144.581 66.3508M134.434 61.9532L93.7115 44.9322M204.152 105.711L158.655 86.2471M204.152 105.711L188.688 114.046M152.298 83.7004L98.6375 60.3622M82.7283 53.5895L77.603 51.3045M77.603 51.3045L62.1553 58.2876M188.688 114.046L162.239 102.414M188.688 114.046L172.849 122.583M85.0626 68.3834L62.1553 58.2876M62.1553 58.2876L43.585 66.6822M98.4898 89.5076L97.236 88.8962M74.5507 79.0669L80.8288 81.5787M74.5507 79.0669L65.9591 75.5588M43.585 66.6822L49.4298 68.7438" stroke="#FDFAF6" stroke-width="1.5"/>
</svg>
