<svg width="190" height="82" viewBox="0 0 190 82" fill="none" xmlns="http://www.w3.org/2000/svg">
<path d="M59.1336 12.3989C50.5566 12.3989 30.9706 10.6534 21.2422 3.67106C17.4237 2.2746 9.64566 -0.0993861 9.0817 1.57637M9.0817 1.57637C8.46268 3.41571 7.43599 8.75446 19.1273 13.5743M9.0817 1.57637C5.0282 7.62769 -1.98612 23.3262 2.38461 37.7097C7.84802 55.6892 16.1313 68.0827 33.0502 72.0976M127.514 13.4383C115.706 6.62616 107.579 1.57637 94.0289 1.57637C78.2091 1.57637 60.3191 11.3885 56.2049 13.5743M127.514 13.4383C141.473 13.4319 150.249 11.4626 152.893 10.4788C171.645 3.35683 178.212 1.69272 179.152 1.7509C181.207 1.64189 182.216 2.05844 182.501 2.80003M127.514 13.4383C129.194 14.407 130.947 15.4113 132.802 16.4418M132.802 16.4418C134.528 17.4014 136.342 18.3838 138.265 19.3812C143.892 20.4567 156.559 20.9079 168.241 15.8901M132.802 16.4418C136.385 16.5488 146.936 15.2617 160.471 9.25688C174.006 3.2521 176.45 5.70754 175.98 7.68586C175.403 9.08232 173.048 12.6782 168.241 15.8901M168.241 15.8901C170.464 14.9354 172.651 13.7828 174.746 12.3989C178.267 9.64403 183.311 4.90839 182.501 2.80003M19.1273 13.5743C20.7504 14.2434 22.6186 14.9026 24.767 15.5409C42.3909 20.7777 53.8464 14.6682 55.4326 13.9699C55.5659 13.9112 55.8274 13.7749 56.2049 13.5743M19.1273 13.5743C16.3662 10.9715 11.972 5.55624 16.4837 4.71838C17.2474 4.6602 19.7618 4.96276 23.7095 6.63851C28.6442 8.7332 35.1651 11.6077 44.682 13.5743C52.2955 15.1476 55.5362 14.2299 56.2049 13.5743M33.0502 72.0976C33.4614 74.0759 35.5528 78.3467 40.6285 79.6035C40.981 79.6035 45.387 79.2981 47.5018 75.3487M33.0502 72.0976C38.1871 73.3165 42.8366 74.4068 47.5018 75.3487M182.501 2.80003C192.37 20.1175 188.846 38.8746 185.85 46.0885C183.911 52.1398 176.262 65.7088 161.176 71.5739C159.512 72.2209 157.745 72.8176 155.889 73.3675M47.5018 75.3487C58.2021 77.5093 68.9852 78.8897 85.9219 79.2544C102.909 79.6202 123.678 79.3047 141.085 76.5833M141.085 76.5833C142.142 78.0556 145.033 81 148.134 81C151.236 81 154.596 75.9117 155.889 73.3675M141.085 76.5833C146.401 75.7522 151.404 74.6966 155.889 73.3675" stroke="white" stroke-width="2"/>
</svg>
