<svg width="148" height="64" viewBox="0 0 148 64" fill="none" xmlns="http://www.w3.org/2000/svg">
<path d="M45.8963 9.58417C39.2355 9.58417 24.025 8.23135 16.47 2.82007C13.5046 1.73781 7.46419 -0.102024 7.02621 1.19668M7.02621 1.19668C6.54549 2.62217 5.74816 6.7597 14.8276 10.4951M7.02621 1.19668C3.87828 5.88646 -1.56901 18.0528 1.82528 29.2001C6.06814 43.1341 12.5009 52.7391 25.6401 55.8506M99.0005 10.3897C89.8298 5.11027 83.5189 1.19668 72.9959 1.19668C60.7102 1.19668 46.817 8.80106 43.6219 10.4951M99.0005 10.3897C109.84 10.3847 116.656 8.85854 118.709 8.09605C133.272 2.57655 138.372 1.28686 139.102 1.33195C140.698 1.24747 141.482 1.57029 141.703 2.14502M99.0005 10.3897C100.305 11.1404 101.666 11.9188 103.107 12.7174M103.107 12.7174C104.448 13.4611 105.856 14.2224 107.349 14.9954C111.719 15.8289 121.557 16.1786 130.629 12.2898M103.107 12.7174C105.889 12.8003 114.083 11.8028 124.595 7.14908C135.106 2.49538 137.004 4.39834 136.639 5.93154C136.191 7.0138 134.361 9.80061 130.629 12.2898M130.629 12.2898C132.355 11.55 134.053 10.6567 135.681 9.58417C138.415 7.44912 142.332 3.779 141.703 2.14502M14.8276 10.4951C16.0881 11.0137 17.5389 11.5245 19.2073 12.0192C32.894 16.0777 41.7903 11.3428 43.0221 10.8017C43.1256 10.7562 43.3287 10.6505 43.6219 10.4951M14.8276 10.4951C12.6834 8.47787 9.27082 4.28109 12.7746 3.63175C13.3677 3.58665 15.3203 3.82114 18.3861 5.11985C22.2184 6.74323 27.2825 8.97097 34.6732 10.4951C40.5859 11.7144 43.1026 11.0031 43.6219 10.4951M25.6401 55.8506C25.9594 57.3838 27.5836 60.6937 31.5253 61.6677C31.7991 61.6677 35.2207 61.4311 36.8631 58.3703M25.6401 55.8506C29.6293 56.7953 33.2401 57.6403 36.8631 58.3703M141.703 2.14502C149.367 15.5661 146.63 30.1029 144.303 35.6936C142.798 40.3834 136.858 50.8993 125.142 55.4448C123.85 55.9462 122.477 56.4087 121.036 56.8348M36.8631 58.3703C45.1729 60.0447 53.547 61.1146 66.7 61.3972C79.8918 61.6806 96.0212 61.4362 109.539 59.3271M109.539 59.3271C110.36 60.4681 112.605 62.75 115.014 62.75C117.423 62.75 120.032 58.8066 121.036 56.8348M109.539 59.3271C113.668 58.6829 117.553 57.8649 121.036 56.8348" stroke="white" stroke-width="1.5"/>
</svg>
